<svg id="Goal-bro" xmlns="http://www.w3.org/2000/svg" xmlns:xlink="http://www.w3.org/1999/xlink" width="719.586" height="678.528" viewBox="0 0 719.586 678.528">
  <defs>
    <clipPath id="clip-path">
      <path id="Intersección_1" data-name="Intersección 1" d="M.342,19.548s-3.7,30.233,13.273,45.131L40.529,24.508,93.52,29.486V18.726S43.412,1.732,37.194.091a3.154,3.154,0,0,0-.8-.091C28.726,0,.342,19.548.342,19.548ZM36.985.981c5.745,1.537,50,16.505,55.68,18.41v9.186L40.617,23.7a.855.855,0,0,0-.821.384L13.44,63.4C-1.161,49.624.848,23.513,1.18,20.037v.052C13.406,11.706,32.758-.137,36.985.981Z" transform="translate(93.52 64.679) rotate(180)" fill="none"/>
    </clipPath>
    <clipPath id="clip-path-2">
      <path id="Intersección_2" data-name="Intersección 2" d="M0,5.239,43.228,85.146l-1.311,73.792c9.171,19.649,34.059,12.226,41.481,2.62s3.057-27.508,3.057-27.508S73.792,79.032,71.608,72.919,7.86,0,7.86,0ZM58.65,170.272a19.213,19.213,0,0,1-15.859-11.527L44.1,85.163a.937.937,0,0,0-.1-.437L1.135,5.519,7.72,1.135C25.185,20.086,69.059,68.378,70.788,73.216,72.919,79.207,85.477,133.7,85.6,134.241c0,.192,4.175,17.623-2.9,26.774-3.7,4.765-12.6,9.4-21.419,9.4A23.9,23.9,0,0,1,58.65,170.272Z" transform="translate(87.731 171.29) rotate(180)" fill="none"/>
    </clipPath>
    <clipPath id="clip-path-3">
      <path id="Intersección_3" data-name="Intersección 3" d="M40.958,5.239S51.875,34.494,54.931,42.791,71.087,86.018,71.087,86.018s-30.215,14.147-39.735,23.665c-10.148,10.166-28.818,29.168-31,37.9-1.8,7.195,3.807,26.268,5.851,32.748.42,1.38.7,2.183.7,2.183L57.987,163.74,54.931,151.95S83.12,129.98,106.892,89.511c2.653-4.541-6.113-19.212-13.537-29.255S49.692,0,49.692,0ZM7.022,180.07c-1.746-5.8-7.6-25.22-5.833-32.276,2.235-8.943,22.984-29.692,30.775-37.482C41.273,101,71.156,86.944,71.453,86.8a.874.874,0,0,0,.454-1.1c-.14-.349-13.135-35.019-16.156-43.21C52.957,34.948,43.682,10.06,42.024,5.605l7.423-4.453c4.279,5.939,36.328,50.318,43.21,59.627,8.331,11.266,15.719,24.61,13.484,28.294C82.719,128.931,54.6,151.043,54.39,151.287a.856.856,0,0,0-.314.909l2.864,11.021-49.5,18.165C7.337,181.031,7.2,180.6,7.022,180.07Z" transform="translate(107.377 182.516) rotate(180)" fill="none"/>
    </clipPath>
    <clipPath id="clip-path-4">
      <path id="Intersección_4" data-name="Intersección 4" d="M1.494,17.92c-4.507,5.711,2.341,15.7,5.327,21.552S17.753,73.635,18.313,79.521s6.707,18.5,15.963,27.457a45.249,45.249,0,0,0,22.112,10.915c8.68.28,21.884-10.637,21.884-10.637a57.035,57.035,0,0,0,8.122-33.045c-1.152-19.632-11.23-25.2-15.719-33.6S60.6,9.222,60.038,6.707,58.082,0,53.593,0,3.763,15.056,1.494,17.92Zm54.982,99.1c-.874-.138-12.96-2.287-21.606-10.67-9.431-9.153-15.177-21.518-15.719-26.9-.558-5.937-8.471-34.337-11.561-40.362-.437-.839-.943-1.746-1.5-2.778C2.96,30.652-1.319,22.881,2.174,18.46,4.114,16.156,48.791.874,53.576.874c2.864,0,4.681,1.973,5.59,6.025.821,3.738,6.322,25.885,10.724,34.11A46.321,46.321,0,0,0,74.745,48c4.664,5.852,9.938,12.506,10.724,26.339a56.869,56.869,0,0,1-7.894,32.4c-1.17.895-12.86,10.293-20.738,10.293C56.715,117.026,56.6,117.024,56.476,117.019Z" transform="translate(86.503 117.899) rotate(180)" fill="none"/>
    </clipPath>
    <clipPath id="clip-path-5">
      <path id="Intersección_5" data-name="Intersección 5" d="M4.062,13.973,9.3,25.448,7.555,28.8S-1.685,34.041.272,42.773s9.238,9.8,11.492,13.169S17.632,66.858,21,67.976,35.709,62.51,35.709,62.51,42.7,54.388,42.7,52.973s.278-3.353.278-4.192,9.817-5.239,9.817-6.986-6.445-5.607-6.445-5.607V20.469c0-3.073-1.746-3.912-4.769-5.03s-10.356.28-10.356.28L22.82,0ZM21.51,67.312c-2.149-.715-5-5.362-6.987-8.732-.663-1.137-1.275-2.166-1.746-2.969a12.822,12.822,0,0,0-3.79-3.232c-2.969-1.973-6.34-4.21-7.562-9.641C-.322,34.774,8.2,29.744,8.289,29.692a.9.9,0,0,0,.349-.366l1.746-3.372a.874.874,0,0,0,0-.751L5.145,14.322,22.611,1.363l7.929,14.776a.856.856,0,0,0,.926.454c1.974-.385,7.562-1.171,9.9-.314,3.038,1.1,4.192,1.746,4.192,4.208V36.206a.875.875,0,0,0,.418.751c3.075,1.869,5.9,4.158,6.027,4.873A32.055,32.055,0,0,1,46.293,45.6c-3.318,1.9-4.1,2.392-4.1,3.215a8.981,8.981,0,0,1-.1,1.518,20.3,20.3,0,0,0-.174,2.672,56.17,56.17,0,0,1-6.69,8.856c-3.86,2.3-10.312,5.54-13.039,5.54A2.14,2.14,0,0,1,21.51,67.312Z" transform="translate(52.791 68.104) rotate(180)" fill="none"/>
    </clipPath>
    <clipPath id="clip-path-6">
      <path id="Intersección_6" data-name="Intersección 6" d="M0,3.318S17.814,67.086,19.875,70,72.883,87.381,75.364,88.638l11.6,5.782.567-.521a.884.884,0,0,0-.3-.247l-11.6-5.8c-.8-.4-5.327-1.746-13.973-4.419C47.821,79.207,22.076,71.347,20.418,69.461S8.051,29.465.907,3.912L11,1.031,35.454,46.442a.86.86,0,0,0,.594.437c.611.138,62.108,13.256,65.74,14.479,3.284,1.083,7.737,6.094,8.542,10.9a.833.833,0,0,0,.222.471l.721-.663c-.839-4.961-5.4-10.357-9.117-11.6s-65.846-14.5-65.846-14.5L11.6,0Z" transform="translate(111.274 94.42) rotate(180)" fill="none"/>
    </clipPath>
  </defs>
  <g id="background-simple--inject-14" transform="translate(61.551)">
    <path id="Trazado_34884" data-name="Trazado 34884" d="M305.741,57.889S419.128,33.21,517.931,108.312s136.983,203.947,170.6,307.571-5.572,199.6-92.708,234.477-133.909-38.983-247.611-56.868-146.485-5.5-232.94-82.089S31.146,280.419,120.22,177.354,305.741,57.889,305.741,57.889Z" transform="translate(-51.897 -54.008)" fill="#02c39a"/>
    <path id="Trazado_34885" data-name="Trazado 34885" d="M305.741,57.889S419.128,33.21,517.931,108.312s136.983,203.947,170.6,307.571-5.572,199.6-92.708,234.477-133.909-38.983-247.611-56.868-146.485-5.5-232.94-82.089S31.146,280.419,120.22,177.354,305.741,57.889,305.741,57.889Z" transform="translate(-51.897 -54.008)" fill="#fff" opacity="0.7"/>
  </g>
  <g id="Sunburst--inject-14" transform="translate(75.976 1.506)">
    <path id="Trazado_34886" data-name="Trazado 34886" d="M175.84,207.372c.576-.943,1.17-1.9,1.747-2.829L530.708,63.42a260.527,260.527,0,0,1,36,16.034Z" transform="translate(-148.995 -48.487)" fill="#fff"/>
    <path id="Trazado_34887" data-name="Trazado 34887" d="M111.5,175.963l.978-1.747L596.923,116.58c8.087,10.148,15.6,20.714,22.705,31.613Z" transform="translate(-89.546 -8.799)" fill="#fff"/>
    <path id="Trazado_34888" data-name="Trazado 34888" d="M108.969,158.94l521.35,410.548c-2.009.908-4.035,1.747-6.1,2.585a119.813,119.813,0,0,1-46.267,9.239L108.34,160.2Z" transform="translate(-94.717 22.825)" fill="#fff"/>
    <path id="Trazado_34889" data-name="Trazado 34889" d="M268.59,196.9c2.113-2.952,4.314-5.868,6.55-8.733L437.256,66.939A199.6,199.6,0,0,1,470,57.245s5.956-1.292,16.3-2.375Z" transform="translate(-230.585 -54.87)" fill="#fff"/>
    <path id="Trazado_34890" data-name="Trazado 34890" d="M70.97,154.48c.227-.437.472-.873.716-1.31l566.324,81.792c5.345,13.973,10.357,28.067,15.09,41.918Z" transform="translate(-52.229 18.518)" fill="#fff"/>
    <path id="Trazado_34891" data-name="Trazado 34891" d="M337.78,169.185c.367-.856.716-1.747,1.083-2.585l126.8,317.316a198.507,198.507,0,0,1-29.552-14.252Z" transform="translate(-330.794 28.544)" fill="#fff"/>
    <path id="Trazado_34892" data-name="Trazado 34892" d="M398.32,181.435c.734-2.183,1.5-4.349,2.305-6.515l26.827,225.447A181.821,181.821,0,0,1,408.8,372.073Z" transform="translate(-398.32 34.755)" fill="#fff"/>
    <path id="Trazado_34893" data-name="Trazado 34893" d="M52,157.288l.629-1.188L669.883,420.88a191.284,191.284,0,0,1-7.336,45.935Z" transform="translate(-35.879 20.705)" fill="#fff"/>
    <path id="Trazado_34894" data-name="Trazado 34894" d="M258.93,163.777c.245-.541.507-1.083.751-1.607L520.723,511.326c-13.973-2.1-26.688-3.738-38.424-5.24Z" transform="translate(-248.136 25.237)" fill="#fff"/>
  </g>
  <g id="Charts--inject-14" transform="translate(0 251.475)">
    <rect id="Rectángulo_3920" data-name="Rectángulo 3920" width="62.876" height="188.21" transform="translate(615.665 237.97)" fill="#ffe200"/>
    <path id="Trazado_34895" data-name="Trazado 34895" d="M70,410.49A294.393,294.393,0,0,1,132.876,435.4v30.128H70Z" transform="translate(545.665 -39.344)" opacity="0.2"/>
    <rect id="Rectángulo_3922" data-name="Rectángulo 3922" width="62.876" height="204.488" transform="translate(521.35 221.692)" fill="#02c39a"/>
    <path id="Trazado_34896" data-name="Trazado 34896" d="M127.056,403.74a359.22,359.22,0,0,1,59.82,4.925v61.9H124V403.74Z" transform="translate(397.35 -44.384)" opacity="0.2"/>
    <rect id="Rectángulo_3923" data-name="Rectángulo 3923" width="62.876" height="252.082" transform="translate(427.036 174.098)" fill="#ffe200"/>
    <path id="Trazado_34897" data-name="Trazado 34897" d="M178,409.1c19.125-1.956,39.7-3.877,62.876-4.908v66.038H178Z" transform="translate(249.036 -44.048)" opacity="0.2"/>
    <rect id="Rectángulo_3925" data-name="Rectángulo 3925" width="62.876" height="227.036" transform="translate(332.721 199.144)" fill="#02c39a"/>
    <path id="Trazado_34898" data-name="Trazado 34898" d="M232,411.485a465.055,465.055,0,0,0,62.876-2.655v57.934H232Z" transform="translate(100.721 -40.584)" opacity="0.2"/>
    <rect id="Rectángulo_3926" data-name="Rectángulo 3926" width="62.876" height="359.81" transform="translate(238.406 66.37)" fill="#ffe200"/>
    <path id="Trazado_34899" data-name="Trazado 34899" d="M286,399.42a327.132,327.132,0,0,0,62.876,16.173v58.2H286Z" transform="translate(-47.594 -47.609)" opacity="0.2"/>
    <rect id="Rectángulo_3928" data-name="Rectángulo 3928" width="62.876" height="426.18" transform="translate(42.791)" fill="#ffe200"/>
    <path id="Trazado_34900" data-name="Trazado 34900" d="M398,360.79a328.358,328.358,0,0,0,62.876,16.173V502.629H398Z" transform="translate(-355.209 -76.449)" opacity="0.2"/>
    <rect id="Rectángulo_3930" data-name="Rectángulo 3930" width="62.876" height="410.548" transform="translate(144.092 15.632)" fill="#02c39a"/>
    <path id="Trazado_34901" data-name="Trazado 34901" d="M402.876,403.525V489.84H340V377.92C360.1,386.408,381.324,395.106,402.876,403.525Z" transform="translate(-195.908 -63.66)" opacity="0.2"/>
    <path id="Trazado_34902" data-name="Trazado 34902" d="M47.373,443.247H765.212a.873.873,0,1,0,0-1.747H47.373a.873.873,0,1,0,0,1.747Z" transform="translate(-46.5 -16.193)" fill="#263238"/>
  </g>
  <g id="Character--inject-14" transform="translate(424.824 97.398)">
    <path id="Trazado_34903" data-name="Trazado 34903" d="M228.36,170.76l-26.915,40.171-52.991-4.978v10.759s50.109,16.994,56.327,18.636,36.853-19.457,36.853-19.457S245.337,185.658,228.36,170.76Z" transform="translate(-125.284 -64.242)" fill="#02c39a"/>
    <path id="Trazado_34904" data-name="Trazado 34904" d="M205.912,236.686c7.807,0,33.6-17.605,36.678-19.7a.891.891,0,0,0,.384-.611c.14-1.258,3.493-30.862-13.553-45.9a.856.856,0,0,0-1.292.175l-26.635,39.734-52.607-4.925a.908.908,0,0,0-.681.227.891.891,0,0,0-.279.646V217.09a.891.891,0,0,0,.594.838c2.043.7,50.214,17.012,56.379,18.653A3.9,3.9,0,0,0,205.912,236.686Zm35.316-20.959c-12.226,8.383-31.578,20.225-35.8,19.107-5.746-1.537-50-16.505-55.681-18.409v-9.187l52.048,4.873a.856.856,0,0,0,.821-.384l26.356-39.315c14.6,13.78,12.593,39.892,12.261,43.367Z" transform="translate(-125.716 -64.62)" fill="#263238"/>
    <g id="Grupo_16287" data-name="Grupo 16287" transform="translate(23.172 106.517)" clip-path="url(#clip-path)">
      <path id="Trazado_34905" data-name="Trazado 34905" d="M169.247,208.644c-2.288-3.65,26.88,10.479,28.242,10.025s-2.271-6.392,0-9.117,5.921,6.375,8.209,0a84.188,84.188,0,0,1,7.283-14.13l11.964-19.212c8.244,15.492,5.781,35.543,5.781,35.543s-30.652,21.116-36.853,19.457c-4.349-1.153-30.2-9.816-45.411-14.916,11.37,1.188,30.46,3.074,32.993,2.76C185.193,218.669,171.517,212.277,169.247,208.644Z" transform="translate(-137.565 -166.691)" fill="#02c39a"/>
      <path id="Trazado_34906" data-name="Trazado 34906" d="M169.247,208.644c-2.288-3.65,26.88,10.479,28.242,10.025s-2.271-6.392,0-9.117,5.921,6.375,8.209,0a84.188,84.188,0,0,1,7.283-14.13l11.964-19.212c8.244,15.492,5.781,35.543,5.781,35.543s-30.652,21.116-36.853,19.457c-4.349-1.153-30.2-9.816-45.411-14.916,11.37,1.188,30.46,3.074,32.993,2.76C185.193,218.669,171.517,212.277,169.247,208.644Z" transform="translate(-137.565 -166.691)" fill="#fff" opacity="0.5"/>
    </g>
    <line id="Línea_384" data-name="Línea 384" x1="1.24" y2="10.776" transform="translate(29.371 142.532)" fill="#fff"/>
    <path id="Trazado_34909" data-name="Trazado 34909" d="M198.115,203.4a.856.856,0,0,0,.856-.769l1.258-10.776a.879.879,0,0,0-1.747-.192l-1.24,10.759a.891.891,0,0,0,.769.978Z" transform="translate(-168.744 -49.22)" fill="#263238"/>
    <path id="Trazado_34910" data-name="Trazado 34910" d="M221.624,193.919l-4.559-6.218-14.9-.821s-.838,12.418,1.24,14.5,18.217,3.3,18.217,3.3Z" transform="translate(-198.453 -52.208)" fill="#fff"/>
    <path id="Trazado_34911" data-name="Trazado 34911" d="M222.011,205.925a.821.821,0,0,0,.594-.227.891.891,0,0,0,.279-.646V194.293a.821.821,0,0,0-.175-.524l-4.541-6.2a.908.908,0,0,0-.664-.367l-14.916-.821a.856.856,0,0,0-.908.821c-.14,2.131-.751,12.925,1.5,15.16s16.016,3.353,18.758,3.493Zm-.873-11.353v9.536c-6.532-.541-15.51-1.747-16.732-2.987s-1.31-7.982-1.03-12.942l13.623.751Z" transform="translate(-198.84 -52.582)" fill="#263238"/>
    <path id="Trazado_34912" data-name="Trazado 34912" d="M218.256,186.9s2.078,16.138,0,16.138-9.117.419-9.117-3.3-1.24-14.077,1.258-14.5S218.256,186.9,218.256,186.9Z" transform="translate(-207.94 -53.471)" fill="#fff"/>
    <path id="Trazado_34913" data-name="Trazado 34913" d="M217.04,204.32h1.607a1.31,1.31,0,0,0,.978-.472c1.607-1.747.454-12.226-.1-16.68a.908.908,0,0,0-.559-.7c-.576-.227-5.676-2.148-8.331-1.747s-2.445,5.24-2.1,12.226c0,1.258.122,2.375.122,3.179a3.214,3.214,0,0,0,1,2.375C211.311,204.145,214.7,204.32,217.04,204.32Zm1.275-1.624Zm0-.122h-.332c-1.747,0-5.764,0-7.178-1.31a1.537,1.537,0,0,1-.472-1.135c0-.821,0-1.974-.122-3.266-.349-6.742-.14-10.235.646-10.375a19.457,19.457,0,0,1,6.986,1.432c.769,6.218,1.17,13.256.542,14.654ZM218.576,202.573Z" transform="translate(-208.33 -53.859)" fill="#263238"/>
    <path id="Trazado_34914" data-name="Trazado 34914" d="M215.28,192.275s-3.3-6.62-5.8-6.986-5.379.419-5.379,1.659-2.48,9.519,0,10.357,3.72-2.078,3.72-2.078l.838-1.659a4.838,4.838,0,0,0,3.72,3.738" transform="translate(-193.856 -53.463)" fill="#fff"/>
    <path id="Trazado_34915" data-name="Trazado 34915" d="M205.338,198.7a4.3,4.3,0,0,0,3.615-2.655,5.729,5.729,0,0,0,3.493,2.48.9.9,0,0,0,.419-1.747,3.982,3.982,0,0,1-3.074-3,.873.873,0,0,0-1.642-.262l-.821,1.659c-.122.262-1.013,2.166-2.672,1.624-.541-.175-.926-1.624.262-7.493a12.033,12.033,0,0,0,.332-2.026,5.5,5.5,0,0,1,4.366-.8c1.415.245,3.86,3.982,5.24,6.567a.873.873,0,0,0,1.17.4.891.891,0,0,0,.384-1.17c-.594-1.188-3.65-6.986-6.427-7.51a7.632,7.632,0,0,0-5.659,1.048,1.921,1.921,0,0,0-.751,1.467c0,.192-.157.978-.3,1.747-.908,4.541-1.537,8.733.891,9.5A3.615,3.615,0,0,0,205.338,198.7Z" transform="translate(-194.149 -53.903)" fill="#263238"/>
    <path id="Trazado_34916" data-name="Trazado 34916" d="M135.253,229.65l-1.31,73.792,43.228,79.905-7.86,5.24s-61.566-66.806-63.75-72.919-14.846-61.13-14.846-61.13-4.366-17.9,3.056-27.508S126.084,210,135.253,229.65Z" transform="translate(42.594 -29.499)" fill="#263238"/>
    <path id="Trazado_34917" data-name="Trazado 34917" d="M169.632,389.833a1,1,0,0,0,.489-.14l7.86-5.24a.908.908,0,0,0,.279-1.153l-43.123-79.7,1.31-73.565a.943.943,0,0,0,0-.384,20.959,20.959,0,0,0-17.343-12.7c-10.357-1.153-21.168,4.139-25.622,9.9-7.6,9.833-3.406,27.508-3.214,28.259.506,2.236,12.7,55.122,14.863,61.217s61.409,70.474,63.924,73.216A.873.873,0,0,0,169.632,389.833Zm6.724-6.392-6.585,4.384c-17.466-18.95-61.339-67.243-63.069-72.081-2.131-5.991-14.689-60.484-14.811-61.025,0-.192-4.174-17.623,2.9-26.775,4.069-5.24,14.427-10.322,24.05-9.257A19.212,19.212,0,0,1,134.7,230.215l-1.31,73.583a.944.944,0,0,0,.1.437Z" transform="translate(42.273 -29.871)" fill="#263238"/>
    <g id="Grupo_16288" data-name="Grupo 16288" transform="translate(132.033 187.798)" clip-path="url(#clip-path-2)">
      <path id="Trazado_34918" data-name="Trazado 34918" d="M117.6,303.3c2.62,1.974,35.368,47.245,50.982,68.954-17.658-19.369-51.646-56.973-53.27-61.479-2.183-6.113-14.846-61.13-14.846-61.13s-.245-1.03-.524-2.725c3.144-12.907,18.094-26.548,21.116-22.251l4.314,32.4s0,26.356-.856,28.958-9.082-3.022-6.986,0,15.981,15.544,12.523,15.544S114.14,300.711,117.6,303.3Z" transform="translate(-99.188 -212.399)" fill="#fff" opacity="0.2"/>
    </g>
    <path id="Trazado_34921" data-name="Trazado 34921" d="M88.089,317.61s-.437,13.1-1.31,15.282S82.413,345.118,81.1,347.3s.437,3.493,2.62,3.493,7.423,0,9.606-2.183,5.676-9.606,8.733-13.1,11.353-7.86,8.733-12.226S95.948,312.37,95.948,312.37Z" transform="translate(123.816 41.479)" fill="#fff"/>
    <path id="Trazado_34922" data-name="Trazado 34922" d="M84.086,352.065c2.34,0,7.79,0,10.235-2.445a36.928,36.928,0,0,0,4.052-6.061,53.933,53.933,0,0,1,4.716-7.109,29.3,29.3,0,0,1,3.3-2.987c3.493-2.882,7.807-6.462,5.519-10.27-2.707-4.524-14.671-10.968-15.178-11.23a.856.856,0,0,0-.891,0l-7.86,5.24a.891.891,0,0,0-.4.7c-.175,5.24-.646,13.5-1.24,14.986-.245.611-.681,1.747-1.223,3.266a118.012,118.012,0,0,1-4.4,11.021,3,3,0,0,0-.245,3.126A4,4,0,0,0,84.086,352.065ZM96.312,313.78c2.218,1.24,11.859,6.707,13.973,10.357,1.415,2.323-1.24,4.786-5.135,8.017a30.778,30.778,0,0,0-3.493,3.179,52.406,52.406,0,0,0-4.908,7.371,38.931,38.931,0,0,1-3.79,5.694c-1.921,1.921-6.986,1.921-8.995,1.921a2.5,2.5,0,0,1-2.1-.8,1.485,1.485,0,0,1,.227-1.362,113.525,113.525,0,0,0,4.541-11.318c.524-1.45.961-2.62,1.205-3.214.838-2.113,1.258-12.558,1.345-15.143Z" transform="translate(123.453 41.082)" fill="#263238"/>
    <path id="Trazado_34923" data-name="Trazado 34923" d="M100.682,328.156A123.715,123.715,0,0,0,108.7,317.24a11.876,11.876,0,0,1,2.1,2.41c2.62,4.366-5.676,8.733-8.733,12.226s-6.55,10.916-8.733,13.1-7.423,2.183-9.606,2.183-3.93-1.31-2.62-3.493C93.486,343.211,95.529,334.286,100.682,328.156Z" transform="translate(123.816 45.115)" fill="#263238"/>
    <path id="Trazado_34924" data-name="Trazado 34924" d="M212.215,206.12s.279.8.7,2.183c2.043,6.48,7.65,25.552,5.851,32.748-2.183,8.733-20.854,27.736-31,37.9-9.519,9.519-39.734,23.666-39.734,23.666s13.1,34.931,16.156,43.228S178.157,383.4,178.157,383.4l-8.733,5.24s-36.241-50.214-43.664-60.257-16.191-24.714-13.536-29.255c23.771-40.468,51.96-62.44,51.96-62.44L161.128,224.9Z" transform="translate(-38.298 -37.844)" fill="#263238"/>
    <path id="Trazado_34925" data-name="Trazado 34925" d="M169.8,389.861a.839.839,0,0,0,.454-.122l8.733-5.24a.856.856,0,0,0,.367-1.048S168.439,354.2,165.383,345.9c-2.777-7.528-13.973-37.342-15.876-42.477,4.786-2.271,30.443-14.706,39.245-23.509,13.449-13.449,29.15-29.954,31.246-38.3,1.747-7.283-3.493-25.657-5.868-33.185l-.7-2.2a.926.926,0,0,0-.454-.507.839.839,0,0,0-.681,0L161.208,224.5a.873.873,0,0,0-.541,1.048l2.917,11.23A244.064,244.064,0,0,0,111.85,299.11c-3.685,6.27,10.671,26.2,13.588,30.216,7.336,9.92,43.3,59.75,43.664,60.239a.838.838,0,0,0,.7.3Zm7.667-6.48-7.423,4.454c-4.279-5.938-36.329-50.319-43.21-59.628-8.331-11.265-15.719-24.609-13.484-28.294,23.422-39.857,51.541-61.968,51.751-62.213a.856.856,0,0,0,.314-.908l-2.864-11.021,49.5-18.164q.157.524.419,1.31c1.747,5.8,7.6,25.22,5.834,32.277-2.236,8.942-22.985,29.692-30.775,37.481-9.309,9.309-39.193,23.369-39.49,23.509a.873.873,0,0,0-.454,1.1c.14.349,13.134,35.019,16.156,43.21C166.535,354.039,175.81,378.928,177.469,383.382Z" transform="translate(-38.675 -38.196)" fill="#263238"/>
    <g id="Grupo_16289" data-name="Grupo 16289" transform="translate(73.441 168.276)" clip-path="url(#clip-path-3)">
      <path id="Trazado_34926" data-name="Trazado 34926" d="M181.447,227.549l-.507-2.009L190.878,221s8.645-3.022,12.1-2.6,5.24,10.375-.437,16-47.524,24.627-44.939,25.046,31.106-1.747,26.356.873-38.023,5.607-36.294,8.209,5.24,3.895.437,6.043-16.138,13.972-19.055,18.042a4.629,4.629,0,0,1,.437-2.62C153.257,249.521,181.447,227.549,181.447,227.549Z" transform="translate(-129.001 -196.984)" fill="#fff" opacity="0.2"/>
    </g>
    <path id="Trazado_34929" data-name="Trazado 34929" d="M126.575,225.688a.8.8,0,0,0,.4-.1c5.886-3.144,13.973-6.986,15.544-7.772a70.779,70.779,0,0,1,7.947,2.1.874.874,0,1,0,.646-1.624,79.751,79.751,0,0,0-8.506-2.253.873.873,0,0,0-.559,0c-.1,0-9.344,4.454-15.894,7.947a.873.873,0,0,0,.419,1.642Z" transform="translate(4.778 -30.48)" fill="#fff"/>
    <path id="Trazado_34930" data-name="Trazado 34930" d="M138.783,218.285a.883.883,0,0,0,.262-1.747,50,50,0,0,0-16.592-1.747.873.873,0,0,0,0,1.747,48.9,48.9,0,0,1,15.981,1.747.716.716,0,0,0,.349,0Z" transform="translate(23.834 -31.443)" fill="#fff"/>
    <path id="Trazado_34931" data-name="Trazado 34931" d="M146,312.86,139.885,326.4s-12.226,6.113-12.226,7.86,2.62,2.183,2.62,2.183h17.466c2.183,0,7.86-5.676,13.1-8.733s7.423-4.366,6.986-8.3-13.1-11.789-13.1-11.789Z" transform="translate(-14.872 37.933)" fill="#fff"/>
    <path id="Trazado_34932" data-name="Trazado 34932" d="M148.114,337.681c1.467,0,3.493-1.5,6.9-4.139a63.67,63.67,0,0,1,6.637-4.716c5.24-3.074,7.929-4.611,7.423-9.152-.472-4.227-12.226-11.6-13.5-12.418a.856.856,0,0,0-.908,0l-8.733,5.24a.82.82,0,0,0-.349.384l-5.991,13.257c-8.244,4.139-12.436,6.986-12.436,8.506,0,1.956,2.113,2.829,3.353,3.039ZM155.1,309.02c4.768,3,11.964,8.384,12.226,10.864.349,3.249-1.188,4.3-6.567,7.44a69.134,69.134,0,0,0-6.847,4.838c-2.288,1.747-4.873,3.773-5.816,3.773H130.631s-1.747-.384-1.747-1.31c.437-.926,6.445-4.436,11.754-7.074a.925.925,0,0,0,.4-.419l6.008-13.239Z" transform="translate(-15.241 37.564)" fill="#263238"/>
    <path id="Trazado_34933" data-name="Trazado 34933" d="M155.377,319.432a30.756,30.756,0,0,1,11.265-6.392,5.065,5.065,0,0,1,1.188,2.323c.437,3.93-1.747,5.24-6.986,8.3s-10.916,8.733-13.1,8.733H130.279s-2.62-.437-2.62-2.183v-.157a116.223,116.223,0,0,0,15.265-1.851C153.316,326.122,149.7,324.585,155.377,319.432Z" transform="translate(-14.872 41.979)" fill="#263238"/>
    <path id="Trazado_34934" data-name="Trazado 34934" d="M145.08,150.3a45.236,45.236,0,0,1,22.112,10.916c9.257,8.96,15.4,21.57,15.964,27.456s8.506,34.2,11.492,40.049,9.833,15.841,5.327,21.553c-2.271,2.864-47.611,17.92-52.1,17.92s-5.886-4.192-6.445-6.707-6.148-25.5-10.637-33.9-14.566-13.973-15.719-33.6a57.043,57.043,0,0,1,8.122-33.045S136.4,150.023,145.08,150.3Z" transform="translate(-26.285 -79.519)" fill="#02c39a"/>
    <path id="Trazado_34935" data-name="Trazado 34935" d="M148.225,269.42c4.4,0,50.179-14.951,52.781-18.252,4.209-5.344-.4-13.676-3.755-19.771-.559-1-1.065-1.9-1.485-2.725-2.934-5.746-10.846-34.076-11.388-39.734-.611-6.532-7.283-19.335-16.226-27.945a45.76,45.76,0,0,0-22.6-11.161h-.1c-8.925-.314-21.884,10.392-22.426,10.846a.75.75,0,0,0-.157.175,57.375,57.375,0,0,0-8.279,33.586c.821,14.392,6.532,21.553,11.108,27.316a46.279,46.279,0,0,1,4.681,6.654c4.3,8.069,9.728,29.971,10.479,33.656C142.024,266.94,144.487,269.42,148.225,269.42Zm-2.882-117.893c.873.14,12.96,2.288,21.605,10.672,9.431,9.152,15.178,21.518,15.719,26.9.559,5.938,8.471,34.338,11.562,40.363.437.838.943,1.747,1.5,2.777,3.126,5.659,7.405,13.431,3.912,17.85-1.939,2.305-46.616,17.588-51.4,17.588-2.864,0-4.681-1.974-5.589-6.026-.821-3.738-6.323-25.884-10.724-34.11a46.443,46.443,0,0,0-4.855-6.986c-4.663-5.851-9.938-12.505-10.724-26.338a56.868,56.868,0,0,1,7.895-32.4c1.188-.908,13.221-10.584,21.1-10.287Z" transform="translate(-26.635 -79.871)" fill="#263238"/>
    <g id="Grupo_16290" data-name="Grupo 16290" transform="translate(88.68 70.778)" clip-path="url(#clip-path-4)">
      <path id="Trazado_34936" data-name="Trazado 34936" d="M145.368,211.617c-12.75-5.467-20.5-5.467-28.7-7.3s15.492-1.362,20.5-3.633-15.038-5.013-20.051-6.392,11.388.926,20.959.926,20.959-20.5,10.934-29.692S122.593,155.5,122.593,155.5l.384-3.109a19.929,19.929,0,0,1,8.436-2.131,45.236,45.236,0,0,1,22.112,10.916c9.257,8.96,15.4,21.57,15.964,27.456s8.506,34.2,11.492,40.049,9.833,15.841,5.327,21.553c-2.271,2.864-47.611,17.92-52.1,17.92a5.781,5.781,0,0,1-2.061-.384c7.6-3.493,21.64-8.873,26.443-11.126,6.829-3.2-17.308-8.191-22.321-14.584s17.763,3.2,24.138,3.65,9.117-2.725,2.288-4.559-25.063-15.038-33.185-20.051,31.438,10.025,37.813,9.117S158.048,217.084,145.368,211.617Z" transform="translate(-101.297 -150.325)" fill="#02c39a"/>
      <path id="Trazado_34937" data-name="Trazado 34937" d="M145.368,211.617c-12.75-5.467-20.5-5.467-28.7-7.3s15.492-1.362,20.5-3.633-15.038-5.013-20.051-6.392,11.388.926,20.959.926,20.959-20.5,10.934-29.692S122.593,155.5,122.593,155.5l.384-3.109a19.929,19.929,0,0,1,8.436-2.131,45.236,45.236,0,0,1,22.112,10.916c9.257,8.96,15.4,21.57,15.964,27.456s8.506,34.2,11.492,40.049,9.833,15.841,5.327,21.553c-2.271,2.864-47.611,17.92-52.1,17.92a5.781,5.781,0,0,1-2.061-.384c7.6-3.493,21.64-8.873,26.443-11.126,6.829-3.2-17.308-8.191-22.321-14.584s17.763,3.2,24.138,3.65,9.117-2.725,2.288-4.559-25.063-15.038-33.185-20.051,31.438,10.025,37.813,9.117S158.048,217.084,145.368,211.617Z" transform="translate(-101.297 -150.325)" fill="#fff" opacity="0.5"/>
    </g>
    <path id="Trazado_34940" data-name="Trazado 34940" d="M154.334,180.235a64.621,64.621,0,0,0,14.9-1.659.873.873,0,0,0,.611-1.065.856.856,0,0,0-1.048-.629,65.059,65.059,0,0,1-26.53.367.873.873,0,0,0-1.03.681.856.856,0,0,0,.664,1.03,59.2,59.2,0,0,0,12.435,1.275Z" transform="translate(-40.534 -59.693)" fill="#263238"/>
    <path id="Trazado_34941" data-name="Trazado 34941" d="M138.344,187.492h0a70.736,70.736,0,0,0,25.779-8.349.873.873,0,1,0-.873-1.5c-.122,0-12.331,6.986-25.063,8.1a.874.874,0,0,0,.087,1.747Z" transform="translate(-28.561 -59.23)" fill="#263238"/>
    <path id="Trazado_34942" data-name="Trazado 34942" d="M156.658,196.4a.908.908,0,0,0,.751-.419.873.873,0,0,0-.3-1.205,74.206,74.206,0,0,1-6.881-4.7.877.877,0,1,0-1.083,1.38,76.841,76.841,0,0,0,6.986,4.768A.873.873,0,0,0,156.658,196.4Z" transform="translate(-41.478 -49.956)" fill="#263238"/>
    <path id="Trazado_34943" data-name="Trazado 34943" d="M162.108,211.815a.883.883,0,0,0,.262-1.747A247.025,247.025,0,0,1,124.609,194.8a.879.879,0,1,0-.821,1.554,243.423,243.423,0,0,0,38.058,15.37A.7.7,0,0,0,162.108,211.815Z" transform="translate(-2.53 -46.368)" fill="#263238"/>
    <path id="Trazado_34944" data-name="Trazado 34944" d="M122.356,206.976a.856.856,0,0,0,.838-.629.873.873,0,0,0-.611-1.083s-.978-.262-2.69-.768a.909.909,0,0,0-.506,1.747l2.742.8Z" transform="translate(45.378 -39.084)" fill="#263238"/>
    <path id="Trazado_34945" data-name="Trazado 34945" d="M150.171,213.985a.887.887,0,0,0,.314-1.747,261.392,261.392,0,0,1-26.076-11.545.871.871,0,0,0-.821,1.537,270.083,270.083,0,0,0,26.2,11.65A.891.891,0,0,0,150.171,213.985Z" transform="translate(9.704 -41.971)" fill="#263238"/>
    <path id="Trazado_34946" data-name="Trazado 34946" d="M131.978,176.687s-5,13.78-8.733,15.02-20.662-4.384-22.531-12.505S125.167,157.911,132,154.75s28.783-4.384,41.306-6.253,23.788-8.733,31.281-10.637,28.172,1.258,28.172,1.258L218.364,148.5s-23.159,5.624-31.927,5.624-16.261-3.755-28.155,0-26.915,7.51-36.294,11.894S105.1,172.9,105.1,178.538s9.973,10.672,11.859,10.672,6.27-15.021,11.265-16.278C128.223,172.932,134.493,169.805,131.978,176.687Z" transform="translate(-32.517 -89.259)" fill="#ffe200"/>
    <path id="Trazado_34947" data-name="Trazado 34947" d="M122.189,193.1a5.518,5.518,0,0,0,1.642-.21c4.052-1.345,8.733-14.112,9.309-15.562.908-2.48.856-4.122-.157-5.03-1.432-1.275-4.035-.175-4.716.157-3.388.943-6.2,6.777-8.471,11.458a24.942,24.942,0,0,1-2.62,4.751c-1.747-.21-10.881-4.908-10.881-9.746,0-4.3,5.24-6.707,12.663-10.025,1.188-.541,2.445-1.1,3.72-1.747a197.984,197.984,0,0,1,25.36-8.576c3.72-1.1,7.405-2.183,10.829-3.266,7.825-2.463,13.728-1.607,19.422-.768a57.236,57.236,0,0,0,8.471.8c8.733,0,31.176-5.414,32.137-5.641l.262-.122,14.392-9.4a.873.873,0,0,0-.349-1.589c-.838-.122-20.959-3.126-28.5-1.24a76.134,76.134,0,0,0-10.217,3.825,86.908,86.908,0,0,1-20.959,6.794c-3.982.611-8.855,1.135-13.973,1.747-11.161,1.205-22.705,2.445-27.508,4.646-3.493,1.572-34.006,15.719-31.788,25.4.943,4.087,5.117,7.178,8.453,9.065A32.905,32.905,0,0,0,122.189,193.1ZM131.5,176.73c-1.869,5.24-5.764,13.676-8.209,14.5a14.322,14.322,0,0,1-6.375-.838h.384c1.24,0,2.1-1.659,4.07-5.746s4.786-9.9,7.405-10.479h.192c.873-.437,2.41-.856,2.864-.454.1,0,.559.664-.332,3.126Zm37.726-24.766a35.158,35.158,0,0,0-10.881,1.747c-3.493,1.065-7.074,2.148-10.794,3.249-9.274,2.707-18.863,5.519-25.6,8.733l-3.7,1.747c-7.65,3.493-13.693,6.183-13.693,11.615,0,4.663,5.868,8.838,9.8,10.6a35.351,35.351,0,0,1-4.855-2.253c-4.279-2.393-6.986-5.24-7.6-7.929-1.432-6.2,18.129-17.658,30.792-23.4,4.559-2.078,16.47-3.371,26.984-4.506,5.24-.559,10.078-1.083,14.077-1.747a88.743,88.743,0,0,0,21.413-6.986,74.314,74.314,0,0,1,9.973-3.738c5.781-1.45,19.946.21,25.517.961l-12.226,8.017c-1.974.489-23.369,5.572-31.578,5.572a57.234,57.234,0,0,1-8.226-.786,62.4,62.4,0,0,0-9.4-.838Z" transform="translate(-32.859 -89.652)" fill="#263238"/>
    <path id="Trazado_34948" data-name="Trazado 34948" d="M163.776,123.021s-6.986,8.122-6.986,9.536-.279,3.353-.279,4.192-9.816,5.24-9.816,6.986,6.445,5.606,6.445,5.606v15.719c0,3.074,1.747,3.912,4.768,5.03s10.357-.279,10.357-.279l8.4,15.719,18.758-13.973-5.24-11.475,1.747-3.353s9.239-5.24,7.283-13.973-9.239-9.8-11.492-13.169-5.868-10.916-9.239-12.034S163.776,123.021,163.776,123.021Z" transform="translate(-79.72 -104.059)" fill="#fff"/>
    <path id="Trazado_34949" data-name="Trazado 34949" d="M177.1,186.76a.821.821,0,0,0,.524-.175l18.758-13.973a.873.873,0,0,0,.279-1.065l-5.152-11.091,1.38-2.76c1.485-.943,9.362-6.427,7.475-14.811-1.4-6.113-5.24-8.733-8.3-10.706a11.7,11.7,0,0,1-3.318-2.76c-.524-.769-1.118-1.747-1.747-2.882-2.253-3.808-5.048-8.541-7.929-9.5-3.493-1.17-13.361,4.524-15.282,5.694a.507.507,0,0,0-.21.175c-2.707,3.126-7.213,8.593-7.213,10.1a25.018,25.018,0,0,1-.175,2.515,5.546,5.546,0,0,1-.1,1.4,34.538,34.538,0,0,1-3.231,1.991c-4.471,2.585-6.585,3.947-6.585,5.24,0,1.747,3.86,4.489,6.445,6.1v15.2c0,3.633,2.113,4.681,5.344,5.851,2.742,1,8.3.192,10.183-.122l8.1,15.125a.856.856,0,0,0,.576.437Zm17.675-15.143-17.466,12.96L169.381,169.8a.856.856,0,0,0-.926-.454c-1.974.384-7.563,1.17-9.9.314-3.039-1.1-4.192-1.747-4.192-4.209V149.733a.873.873,0,0,0-.419-.751c-3.074-1.869-5.9-4.157-6.026-4.873a32.136,32.136,0,0,1,5.711-3.773c3.318-1.9,4.1-2.393,4.1-3.214a8.9,8.9,0,0,1,.1-1.52,20.38,20.38,0,0,0,.175-2.672,56.012,56.012,0,0,1,6.689-8.855c4.227-2.515,11.562-6.165,13.711-5.449s5,5.362,6.986,8.733c.664,1.135,1.275,2.166,1.747,2.969a12.819,12.819,0,0,0,3.79,3.231c2.969,1.974,6.34,4.209,7.563,9.641,1.747,7.964-6.777,12.994-6.864,13.047a.891.891,0,0,0-.349.367l-1.747,3.371a.873.873,0,0,0,0,.751Zm-38.7-34.46ZM156.177,136.774Z" transform="translate(-80.155 -104.468)" fill="#263238"/>
    <g id="Grupo_16291" data-name="Grupo 16291" transform="translate(66.974 13.368)" clip-path="url(#clip-path-5)">
      <path id="Trazado_34950" data-name="Trazado 34950" d="M156.765,162.269c9.571-3.179,8.733-9.1,9.117-17.763s7.737-21.867,7.737-21.867l4.017-.279c.768,1.31,1.485,2.515,2.078,3.493,2.253,3.371,9.536,4.489,11.492,13.169s-7.283,13.973-7.283,13.973l-1.747,3.353,5.24,11.475L168.659,181.8l-8.4-15.719s-7.283,1.4-10.357.279a13.117,13.117,0,0,1-3.126-1.467A74.9,74.9,0,0,0,156.765,162.269Z" transform="translate(-138.827 -113.744)" fill="#02c39a"/>
      <path id="Trazado_34951" data-name="Trazado 34951" d="M156.765,162.269c9.571-3.179,8.733-9.1,9.117-17.763s7.737-21.867,7.737-21.867l4.017-.279c.768,1.31,1.485,2.515,2.078,3.493,2.253,3.371,9.536,4.489,11.492,13.169s-7.283,13.973-7.283,13.973l-1.747,3.353,5.24,11.475L168.659,181.8l-8.4-15.719s-7.283,1.4-10.357.279a13.117,13.117,0,0,1-3.126-1.467A74.9,74.9,0,0,0,156.765,162.269Z" transform="translate(-138.827 -113.744)" fill="#fff" opacity="0.5"/>
      <path id="Trazado_34952" data-name="Trazado 34952" d="M173.425,130.045a.891.891,0,0,0,.786-1.258,8.733,8.733,0,0,0-2.795-2.847c-2.393-1.747-6.113.419-6.27.507a.891.891,0,0,0-.314,1.205.856.856,0,0,0,1.188.314c.8-.472,3.144-1.485,4.366-.611a7.458,7.458,0,0,1,2.253,2.218A.891.891,0,0,0,173.425,130.045Z" transform="translate(-152.973 -111.578)" fill="#263238"/>
      <path id="Trazado_34953" data-name="Trazado 34953" d="M167.406,132.174h4.716a.864.864,0,0,0,.349-1.659L168,128.541a.876.876,0,1,0-.7,1.607l.646.279h-.576a.874.874,0,1,0,.035,1.747Z" transform="translate(-154.796 -109.184)" fill="#263238"/>
    </g>
    <path id="Trazado_34956" data-name="Trazado 34956" d="M160.984,149.1a2.532,2.532,0,0,1-2.236,1.956,3.493,3.493,0,0,1-3.93-3.074c0-1.747,2.236-5.327.559-6.445s-4.751-1.4-4.192-4.489,3.633-2.236,3.074-5.589-10.916-3.371-13.449-3.091-2.515-5.03.279-11.2,13.728-8.4,15.964-5.886a3.493,3.493,0,0,1,.279,4.768s12.331-2.236,13.728,0,0,3.353,0,3.353,9.8-1.956,16.523,10.375-1.956,25.43-6.724,28.923-12.034,6.724-17.64,4.768,2.812-8.733,3.371-12.051S160.984,149.1,160.984,149.1Z" transform="translate(-56.755 -109.403)" fill="#263238"/>
    <path id="Trazado_34957" data-name="Trazado 34957" d="M167.225,165.2c6.148,0,12.453-4.035,14.514-5.5,4.96-3.493,13.973-17.1,6.986-29.971-5.24-9.728-12.628-10.916-15.841-10.916a4.139,4.139,0,0,0-.7-2.864c-1.362-2.148-8.558-1.38-12.942-.681a4.471,4.471,0,0,0-1.153-4.192c-1.03-1.153-3.284-1.572-6.165-1.135-4.244.629-9.379,3.126-11.248,7.231-2.271,5-2.864,9.606-1.485,11.51a2.218,2.218,0,0,0,2.1.926c3.493-.384,12.1.1,12.488,2.358.21,1.31-.192,1.607-1,2.218a4.663,4.663,0,0,0-2.078,3.091c-.559,2.987,1.747,4,3.249,4.681a8.249,8.249,0,0,1,1.31.681c.559.367,0,2.078-.367,3.214a9.03,9.03,0,0,0-.576,2.5,3.842,3.842,0,0,0,1.432,2.847,4.384,4.384,0,0,0,3.493,1.1,3.493,3.493,0,0,0,2.777-2.044,5.868,5.868,0,0,1,3.895.489.821.821,0,0,1,.175.821,12.977,12.977,0,0,1-2.271,3.895c-1.747,2.428-3.493,4.943-2.882,6.986a3.493,3.493,0,0,0,2.375,2.131A11.911,11.911,0,0,0,167.225,165.2Zm5.816-44.677c2.847,0,9.274,1.083,14.147,10.043,6.5,11.894-1.869,24.452-6.445,27.7s-11.807,6.427-16.854,4.663c-1.083-.384-1.24-.856-1.275-1.013-.4-1.223,1.275-3.493,2.637-5.449a13.431,13.431,0,0,0,2.567-4.628,2.585,2.585,0,0,0-.681-2.358c-1.642-1.607-5.5-.961-5.938-.873a.856.856,0,0,0-.7.7,1.747,1.747,0,0,1-1.5,1.258,2.812,2.812,0,0,1-2.113-.681,2.218,2.218,0,0,1-.821-1.537,9.277,9.277,0,0,1,.489-1.956c.594-1.834,1.345-4.1-.314-5.24a11.069,11.069,0,0,0-1.572-.8c-1.747-.751-2.533-1.223-2.253-2.795a2.917,2.917,0,0,1,1.415-1.991,3.493,3.493,0,0,0,1.747-3.895c-.8-4.838-14.252-3.825-14.392-3.808a.489.489,0,0,1-.489-.21c-.716-1-.664-4.663,1.659-9.763,1.589-3.493,6.253-5.694,9.92-6.253,2.48-.367,4.1,0,4.594.594a2.637,2.637,0,0,1,.279,3.6.891.891,0,0,0-.1,1.013.873.873,0,0,0,.908.419c6.27-1.135,12.226-1.327,12.837-.4.978,1.572.192,2.218.192,2.218a.873.873,0,0,0,.716,1.537,8.291,8.291,0,0,1,1.345-.087Z" transform="translate(-57.127 -109.773)" fill="#263238"/>
    <path id="Trazado_34958" data-name="Trazado 34958" d="M151.956,137.305s1.747-6.148,6.148-6.707,6.986,4.471,4.489,9.239-7.842,8.122-9.519,7.563-2.533-3.65-2.533-3.65" transform="translate(-50.521 -94.258)" fill="#fff"/>
    <path id="Trazado_34959" data-name="Trazado 34959" d="M153.719,148.7c2.6,0,7.51-3.493,9.9-8.087a7.9,7.9,0,0,0,0-8.191,5.414,5.414,0,0,0-5.24-2.323c-5,.629-6.812,7.091-6.986,7.353a.9.9,0,1,0,1.747.472s1.589-5.606,5.432-6.1a3.633,3.633,0,0,1,3.633,1.589,6.253,6.253,0,0,1,0,6.375c-2.463,4.628-7.388,7.493-8.471,7.143s-1.747-2.183-1.956-3.039a.9.9,0,0,0-1.747.454c.1.367,1.03,3.493,3.091,4.244a1.956,1.956,0,0,0,.594.1Z" transform="translate(-50.782 -94.636)" fill="#263238"/>
    <path id="Trazado_34960" data-name="Trazado 34960" d="M171.612,145.81l-25.482,16.8,1.415,12.313,27.718-22.391Z" transform="translate(-54.511 -82.869)" fill="#02c39a"/>
    <path id="Trazado_34961" data-name="Trazado 34961" d="M147.909,176.2a.786.786,0,0,0,.541-.192l27.718-22.391a.891.891,0,0,0,.227-1.1l-3.65-6.724a.856.856,0,0,0-1.24-.314l-25.482,16.75a.891.891,0,0,0-.384.838l1.4,12.226a.891.891,0,0,0,.541.716,1.013,1.013,0,0,0,.332.192Zm26.6-23.491L148.59,173.663l-1.153-10.2,24.225-15.981Z" transform="translate(-54.875 -83.231)" fill="#263238"/>
    <path id="Trazado_34962" data-name="Trazado 34962" d="M117.522,156.06l11.6,5.781c2.48,1.258,53.428,15.719,55.488,18.636s19.876,66.684,19.876,66.684l-11.6,3.318-24.714-45.97s-62.125-13.256-65.846-14.5-8.279-6.637-9.117-11.6" transform="translate(8.696 -75.217)" fill="#02c39a"/>
    <path id="Trazado_34963" data-name="Trazado 34963" d="M193.148,251.731h.245l11.667-3.353a.856.856,0,0,0,.594-1.083c-1.747-6.532-17.9-63.994-20-66.946-1.345-1.869-15.247-6.392-42.145-14.584-6.986-2.131-12.942-3.965-13.676-4.314l-11.6-5.8a.856.856,0,0,0-1.17.384.873.873,0,0,0,.4,1.17l11.6,5.8c.8.4,5.327,1.747,13.973,4.419,13.833,4.227,39.577,12.086,41.236,13.973s12.366,40,19.509,65.549l-10.1,2.882-24.452-45.411a.856.856,0,0,0-.594-.437c-.611-.14-62.108-13.256-65.741-14.479-3.284-1.083-7.737-6.1-8.541-10.9a.838.838,0,0,0-1-.716.856.856,0,0,0-.716,1c.838,5.013,5.449,10.864,9.693,12.226,3.615,1.205,59.768,13.2,65.549,14.444l24.644,45.6A.873.873,0,0,0,193.148,251.731Z" transform="translate(8.487 -75.595)" fill="#263238"/>
    <g id="Grupo_16292" data-name="Grupo 16292" transform="translate(101.905 80.843)" clip-path="url(#clip-path-6)">
      <path id="Trazado_34964" data-name="Trazado 34964" d="M142,167.216c14.252,4.4,29.482,9.309,30.6,10.864,1.467,2.061,10.846,34.722,16.191,53.55-7.877-4.052-20.522-10.916-16.191-11.248,5.921-.472,6.829-3.65-.908-9.117s-22.705-16.4-18.688-17.308,18.217-2.742,9.571-7.3-56.5,0-65.147-4.1,10.934-5.921,22.321-7.283-10.479-1.362-10.479-1.362-7.755-.454-5.921-8.733,9.763-5.24,13.763-5.8c1.065.541,11.143,3.493,22.408,6.986Z" transform="translate(-81.153 -153.663)" fill="#02c39a"/>
      <path id="Trazado_34965" data-name="Trazado 34965" d="M142,167.216c14.252,4.4,29.482,9.309,30.6,10.864,1.467,2.061,10.846,34.722,16.191,53.55-7.877-4.052-20.522-10.916-16.191-11.248,5.921-.472,6.829-3.65-.908-9.117s-22.705-16.4-18.688-17.308,18.217-2.742,9.571-7.3-56.5,0-65.147-4.1,10.934-5.921,22.321-7.283-10.479-1.362-10.479-1.362-7.755-.454-5.921-8.733,9.763-5.24,13.763-5.8c1.065.541,11.143,3.493,22.408,6.986Z" transform="translate(-81.153 -153.663)" fill="#fff" opacity="0.5"/>
    </g>
    <path id="Trazado_34968" data-name="Trazado 34968" d="M92.481,211.553s-2.9,14.077-2.9,15.317,4.157,4.559,4.157,4.559l2.48,3.72s4.559,1.747,5.8,0a17.065,17.065,0,0,0,2.061-4.593s5.4.419,6.218-3.3-6.218-19.055-6.218-19.055Z" transform="translate(109.154 -36.291)" fill="#fff"/>
    <path id="Trazado_34969" data-name="Trazado 34969" d="M100.3,237.12a3.371,3.371,0,0,0,2.795-1.083,16.384,16.384,0,0,0,2.009-4.192c1.642,0,5.641-.454,6.427-4.017.856-3.895-5.537-18.007-6.27-19.614a.891.891,0,0,0-1.03-.472l-11.6,3.3a.926.926,0,0,0-.629.681c-.472,2.358-2.917,14.217-2.917,15.492s2.69,3.79,4.366,5.24l2.41,3.615a.926.926,0,0,0,.437.332,12.786,12.786,0,0,0,4,.716Zm4.157-6.986a.873.873,0,0,0-.838.629,16.155,16.155,0,0,1-1.921,4.279c-.524.7-2.882.349-4.541-.21l-2.323-3.493a.907.907,0,0,0-.175-.192,16.1,16.1,0,0,1-3.825-3.912c0-.8,1.747-9.169,2.777-14.6l10.375-2.952c2.655,5.9,6.375,15.4,5.834,17.815-.646,2.952-5.24,2.637-5.24,2.62Z" transform="translate(108.778 -36.655)" fill="#263238"/>
    <line id="Línea_385" data-name="Línea 385" x1="12.837" y2="3.72" transform="translate(198.334 163.665)" fill="#fff"/>
    <path id="Trazado_34970" data-name="Trazado 34970" d="M94.866,208.419h.245l12.837-3.685a.891.891,0,0,0,.594-1.083.856.856,0,0,0-1.083-.594l-12.837,3.72a.882.882,0,1,0,.245,1.747Z" transform="translate(103.468 -40.16)" fill="#263238"/>
  </g>
  <g id="Clouds--inject-14" transform="translate(6.694 89.222)">
    <path id="Trazado_34971" data-name="Trazado 34971" d="M166.824,249.326c9.886-5.4,14.392-.908,17.99-5.4s-9.886-16.191,17.1-27.945c0,0,1.747-25.186,38.669-26.094s26.984,25.2,36.888,31.438,12.593-3.6,22.478,2.707,5.4,18.88,13.5,20.679,18.88-8.087,28.783-1.747,9.886,11.7,14.392,11.7,13.484-3.6,18.88,0,11.7,8.087,11.7,8.087H159.628S156.921,254.722,166.824,249.326Z" transform="translate(128.69 -41.802)" fill="#fff"/>
    <path id="Trazado_34972" data-name="Trazado 34972" d="M281.276,140.544c5.9-3.231,8.593-.541,10.741-3.231s-5.921-9.659,10.2-16.627c0,0,1.065-15.038,23.072-15.579s16.121,15.038,22.024,18.793,7.51-2.148,13.414,1.607,3.231,11.283,8.052,12.348,11.283-4.821,17.186-1.065,5.9,6.986,8.593,6.986,8.052-2.148,11.265,0,6.986,4.838,6.986,4.838H276.98S275.373,143.757,281.276,140.544Z" transform="translate(-102.118 -105.092)" fill="#fff"/>
    <path id="Trazado_34973" data-name="Trazado 34973" d="M334.28,266.955c6.986-3.79,10.113-.629,12.645-3.79s-6.986-11.37,12-19.6c0,0,1.275-17.693,27.177-18.322s18.95,17.693,25.9,22.129,8.855-2.533,15.806,1.886,3.79,13.274,9.466,14.531,13.274-5.676,20.225-1.258,6.986,8.209,10.113,8.209,9.484-2.533,13.274,0,9.379,14.374,9.379,14.374H330.4S327.4,270.745,334.28,266.955Z" transform="translate(-272.09 -15.4)" fill="#fff"/>
    <g id="Grupo_16293" data-name="Grupo 16293" transform="translate(57.942 218.58)" opacity="0.11">
      <path id="Trazado_34974" data-name="Trazado 34974" d="M335.179,271.965c6.986-3.79,10.113-.629,12.628-3.79S340.82,256.8,359.823,248.6c0,0,1.258-17.693,27.177-18.339s18.95,17.693,25.9,22.129,8.838-2.533,15.719,1.886,3.79,13.274,9.484,14.531,13.274-5.676,20.225-1.258,6.986,8.209,10.113,8.209,9.466-2.515,13.256,0,8.226,5.694,8.226,5.694H330.044S328.228,275.755,335.179,271.965Z" transform="translate(-329.83 -230.24)"/>
    </g>
    <path id="Trazado_34975" data-name="Trazado 34975" d="M320.982,232.08c10.637-5.8,15.457-.961,19.335-5.8s-10.637-17.466,18.374-29.989c0,0,1.921-27.072,41.586-28.032s28.993,27.072,39.63,33.848,13.553-3.877,24.19,2.9,5.8,20.3,14.5,22.234,20.313-8.733,30.949-1.939,10.637,12.575,15.475,12.575,14.5-3.86,20.3,0,14.374,22.007,14.374,22.007H315.026S310.345,237.878,320.982,232.08Z" transform="translate(-314 -57.951)" fill="#fff"/>
    <g id="Grupo_16294" data-name="Grupo 16294" transform="translate(0.543 123.682)" opacity="0.11">
      <path id="Trazado_34976" data-name="Trazado 34976" d="M322.168,239.75c10.637-5.8,15.475-.978,19.352-5.8s-10.637-17.466,18.374-29.989c0,0,1.921-27.072,41.568-28.032S430.473,203,441.109,209.761s13.536-3.86,24.19,2.917,5.8,20.3,14.5,22.234,20.313-8.733,30.949-1.939,10.637,12.575,15.475,12.575,14.5-3.86,20.3,0,12.575,8.733,12.575,8.733H314.431S311.532,245.548,322.168,239.75Z" transform="translate(-314.07 -175.906)"/>
    </g>
    <path id="Trazado_34977" data-name="Trazado 34977" d="M237.56,314.889c8.873-4.838,12.907-.8,16.121-4.838S244.826,295.537,269,285.058c0,0,1.624-22.566,34.669-23.369s24.172,22.566,33.045,28.207,11.3-3.214,20.155,2.428,4.838,16.924,12.1,18.531,16.924-7.248,25.8-1.607,8.855,10.479,12.89,10.479,12.1-3.214,16.942,0,11.964,18.339,11.964,18.339H232.617S228.687,319.727,237.56,314.889Z" transform="translate(-47.224 11.803)" fill="#fff"/>
    <g id="Grupo_16295" data-name="Grupo 16295" transform="translate(184.972 284.632)" opacity="0.11">
      <path id="Trazado_34978" data-name="Trazado 34978" d="M238.571,321.3c8.873-4.838,12.907-.821,16.121-4.838s-8.873-14.514,15.317-24.993c0,0,1.607-22.583,34.669-23.387s24.19,22.583,33.045,28.225,11.3-3.231,20.155,2.41,4.838,16.924,12.1,18.549,16.924-7.266,25.8-1.624,8.855,10.479,12.89,10.479,12.1-3.231,16.924,0,10.479,7.248,10.479,7.248H232.126S229.646,326.135,238.571,321.3Z" transform="translate(-231.81 -268.058)"/>
    </g>
  </g>
</svg>
