<svg xmlns="http://www.w3.org/2000/svg" viewBox="0 0 272.23 257.17"><defs><style>.cls-1{isolation:isolate;}.cls-2{fill:#f5f5f5;}.cls-3{fill:#27debf;}.cls-19,.cls-4{opacity:0.1;}.cls-12,.cls-5{fill:#fff;}.cls-6{fill:#e0e0e0;}.cls-7{fill:#ebebeb;}.cls-8{fill:#ffa8a7;}.cls-9{fill:#263238;}.cls-10{fill:#37474f;}.cls-11{fill:#f28f8f;}.cls-12,.cls-20{opacity:0.4;}.cls-13{fill:#fafafa;}.cls-14{fill:#455a64;}.cls-15{fill:#ffe038;}.cls-16{opacity:0.05;}.cls-17,.cls-18{opacity:0.15;}.cls-21{opacity:0.3;}.cls-21,.cls-22{mix-blend-mode:multiply;}.cls-22{opacity:0.2;}</style></defs><title>Caja fuerte</title><g class="cls-1"><g id="Capa_2" data-name="Capa 2"><g id="Layer_2" data-name="Layer 2"><path id="Floor" class="cls-2" d="M39.87,235.08c53.15,29.45,139.34,29.45,192.49,0s53.16-77.21,0-106.66S93,99,39.87,128.42-13.29,205.63,39.87,235.08Z"/><path class="cls-3" d="M235.46,126.73c.37-4.65,4-12.58,9.27-18.23s13.8-8.37,19-6.1c4.88,2.12,3.8,8.67-2.64,12.54s-16,8.62-19.32,15.95l-6.36,8.8Z"/><path class="cls-4" d="M235.46,126.73c.37-4.65,4-12.58,9.27-18.23s13.8-8.37,19-6.1c4.88,2.12,3.8,8.67-2.64,12.54s-16,8.62-19.32,15.95l-6.36,8.8Z"/><path class="cls-5" d="M234.79,132.82h-.1a.33.33,0,0,1-.21-.41c5.23-15.78,20.05-26.35,26.21-27.36a.32.32,0,1,1,.1.64c-6,1-20.55,11.39-25.7,26.92A.31.31,0,0,1,234.79,132.82Z"/><path class="cls-3" d="M236.15,145.93c1-2.55,4.5-6.61,9.95-9.76,6-3.48,13.41-4.71,15.32-7.64,2.3-3.53-.53-7.26-6.45-7s-16.89,7.44-19.51,19.36Z"/><path class="cls-5" d="M235.88,141.09a.32.32,0,0,1-.14,0,.33.33,0,0,1-.15-.44c5.1-10.15,15.87-14.9,21.43-16.11a.32.32,0,0,1,.14.63c-5.45,1.18-16,5.83-21,15.77A.32.32,0,0,1,235.88,141.09Z"/><path class="cls-6" d="M49.27,160.08l5.23-3a64.74,64.74,0,0,0-1.35-28c-4.12-15.65-16-27.36-22.2-24.9s-6,7.08-2.62,11.78c2.83,3.9,12,13.27,16.45,24.11A59.57,59.57,0,0,1,49.27,160.08Z"/><path class="cls-5" d="M52.06,158.8H52a.31.31,0,0,1-.27-.36c3.58-25.77-12.4-46.61-19.67-51a.32.32,0,0,1,.33-.55c7.38,4.41,23.6,25.53,20,51.6A.32.32,0,0,1,52.06,158.8Z"/><path class="cls-7" d="M49.27,160.08l-7.86,4.54a14.81,14.81,0,0,0-5.23-1.51c-3.34-.42-5.56-3.64-5.23-6.05.22-1.62.74-3.47.49-5.11a4.77,4.77,0,0,0-3-3.3,10.79,10.79,0,0,0-3.5-.5,11.32,11.32,0,0,1-5.45-1.29,4.51,4.51,0,0,1-2.25-4.78,6.48,6.48,0,0,1,1.64-2.49,7.79,7.79,0,0,0,1.76-2.41c.7-1.82-.53-3-2-3.82-5.13-3-7.47-5.31-5.62-7.55s7-3.22,12.18-.48,9.56-.2,13,.38c5.4.9,5.72,4.72,5,8s6,4.72,7.67,8.68C52.18,145.3,53.2,154.79,49.27,160.08Z"/><path class="cls-5" d="M46.65,161.92a.32.32,0,0,1-.32-.31c-.63-18.4-24.23-34.44-29.79-35.36a.32.32,0,0,1,.11-.64c5.86,1,29.67,16.89,30.32,36a.32.32,0,0,1-.31.34Z"/><g id="Character"><path class="cls-8" d="M256.34,74.31a30.41,30.41,0,0,0-3.73-.94,6.89,6.89,0,0,1-3.23-.89c-1.28-.7-4-4-6.19-7.27A38.94,38.94,0,0,1,238.24,53c-.94-5.24-1.12-12.89-1.48-16s-1.64-4-3.31-4.66c-2-.82-4,.37-4,4.82a82.68,82.68,0,0,0,2.29,18.16,41,41,0,0,0,5.63,12.31,47.94,47.94,0,0,0,7.76,8.72c.83.79,1.25,1.59,2.66,3.28a9,9,0,0,0,1.91,1.93A11.68,11.68,0,0,0,252.71,83a7.89,7.89,0,0,0,4.2.13,5,5,0,0,0,2.08-1,3.34,3.34,0,0,0,1.12-2,.83.83,0,0,0,0-.47,1.07,1.07,0,0,0-.65-.52,46.16,46.16,0,0,1-4.55-1.86c-1.17-.65-1.91-1.28-1.66-1.37s.92.34,2.09.38,2.25-.6,2.22-1.23S257.49,74.52,256.34,74.31Z"/><path class="cls-3" d="M230,51.46S229,42.94,228.7,38.2s1.17-6.11,3-7.29c3.92-.31,6.17,3.8,6.83,6.54s1,9.56,1,14,6.24,17.22,6.24,17.22-3.13,1.44-4.07,4.28a108.37,108.37,0,0,1-6.83-8.87C231.4,58.6,230.49,55.23,230,51.46Z"/><path class="cls-4" d="M230,51.46S229,42.94,228.7,38.2s1.17-6.11,3-7.29c3.92-.31,6.17,3.8,6.83,6.54s1,9.56,1,14,6.24,17.22,6.24,17.22-3.13,1.44-4.07,4.28a108.37,108.37,0,0,1-6.83-8.87C231.4,58.6,230.49,55.23,230,51.46Z"/><rect class="cls-8" x="213.72" y="141.93" width="5.34" height="9.14" transform="translate(432.78 293) rotate(180)"/><polygon class="cls-8" points="231.13 144.43 236.46 144.61 236.73 134.94 231.39 134.76 231.13 144.43"/><path class="cls-9" d="M219.06,148.43v-.76c.51.22,1.69,4.75,3.81,6.68,1.69,1.54,4,3.31,4.57,5s-3.2,2.76-4.77,2.48c-1.83-.32-5-1.61-5.8-2.8s-1.16-3-1.81-3.83-2.14-1.85-2.49-2.86a6.52,6.52,0,0,1,.31-2.81c.25-.94.52-2,.84-1.89v.58a4.19,4.19,0,0,0,2.67.9C217.17,149.18,219.06,149,219.06,148.43Z"/><path class="cls-9" d="M236.52,143c.28,0,.5.4,1.11,1.06a11.79,11.79,0,0,0,3.14,2.26c2,1,5.89,2.54,7.65,3.33,1.1.5,1.05,1.82-.09,2.58s-3.88,1.3-7.17.56c-1.8-.4-4.13-2.06-5.61-2s-4.24.07-5.33-.68-.66-2.36-.35-3.74.82-3.81,1.32-3.71l0,.48c.64,1,3.91,1.37,5.32.65Z"/><path class="cls-9" d="M214.07,69.48c0,5.1,0,36.93,0,36.93-.12,1.47-1.2,4-1.5,10.25-.36,7.66-.67,28.64-.67,28.64s4,2.58,7.52.1c0,0,4.73-30.09,5.69-37.68.84-6.62,2.25-24.6,2.25-24.6l3.2,27.09s-.87,5-1.06,8.49,0,21.69,0,21.69,4.22,2.43,7.31.77c0,0,3.66-28.08,4.21-31.25s-2-40.43-2-40.43Z"/><path d="M227.35,83.12a19.78,19.78,0,0,0,7.44-4.26s-1.44,2.68-5.7,5.18l.09,14.55Z"/><path class="cls-3" d="M219.2,32.61a12.25,12.25,0,0,0-2.21.5c-1.46.58-2.13,2.38-2.48,4a18.31,18.31,0,0,0-.44,4V69.48c3.74,4.08,16.79,6,25,0,0,0-.16-25-.77-29.14-1.07-7.15-4.49-9.7-7.92-9.43l-8.24,1.18Z"/><path class="cls-10" d="M222.36,45s4.47-.18,6.3-.9v-.89c-1.83.71-6.3.89-6.3.89Z"/><path class="cls-3" d="M229.91,36.21l-7.84-5.75,0-1.41s-1.66.24-2.06,3.42a13.46,13.46,0,0,0,6,6.38l1.62-2.9Z"/><path class="cls-4" d="M229.91,36.21l-7.84-5.75,0-1.41s-1.66.24-2.06,3.42a13.46,13.46,0,0,0,6,6.38l1.62-2.9Z"/><path class="cls-3" d="M230.34,29.38a3.91,3.91,0,0,1,2.54,1.53c.77,1.28.59,6.16.59,6.16l-2.06-2.36-1.5,1.5c.16-1.62.44-4.36.44-4.36Z"/><path class="cls-4" d="M230.34,29.38a3.91,3.91,0,0,1,2.54,1.53c.77,1.28.59,6.16.59,6.16l-2.06-2.36-1.5,1.5c.16-1.62.44-4.36.44-4.36Z"/><path class="cls-9" d="M218.77,19.08a63,63,0,0,0,1.72,6.71A2.61,2.61,0,0,0,222,27L221.91,23Z"/><path class="cls-9" d="M220.31,10.81a2.84,2.84,0,0,0-2.36.83c-1,1-.44,4.27.82,7.44l2.31.26Z"/><path class="cls-8" d="M221.77,19.34c-.46.28-1.12-.61-1.69-1.21a2,2,0,0,0-3.38.55c-.94,2,.83,4.64,2.3,5.1,2.53.8,2.91-.83,2.91-.83l.2,9.14a14.73,14.73,0,0,0,7.8,4.12l.44-4.36V29.07a15.67,15.67,0,0,0,3.42.17c1.86-.28,3-1.75,3.6-3.77.91-3.24,1.25-5.86.48-12.23-.84-7-9-7-13.35-4.29S221.77,19.34,221.77,19.34Z"/><path class="cls-9" d="M221.77,20.12c-.23,0-1.12-1.46-1.69-2-.8-.73.23-7.32.23-7.32,1-4.53,8.8-5.16,13.18-3.72,2.27.71,3.75,1.73,3.66,3.65-.29,1.26-3.07,1.94-4.12,2.07a36.49,36.49,0,0,1-8.17-.52c-.86-.12-1.09.15-1.56,2.43C222.9,16.72,222.56,20.11,221.77,20.12Z"/><path class="cls-9" d="M220.31,11.32l-2.8-1.5a1.53,1.53,0,0,1,2.12-.7A1.66,1.66,0,0,1,220.31,11.32Z"/><path class="cls-11" d="M230.34,29.07a32,32,0,0,1-5.61-1.61,4.76,4.76,0,0,1-2-2,6.58,6.58,0,0,0,1.14,2.35c1.06,1.36,6.48,2.36,6.48,2.36Z"/><path class="cls-9" d="M229.61,19.07a.84.84,0,1,1-.84-.87A.86.86,0,0,1,229.61,19.07Z"/><path class="cls-9" d="M228.72,15.92l-1.78,1a1.07,1.07,0,0,1,.41-1.42A1,1,0,0,1,228.72,15.92Z"/><path class="cls-11" d="M230,24.06l1.91.72a1,1,0,0,1-1.29.63A1.08,1.08,0,0,1,230,24.06Z"/><path class="cls-9" d="M237,16.62l-1.63-1.26a1,1,0,0,1,1.42-.21A1.08,1.08,0,0,1,237,16.62Z"/><path class="cls-9" d="M236.54,18.83a.84.84,0,1,1-.84-.87A.86.86,0,0,1,236.54,18.83Z"/><polygon class="cls-11" points="232.03 17.28 232.3 22.29 234.92 21.4 232.03 17.28"/><path class="cls-9" d="M224,13.84s8.28,4.63,14.05,1.1-1.71-6.55-1.71-6.55Z"/><path class="cls-3" d="M236.26.5c-4.93-.77-10.28-1-16.5,2s-7.57,7-7.57,7,6.33,1.73,11.48.25S236.26.5,236.26.5Z"/><path class="cls-12" d="M236.26.5c-4.93-.77-10.28-1-16.5,2s-7.57,7-7.57,7,6.33,1.73,11.48.25S236.26.5,236.26.5Z"/><path class="cls-3" d="M215.65,11.46s-3.17-1.11-3.46-1.91a21.4,21.4,0,0,0,7.36-1.38c4.11-1.5,8.39-6,13-7.29s6.6.84,6.6.84a21.82,21.82,0,0,1-2.63,5.62s-1.43,3.3-6.88,4.7S215.65,11.46,215.65,11.46Z"/><path class="cls-10" d="M215.65,11.46l.26.87a2,2,0,0,0,1.21,1.25,22.46,22.46,0,0,0,12.68-.32c3.83-1.17,5.56-2.37,6.25-3.19a2.14,2.14,0,0,0,.64-1.87l-.14-.86s-1.18,1.8-7.44,3.79S215.65,11.46,215.65,11.46Z"/><path class="cls-13" d="M233.06,2.66c-.05,1-1.07,2.88-2.42,2.21V7.3c0,1.52.89,1.93,2.33,1.45a3.63,3.63,0,0,0,2.5-3.39c0-.46,0-2.1,0-2.1C234.41,4.86,233,3,233.06,2.66Z"/></g><path class="cls-10" d="M133.2,29.05,57.64,72.67a6.16,6.16,0,0,0-2.79,4.83v84.22a6.18,6.18,0,0,0,2.79,4.84l75.56,43.62a6.16,6.16,0,0,0,5.58,0l75.55-43.62a6.18,6.18,0,0,0,2.79-4.84V77.5a6.16,6.16,0,0,0-2.79-4.83L138.78,29.05A6.16,6.16,0,0,0,133.2,29.05Z"/><path class="cls-9" d="M136,120.18v90.66a5.65,5.65,0,0,1-2.79-.67L57.64,166.55a6.15,6.15,0,0,1-2.79-4.83V77.5a6.24,6.24,0,0,1,2.51-4.65c-1.25.9-1.15,2.21.28,3l75.56,43.62A5.65,5.65,0,0,0,136,120.18Z"/><path class="cls-14" d="M214.33,72.67,138.78,29.05a6.16,6.16,0,0,0-5.58,0L57.64,72.67c-1.54.89-1.54,2.33,0,3.22l75.56,43.62a6.16,6.16,0,0,0,5.58,0l75.55-43.62C215.87,75,215.87,73.56,214.33,72.67Z"/><path class="cls-9" d="M142.62,123.34l67.87-39.19c.77-.44,1.4-.08,1.4.81v75.35a3.1,3.1,0,0,1-1.4,2.42l-67.87,39.19c-.77.44-1.4.08-1.4-.81V125.76A3.1,3.1,0,0,1,142.62,123.34Z"/><path class="cls-10" d="M142.51,125.76a1.83,1.83,0,0,1,.75-1.3l67.33-38.88v74.73a1.83,1.83,0,0,1-.75,1.3l-67.34,38.88Z"/><path class="cls-14" d="M141.46,130.05l14.74-8.51a1,1,0,0,1,1,0l2.39,1.38-15.47,8.64Z"/><path class="cls-9" d="M159.78,123.46v10.15a1.83,1.83,0,0,1-.83,1.45l-14.87,8.59V131.56L159,123C159.41,122.71,159.78,122.92,159.78,123.46Z"/><polygon points="141.46 130.05 144.08 131.56 144.08 143.65 141.46 142.13 141.46 130.05"/><path class="cls-14" d="M150.38,132.54c.73-.42,1.31-.08,1.31.75a2.88,2.88,0,0,1-1.31,2.27c-.72.42-1.31.08-1.31-.76A2.89,2.89,0,0,1,150.38,132.54Z"/><path class="cls-14" d="M155.62,129.52c.72-.42,1.31-.08,1.31.75a2.9,2.9,0,0,1-1.31,2.27c-.73.41-1.31.08-1.31-.76A2.86,2.86,0,0,1,155.62,129.52Z"/><path class="cls-14" d="M141.22,130.19l-3.62,2.09a3.2,3.2,0,0,1-3.22,0l-2.65-1.52a.94.94,0,0,0-1,0l-2.37,1.36,6,3.19a3.25,3.25,0,0,0,3.22,0l6.24-3.61Z"/><path class="cls-10" d="M129,144.27l5.41,3.12a3.2,3.2,0,0,0,3.22,0l6.24-3.6V131.7l-6.24,3.61a3.25,3.25,0,0,1-3.22,0L129,132.19c-.46-.27-.83-.06-.83.48v10.15A1.83,1.83,0,0,0,129,144.27Z"/><path class="cls-9" d="M136,147.83a3.23,3.23,0,0,0,1.59-.44l6.24-3.6V131.7l-6.24,3.61a3.32,3.32,0,0,1-1.59.43Z"/><path class="cls-14" d="M141.46,181.42l14.74-8.5a1,1,0,0,1,1,0l2.39,1.38-15.47,8.63Z"/><path class="cls-9" d="M159.78,174.83V185a1.86,1.86,0,0,1-.83,1.45L144.08,195V182.93L159,174.35C159.41,174.08,159.78,174.3,159.78,174.83Z"/><polygon points="141.46 181.42 144.08 182.93 144.08 195.02 141.46 193.51 141.46 181.42"/><path class="cls-14" d="M150.38,183.91c.73-.41,1.31-.08,1.31.76a2.86,2.86,0,0,1-1.31,2.26c-.72.42-1.31.08-1.31-.75A2.9,2.9,0,0,1,150.38,183.91Z"/><path class="cls-14" d="M155.62,180.89c.72-.42,1.31-.08,1.31.76a2.89,2.89,0,0,1-1.31,2.26c-.73.42-1.31.08-1.31-.75A2.88,2.88,0,0,1,155.62,180.89Z"/><path class="cls-14" d="M141.22,181.57l-3.62,2.09a3.25,3.25,0,0,1-3.22,0l-2.65-1.53a1,1,0,0,0-1,0l-2.37,1.37,6,3.18a3.2,3.2,0,0,0,3.22,0l6.24-3.6Z"/><path class="cls-10" d="M129,195.65l5.41,3.12a3.2,3.2,0,0,0,3.22,0l6.24-3.6V183.08l-6.24,3.6a3.2,3.2,0,0,1-3.22,0L129,183.56c-.46-.27-.83-.05-.83.48V194.2A1.86,1.86,0,0,0,129,195.65Z"/><path class="cls-9" d="M136,199.2a3.22,3.22,0,0,0,1.59-.43l6.24-3.6V183.08l-6.24,3.6a3.11,3.11,0,0,1-1.59.43Z"/><path class="cls-9" d="M187.12,132.43l.44-.76-2.66-1.54,0,0-.05,0h0c-2.12-1.18-5-1-8.26.87-6.5,3.75-11.77,12.88-11.77,20.4,0,3.68,1.27,6.29,3.33,7.55h0l.08,0,.07,0,2.67,1.54.44-.78a10.75,10.75,0,0,0,5.18-1.6c6.51-3.76,11.78-12.89,11.78-20.4A10.82,10.82,0,0,0,187.12,132.43Z"/><ellipse class="cls-9" cx="179.6" cy="146.3" rx="16.66" ry="9.62" transform="translate(-36.9 228.68) rotate(-60)"/><ellipse class="cls-10" cx="179.17" cy="146.06" rx="16.66" ry="9.62" transform="translate(-36.9 228.2) rotate(-60)"/><path class="cls-15" d="M180.38,137c-.26.09-.43-.13-.36-.49l.54-3.13a1.14,1.14,0,0,1,.59-.84c.26-.1.43.12.36.49l-.54,3.12A1.17,1.17,0,0,1,180.38,137Z"/><path class="cls-15" d="M175.94,140.37a.25.25,0,0,1-.34-.13l-.87-2.05a1.06,1.06,0,0,1,.26-1c.25-.3.54-.34.64-.1l.88,2a1.1,1.1,0,0,1-.27,1A.76.76,0,0,1,175.94,140.37Z"/><path class="cls-15" d="M172.55,146.2a.24.24,0,0,1-.14,0l-2-.18c-.23,0-.3-.35-.16-.73s.44-.67.68-.65l1.95.19c.23,0,.31.34.16.72A1,1,0,0,1,172.55,146.2Z"/><path class="cls-15" d="M169.21,154c-.2.08-.36,0-.37-.29a1.23,1.23,0,0,1,.45-1l2.29-1.75c.27-.21.51-.11.53.21a1.25,1.25,0,0,1-.45.95l-2.3,1.75A.37.37,0,0,1,169.21,154Z"/><path class="cls-15" d="M171.45,159.23a.26.26,0,0,1-.26,0c-.18-.14-.15-.54.05-.89l1.76-3c.2-.35.51-.53.69-.39s.15.54-.06.89l-1.75,3A1,1,0,0,1,171.45,159.23Z"/><path class="cls-15" d="M176.45,159.71c-.27.09-.43-.13-.36-.49l.54-3.13a1.14,1.14,0,0,1,.59-.84c.26-.1.42.12.36.49l-.54,3.13A1.2,1.2,0,0,1,176.45,159.71Z"/><path class="cls-15" d="M182.3,155.24a.24.24,0,0,1-.34-.13l-.87-2.05a1.06,1.06,0,0,1,.26-1c.25-.29.54-.33.64-.09l.88,2a1.09,1.09,0,0,1-.27,1A.67.67,0,0,1,182.3,155.24Z"/><path class="cls-15" d="M186.77,147.55a.23.23,0,0,1-.14,0l-2-.18c-.23,0-.3-.35-.16-.73s.45-.67.68-.65l2,.18c.23,0,.3.35.16.73A1.09,1.09,0,0,1,186.77,147.55Z"/><path class="cls-15" d="M185.86,141.31c-.2.07-.35,0-.37-.29a1.25,1.25,0,0,1,.45-1l2.29-1.74c.27-.21.51-.12.53.2a1.27,1.27,0,0,1-.45,1L186,141.22Z"/><path class="cls-15" d="M184.17,137.35a.26.26,0,0,1-.26,0c-.17-.14-.15-.54.06-.89l1.75-3c.2-.36.51-.53.69-.4s.15.54-.06.9l-1.75,3A1,1,0,0,1,184.17,137.35Z"/><path class="cls-9" d="M184.88,139.07h0c-1.12-1.67-3.25-2-5.71-.58a14.47,14.47,0,0,0-6.54,11.33c0,3,1.5,4.69,3.66,4.67h0l5,.11L187.66,143Z"/><path class="cls-14" d="M183.45,142.69a10.79,10.79,0,0,0-4.87,8.45c0,3.11,2.18,4.37,4.87,2.82a10.78,10.78,0,0,0,4.88-8.45C188.33,142.4,186.15,141.14,183.45,142.69Z"/><path class="cls-9" d="M206.72,121.6a5.81,5.81,0,0,0-2.9-5.25l-8.72-5,0,0h0a2.64,2.64,0,0,0-2.6.27,8.19,8.19,0,0,0-3.7,6.41,2.48,2.48,0,0,0,1.33,2.52h0l.05,0,8.39,2.66a4.67,4.67,0,0,1,3.25,4.21l.94,17.92h0a1.51,1.51,0,1,0,3,0h0Z"/><g id="Character_Arm" data-name="Character Arm"><path class="cls-8" d="M209.27,40.55S198.42,56.7,196.59,60.68C196,62,195.45,62.74,197.66,65S208,74,208.75,75s.77,2.57,1.38,4-.09,5.09.46,7.37,6.53-1.07,6.53-6.9c0-3.27.12-5.17-1.88-6.7s-10.3-11.28-10.3-11.28l7.55-11.38Z"/><path class="cls-3" d="M211.51,53.35c2.57-3.4,6.81-8.43,6.81-8.43,2-2.75,3.57-9.87.45-12.27-2.11-.32-4.1-.26-7.07,3.44s-5.9,7.78-9,12.32S195.5,59.57,195.5,62s4.79,6.34,9.12,9.29a5.73,5.73,0,0,1,5.1-4.27l-4.06-5.68S208.94,56.74,211.51,53.35Z"/><path class="cls-16" d="M211.51,53.35c2.57-3.4,6.81-8.43,6.81-8.43,2-2.75,3.57-9.87.45-12.27-2.11-.32-4.1-.26-7.07,3.44s-5.9,7.78-9,12.32S195.5,59.57,195.5,62s4.79,6.34,9.12,9.29a5.73,5.73,0,0,1,5.1-4.27l-4.06-5.68S208.94,56.74,211.51,53.35Z"/><path class="cls-10" d="M211.79,37.66a4.39,4.39,0,0,1,2.93,1.74l.11-.17a.46.46,0,0,0-.06-.57,4.53,4.53,0,0,0-2.37-1.42.43.43,0,0,0-.46.2Z"/><path class="cls-10" d="M213.15,41.13a1.51,1.51,0,1,1-.15-2.42A1.74,1.74,0,0,1,213.15,41.13Z"/></g><g id="Money"><polygon class="cls-3" points="127.46 201.93 55.54 160.41 19.59 181.17 91.5 222.69 127.46 201.93"/><path class="cls-17" d="M23.37,181.17,91.5,220.5l32.18-18.57L55.54,162.59Zm1.89,0,30.28-17.48,66.25,38.24L91.5,219.41Z"/><g class="cls-18"><path d="M74.87,202.3a28.29,28.29,0,0,1-13.81-3.37h0c-3.77-2.18-5.94-5.15-5.94-8.15,0-2.76,1.78-5.3,5-7.16,6.88-4,18.48-3.72,25.88.55,3.77,2.18,5.93,5.15,5.93,8.16,0,2.75-1.77,5.29-5,7.15A24.6,24.6,0,0,1,74.87,202.3Zm-2.69-20.86a23.94,23.94,0,0,0-11.74,2.74c-3,1.74-4.67,4.08-4.67,6.6,0,2.76,2,5.53,5.61,7.59h0c7.22,4.17,18.54,4.42,25.23.55,3-1.74,4.67-4.08,4.67-6.59,0-2.77-2-5.54-5.62-7.6A27.57,27.57,0,0,0,72.18,181.44Z"/></g><g class="cls-19"><path d="M74.86,200a26,26,0,0,1-12.63-3.07c-3-1.75-4.78-4-4.78-6.13,0-1.89,1.36-3.71,3.83-5.14a22.29,22.29,0,0,1,10.9-2.52,26,26,0,0,1,12.64,3.07c3,1.75,4.78,4,4.78,6.14,0,1.88-1.36,3.71-3.83,5.13A22.22,22.22,0,0,1,74.86,200Z"/></g><path class="cls-4" d="M87.72,215.57,68,204.09l1.58.2a33.76,33.76,0,0,0,4.27.27,30,30,0,0,0,13.75-3.62c3.5-2,7-5.63,7-9.15a8.49,8.49,0,0,0-.8-3.55l-.42-.92L115,199.89l-2.37,1.37a1,1,0,0,0-.62.81,1.06,1.06,0,0,0,.62.82l2.38,1.37L95.29,215.57l-2.05-1.18a3.82,3.82,0,0,0-3.47,0Z"/><path class="cls-3" d="M96.42,207.54a6.83,6.83,0,0,1-3.3-.8,2.57,2.57,0,0,1-1.49-2.09,2.19,2.19,0,0,1,1.27-1.86,6.88,6.88,0,0,1,6.2.12,2.57,2.57,0,0,1,1.49,2.1,2.22,2.22,0,0,1-1.27,1.86A6,6,0,0,1,96.42,207.54Z"/><path class="cls-4" d="M53.74,195.76,32.13,183.31l2.38-1.37a.84.84,0,0,0,0-1.62l-2.38-1.38,19.69-11.21,2,1.19a3.9,3.9,0,0,0,3.46,0l2.05-1.19L79.15,179.1l-1.6-.2a33.65,33.65,0,0,0-4.27-.27,30.25,30.25,0,0,0-13.92,3.52c-4.56,2.62-6.86,5.44-6.86,8.37a12.32,12.32,0,0,0,.83,4.32Z"/><path class="cls-3" d="M51.16,181.52a6.72,6.72,0,0,1-3.3-.81h0a2.54,2.54,0,0,1-1.49-2.09,2.22,2.22,0,0,1,1.27-1.86,6.88,6.88,0,0,1,6.2.13A2.57,2.57,0,0,1,55.33,179a2.19,2.19,0,0,1-1.27,1.86A6,6,0,0,1,51.16,181.52Z"/><polygon class="cls-3" points="127.46 201.93 127.46 210.67 91.5 231.43 91.5 222.69 127.46 201.93"/><g class="cls-20"><polygon class="cls-5" points="127.46 201.93 127.46 210.67 91.5 231.43 91.5 222.69 127.46 201.93"/></g><polygon class="cls-3" points="91.5 224.64 102.86 218.32 91.5 225.17 91.5 224.64"/><polygon class="cls-3" points="127.46 206.08 123.68 208.49 127.46 206.52 127.46 206.08"/><polygon class="cls-3" points="127.46 208.16 108.54 219.41 127.46 208.81 127.46 208.16"/><polygon class="cls-3" points="91.5 226.72 110.43 216.14 91.5 227.41 91.5 226.72"/><polygon class="cls-3" points="91.5 231.43 19.59 189.91 19.59 181.17 91.5 222.69 91.5 231.43"/><g class="cls-18"><polygon points="91.5 231.43 19.59 189.91 19.59 181.17 91.5 222.69 91.5 231.43"/></g><g class="cls-21"><polygon points="91.5 224.64 87.71 222.69 91.5 225.17 91.5 224.64"/></g><g class="cls-21"><polygon points="91.5 226.72 72.47 216.08 91.5 227.41 91.5 226.72"/></g><g class="cls-21"><polygon points="19.59 185.28 32.83 193.19 19.59 185.8 19.59 185.28"/></g><g class="cls-21"><polygon points="19.59 187.48 27.16 192.1 19.59 187.97 19.59 187.48"/></g><polygon class="cls-13" points="97.77 183.34 60.56 204.82 49.2 198.27 86.41 176.78 97.77 183.34"/><polygon class="cls-7" points="49.2 198.27 49.2 207.78 60.56 214.33 60.56 204.82 49.2 198.27"/><polygon class="cls-6" points="60.56 214.33 61.22 213.95 60.56 213.57 60.56 214.33"/><polygon class="cls-6" points="97.77 183.34 97.77 184.79 96.51 184.06 97.77 183.34"/><g class="cls-21"><polygon points="61.22 213.94 61.22 205.21 60.56 204.82 60.56 213.56 61.22 213.94"/></g><g class="cls-22"><polygon points="61.22 205.21 97.18 184.45 96.51 184.06 60.56 204.82 61.22 205.21"/></g><polygon class="cls-14" points="96.55 182.63 59.33 204.11 58.38 203.57 95.6 182.09 96.55 182.63"/><polygon class="cls-14" points="88.59 178.04 51.38 199.53 50.43 198.98 87.64 177.5 88.59 178.04"/><polygon class="cls-9" points="59.33 204.11 59.33 213.63 58.38 213.08 58.38 203.57 59.33 204.11"/><polygon class="cls-9" points="51.38 199.53 51.38 209.03 50.43 208.49 50.43 198.98 51.38 199.53"/><polygon class="cls-3" points="127.46 191.64 55.54 150.12 19.59 170.88 91.5 212.4 127.46 191.64"/><path class="cls-17" d="M23.37,170.88,91.5,210.21l32.18-18.57L55.54,152.3Zm1.89,0L55.54,153.4l66.25,38.24L91.5,209.12Z"/><g class="cls-18"><path d="M74.87,192a28.29,28.29,0,0,1-13.81-3.37h0c-3.77-2.18-5.94-5.15-5.94-8.16,0-2.75,1.78-5.29,5-7.15,6.88-4,18.48-3.72,25.88.55,3.77,2.18,5.93,5.15,5.93,8.15,0,2.76-1.77,5.3-5,7.16A24.6,24.6,0,0,1,74.87,192Zm-2.69-20.87a23.94,23.94,0,0,0-11.74,2.75c-3,1.74-4.67,4.08-4.67,6.59,0,2.77,2,5.54,5.61,7.6h0c7.22,4.17,18.54,4.41,25.23.55,3-1.74,4.67-4.08,4.67-6.6,0-2.76-2-5.53-5.62-7.59A27.57,27.57,0,0,0,72.18,171.14Z"/></g><g class="cls-19"><path d="M74.86,189.69a26,26,0,0,1-12.63-3.07c-3-1.75-4.78-4-4.78-6.14,0-1.88,1.36-3.71,3.83-5.13a22.18,22.18,0,0,1,10.9-2.52,26,26,0,0,1,12.64,3.07c3,1.75,4.78,4,4.78,6.13,0,1.89-1.36,3.71-3.83,5.14A22.33,22.33,0,0,1,74.86,189.69Z"/></g><path class="cls-4" d="M87.72,205.28,68,193.8l1.58.2a33.76,33.76,0,0,0,4.27.27,30,30,0,0,0,13.75-3.62c3.5-2,7-5.63,7-9.15a8.49,8.49,0,0,0-.8-3.55l-.42-.92L115,189.6,112.63,191a1,1,0,0,0-.62.81,1.06,1.06,0,0,0,.62.82L115,194,95.29,205.28l-2.05-1.19a3.86,3.86,0,0,0-3.47,0Z"/><path class="cls-3" d="M96.42,197.25a6.83,6.83,0,0,1-3.3-.8,2.57,2.57,0,0,1-1.49-2.09,2.19,2.19,0,0,1,1.27-1.86,6.85,6.85,0,0,1,6.2.12,2.57,2.57,0,0,1,1.49,2.09,2.19,2.19,0,0,1-1.27,1.86A5.86,5.86,0,0,1,96.42,197.25Z"/><path class="cls-4" d="M53.74,185.47,32.13,173l2.38-1.37a1,1,0,0,0,.62-.81c0-.3-.22-.58-.62-.81l-2.38-1.38,19.69-11.21,2,1.19a3.87,3.87,0,0,0,3.46,0l2.05-1.18,19.77,11.37-1.6-.2a33.65,33.65,0,0,0-4.27-.28,30.37,30.37,0,0,0-13.92,3.52c-4.56,2.63-6.86,5.45-6.86,8.38a12.32,12.32,0,0,0,.83,4.32Z"/><path class="cls-3" d="M51.16,171.23a6.72,6.72,0,0,1-3.3-.81h0a2.55,2.55,0,0,1-1.49-2.09,2.21,2.21,0,0,1,1.27-1.86,6.88,6.88,0,0,1,6.2.13,2.55,2.55,0,0,1,1.49,2.09,2.21,2.21,0,0,1-1.27,1.86A6,6,0,0,1,51.16,171.23Z"/><polygon class="cls-3" points="127.46 191.64 127.46 200.38 91.5 221.14 91.5 212.4 127.46 191.64"/><g class="cls-20"><polygon class="cls-5" points="127.46 191.64 127.46 200.38 91.5 221.14 91.5 212.4 127.46 191.64"/></g><polygon class="cls-3" points="91.5 214.35 102.86 208.03 91.5 214.88 91.5 214.35"/><polygon class="cls-3" points="127.46 195.79 123.68 198.19 127.46 196.23 127.46 195.79"/><polygon class="cls-3" points="127.46 197.87 108.54 209.12 127.46 198.52 127.46 197.87"/><polygon class="cls-3" points="91.5 216.43 110.43 205.84 91.5 217.11 91.5 216.43"/><polygon class="cls-3" points="91.5 221.14 19.59 179.62 19.59 170.88 91.5 212.4 91.5 221.14"/><g class="cls-18"><polygon points="91.5 221.14 19.59 179.62 19.59 170.88 91.5 212.4 91.5 221.14"/></g><g class="cls-21"><polygon points="91.5 214.35 87.71 212.4 91.5 214.88 91.5 214.35"/></g><g class="cls-21"><polygon points="91.5 216.43 72.47 205.79 91.5 217.11 91.5 216.43"/></g><g class="cls-21"><polygon points="19.59 174.99 32.83 182.9 19.59 175.51 19.59 174.99"/></g><g class="cls-21"><polygon points="19.59 177.19 27.16 181.81 19.59 177.68 19.59 177.19"/></g><polygon class="cls-13" points="97.77 173.04 60.56 194.53 49.2 187.98 86.41 166.49 97.77 173.04"/><polygon class="cls-7" points="49.2 187.98 49.2 197.49 60.56 204.04 60.56 194.53 49.2 187.98"/><polygon class="cls-6" points="60.56 204.04 61.22 203.66 60.56 203.27 60.56 204.04"/><polygon class="cls-6" points="97.77 173.04 97.77 174.5 96.51 173.77 97.77 173.04"/><g class="cls-21"><polygon points="61.22 203.65 61.22 194.92 60.56 194.53 60.56 203.27 61.22 203.65"/></g><g class="cls-22"><polygon points="61.22 194.92 97.18 174.15 96.51 173.77 60.56 194.53 61.22 194.92"/></g><polygon class="cls-14" points="96.55 172.34 59.33 193.82 58.38 193.28 95.6 171.79 96.55 172.34"/><polygon class="cls-14" points="88.59 167.75 51.38 189.23 50.43 188.69 87.64 167.21 88.59 167.75"/><polygon class="cls-9" points="59.33 193.82 59.33 203.33 58.38 202.79 58.38 193.28 59.33 193.82"/><polygon class="cls-9" points="51.38 189.23 51.38 198.74 50.43 198.19 50.43 188.69 51.38 189.23"/></g></g></g></g></svg>