<svg xmlns="http://www.w3.org/2000/svg" xmlns:xlink="http://www.w3.org/1999/xlink" viewBox="0 0 323.07 307.58"><defs><style>.cls-1{fill:none;}.cls-2{isolation:isolate;}.cls-3{fill:#00ac96;}.cls-4{fill:#f1c40f;}.cls-5{fill:#2c3e50;}.cls-6{clip-path:url(#clip-path);}.cls-7{fill:#d6946d;}.cls-27,.cls-8{fill:#bf7b52;}.cls-9{fill:#ebe3d1;}.cls-10,.cls-16{mix-blend-mode:multiply;}.cls-11,.cls-21{fill:#fff;}.cls-11{opacity:0.3;mix-blend-mode:overlay;}.cls-12{fill:#95a5a6;}.cls-13{fill:#ecf0f1;}.cls-14{fill:#e67e22;}.cls-15{fill:#ffe683;}.cls-16,.cls-25{fill:#d35400;}.cls-16,.cls-27{opacity:0.5;}.cls-17{fill:#f39c12;}.cls-18{fill:#ffd943;}.cls-19{fill:#7f8c8d;}.cls-20{fill:#d5d8d9;}.cls-22{fill:#f1e8c6;}.cls-23{fill:#c7bfa3;}.cls-24{fill:#34495e;}.cls-26{fill:#eba278;}.cls-28{fill:#f0b695;}</style><clipPath id="clip-path"><path class="cls-1" d="M269.51,161.66A105.46,105.46,0,1,1,164.06,56.22,104.95,104.95,0,0,1,269.51,161.66Z"/></clipPath></defs><title>Tiempo</title><g class="cls-2"><g id="Capa_2" data-name="Capa 2"><g id="Layer_2" data-name="Layer 2"><path class="cls-3" d="M300.32,160.26A134.56,134.56,0,1,1,165.78,25.72,133.93,133.93,0,0,1,300.32,160.26Z"/><path class="cls-4" d="M155.53,285.7a5.81,5.81,0,0,1-5.27-6.19h0a5.79,5.79,0,0,1,6.18-5.27h0a5.81,5.81,0,0,1,5.27,6.19h0A5.79,5.79,0,0,1,156,285.7h-.46Zm34.25-7.62a5.72,5.72,0,0,1,4.18-6.93h0a5.68,5.68,0,0,1,6.93,4.12h0a5.71,5.71,0,0,1-4.13,7h0a5.9,5.9,0,0,1-1.43.17h0A5.78,5.78,0,0,1,189.78,278.08Zm-74.41-2.52h0a5.69,5.69,0,0,1-3-7.51h0a5.74,5.74,0,0,1,7.56-3h0a5.67,5.67,0,0,1,2.92,7.56h0a5.73,5.73,0,0,1-5.22,3.44h0A5.45,5.45,0,0,1,115.37,275.56Zm111.35-11.63a5.8,5.8,0,0,1,1.66-8h0a5.8,5.8,0,0,1,8,1.66h0a5.79,5.79,0,0,1-1.66,8h0a5.74,5.74,0,0,1-3.15.92h0A5.82,5.82,0,0,1,226.72,263.93Zm-146.06-11a5.75,5.75,0,0,1-.34-8.07h0a5.79,5.79,0,0,1,8.14-.35h0a5.77,5.77,0,0,1,.34,8.08h0a5.71,5.71,0,0,1-4.24,1.89h0A5.71,5.71,0,0,1,80.66,252.93ZM257.08,238.5a5.73,5.73,0,0,1-1-8h0a5.74,5.74,0,0,1,8.08-1h0a5.72,5.72,0,0,1,1,8h0a5.74,5.74,0,0,1-4.53,2.18h0A5.39,5.39,0,0,1,257.08,238.5ZM55.18,220.34a5.8,5.8,0,0,1,2.29-7.79h0a5.75,5.75,0,0,1,7.78,2.35h0A5.72,5.72,0,0,1,63,222.63h0a5.93,5.93,0,0,1-2.75.69h0A5.76,5.76,0,0,1,55.18,220.34Zm222.41-15.69a5.73,5.73,0,0,1-3.62-7.28h0a5.75,5.75,0,0,1,7.28-3.55h0a5.77,5.77,0,0,1,3.61,7.28h0a5.82,5.82,0,0,1-5.44,3.89h0A4.92,4.92,0,0,1,277.59,204.65ZM41.66,181.22a5.79,5.79,0,0,1,4.75-6.64h0A5.75,5.75,0,0,1,53,179.33v-.06a5.82,5.82,0,0,1-4.75,6.65h0a4.79,4.79,0,0,1-.92.06h0A5.82,5.82,0,0,1,41.66,181.22Zm238.5-21V160h0v-.23h0a5.79,5.79,0,0,1,5.67-5.79h0a5.76,5.76,0,0,1,5.79,5.73h0V160h0v.23h0a5.75,5.75,0,0,1-5.73,5.73h0A5.75,5.75,0,0,1,280.16,160.26ZM46.36,146.39a5.74,5.74,0,0,1-4.76-6.58h0a5.78,5.78,0,0,1,6.59-4.76h0a5.77,5.77,0,0,1,4.7,6.59h0a5.71,5.71,0,0,1-5.62,4.81h0A4.35,4.35,0,0,1,46.36,146.39Zm227.5-23.71h0a5.7,5.7,0,0,1,3.5-7.27h0a5.75,5.75,0,0,1,7.33,3.55h0a5.75,5.75,0,0,1-3.56,7.28h0a5.54,5.54,0,0,1-1.88.28h0A5.72,5.72,0,0,1,273.86,122.68ZM57.3,108.37a5.76,5.76,0,0,1-2.35-7.8h0v.06h0a5.75,5.75,0,0,1,7.79-2.35h0A5.74,5.74,0,0,1,65,106v.06a5.72,5.72,0,0,1-5,3h0A5.74,5.74,0,0,1,57.3,108.37ZM255.82,89.69a5.72,5.72,0,0,1,.92-8.07h0a5.79,5.79,0,0,1,8.07,1h0a5.79,5.79,0,0,1-1,8.07h0a5.73,5.73,0,0,1-3.55,1.21h0A5.66,5.66,0,0,1,255.82,89.69ZM80,76a5.73,5.73,0,0,1,.29-8.13h0a5.71,5.71,0,0,1,8.08.34h0a5.72,5.72,0,0,1-.29,8.08h0a5.71,5.71,0,0,1-3.9,1.55h0A5.64,5.64,0,0,1,80,76ZM228,64.26a5.72,5.72,0,0,1-1.66-7.9h0a5.73,5.73,0,0,1,8-1.67h0v0h0a5.78,5.78,0,0,1,1.67,8h0a5.76,5.76,0,0,1-4.82,2.58h0A5.74,5.74,0,0,1,228,64.26ZM112,52.69a5.67,5.67,0,0,1,2.92-7.56h0a5.81,5.81,0,0,1,7.57,2.92h0a5.76,5.76,0,0,1-2.92,7.56h0a5.48,5.48,0,0,1-2.35.46h0A5.69,5.69,0,0,1,112,52.69Zm81.51-3.44a5.77,5.77,0,0,1-4.18-6.93h0a5.76,5.76,0,0,1,6.93-4.18h0a5.69,5.69,0,0,1,4.18,6.93h0a5.69,5.69,0,0,1-5.56,4.36h0A5.43,5.43,0,0,1,193.5,49.25Zm-43.7-8.19A5.7,5.7,0,0,1,155,34.88h0a5.72,5.72,0,0,1,6.19,5.21h0A5.68,5.68,0,0,1,156,46.27h0a1.41,1.41,0,0,1-.46.06h0A5.74,5.74,0,0,1,149.8,41.06Z"/><path class="cls-5" d="M231.86,101.17a4.67,4.67,0,0,0-6.46-1.4l-55.54,51.06a10.2,10.2,0,0,0-13.21,4.81L49.12,158.52a4.68,4.68,0,1,0,.62,9.33l107-2.85a10.25,10.25,0,0,0,19.35-4.74,10.89,10.89,0,0,0-.23-2.15l54.63-50.48A4.68,4.68,0,0,0,231.86,101.17ZM165.78,167a6.77,6.77,0,1,1,6.77-6.77A6.77,6.77,0,0,1,165.78,167Z"/><path class="cls-3" d="M256.12,48.06c.47-.36.94-.7,1.41-1.05-1.82-1.37-3.66-2.71-5.56-4A153.74,153.74,0,0,0,100.34,31.37c.27.49.54,1,.82,1.47A151.89,151.89,0,0,1,251,44.35C252.72,45.55,254.43,46.79,256.12,48.06Z"/><path class="cls-3" d="M129.56,295.46c-.19.53-.36,1.06-.54,1.59a155.72,155.72,0,0,0,26.67,4.11,154,154,0,0,0,45.51-3.7c-.13-.54-.25-1.08-.38-1.62a153.77,153.77,0,0,1-71.26-.38Z"/><path class="cls-3" d="M17.74,149.29a138,138,0,0,0,27.14,92.33l1.4-1A135.52,135.52,0,0,1,23.92,123.47l-1.56-.85A137.09,137.09,0,0,0,17.74,149.29Z"/><path class="cls-3" d="M312.33,168.76a135.69,135.69,0,0,1-11.83,46.56A139.61,139.61,0,0,1,290.21,234c.54.22,1.1.42,1.64.63A140.72,140.72,0,0,0,302.09,216a137.4,137.4,0,0,0,12-47.11,139.58,139.58,0,0,0,.16-17.1l-1.72.15A137.35,137.35,0,0,1,312.33,168.76Z"/><path class="cls-3" d="M9.39,145.84l1.74,0c3.46-37.19,21-70.12,47.22-94.23a10.89,10.89,0,0,1-.7-1.65C30.81,74.38,12.87,107.93,9.39,145.84Z"/><path class="cls-3" d="M139.59,306a157.87,157.87,0,0,1-69-29.17c-28.37-21.17-47.78-50.66-55.84-83.26a15.51,15.51,0,0,1-1.67.4,150.19,150.19,0,0,0,56.45,84.18,159.56,159.56,0,0,0,69.65,29.46C139.28,307,139.43,306.51,139.59,306Z"/><path class="cls-3" d="M310.8,213.09c-.75,1.86-1.53,3.71-2.36,5.54-15,33-41.56,59.32-75.26,74.84a11.15,11.15,0,0,1-.21,1.69c0,.08,0,.16-.05.25,34.55-15.63,61.81-42.45,77.1-76.12q1.37-3,2.59-6C312,213.18,311.41,213.15,310.8,213.09Z"/><path class="cls-3" d="M320,139.18a143.25,143.25,0,0,1-1.32,47.29l1.73.2A145.92,145.92,0,0,0,321.71,139Z"/><path class="cls-3" d="M208.63,15.76a14.86,14.86,0,0,1-.68-1.9A164.44,164.44,0,0,0,141,10.25a16.08,16.08,0,0,1,.73,1.58,162.31,162.31,0,0,1,66.89,3.93Z"/><path class="cls-3" d="M288.55,67.41a145.39,145.39,0,0,1,25.14,45.11l1.75-.23a147.08,147.08,0,0,0-25.66-46.08Z"/><path class="cls-3" d="M83.07,295a163.44,163.44,0,0,1-17.88-11.59C21.94,251.15-1.64,200.62,2.12,148.26,5,108.91,22.71,73.89,49.73,48l-1.38-1C21.13,73.12,3.25,108.45.39,148.15c-3.8,52.91,20,104,63.73,136.58a167.19,167.19,0,0,0,18.8,12.13A5.48,5.48,0,0,1,83.07,295Z"/><path class="cls-3" d="M309,236.2a160.27,160.27,0,0,1-62.75,60.14,5.17,5.17,0,0,1,.78,1.49,162,162,0,0,0,63.24-60.41A4.76,4.76,0,0,1,309,236.2Z"/><path class="cls-3" d="M243.81,20.5a4,4,0,0,1-.24-2A171.23,171.23,0,0,0,177.3.37a173.1,173.1,0,0,0-28.67.51,5,5,0,0,1-.2,1.68A170.36,170.36,0,0,1,243.81,20.5Z"/><path class="cls-3" d="M283.73,47.06c-.35.42-.74.83-1.13,1.24a157.19,157.19,0,0,1,27.89,36,5.41,5.41,0,0,1,1.4-1A159.29,159.29,0,0,0,283.75,47Z"/><g class="cls-6"><path class="cls-7" d="M160,137.4l4.44-51.31a8.84,8.84,0,0,0-17.52-2.37l-4.72,56.55A90.41,90.41,0,0,1,160,137.4Z"/><path class="cls-8" d="M156.86,76.15a8.84,8.84,0,0,0-4.5.58A8.78,8.78,0,0,1,160,85.16c.93,17.81-3.25,35.2-5.48,52.76,1.82-.23,3.66-.41,5.49-.52l4.44-51.31A8.85,8.85,0,0,0,156.86,76.15Z"/><path class="cls-7" d="M171.17,137.21c-.13,0-.26,0-.4.06a78.84,78.84,0,0,0-31.63,8.21l-6.79,19.74s-.78,1.26-1.76,3.17l-3.87-13.13a12.12,12.12,0,0,0-15.16-9.21h0a5.48,5.48,0,0,0-3.87,6.45l7.62,27.15a5.38,5.38,0,0,0,1.39,2.31l23.73,23.57a14.55,14.55,0,0,1,1.79,5.85l.43,55.72h53.55l-.48-55.91c0-1.2,0-2.48,0-3.83.18-7.19,3.38-15.45,6.48-20.57,6.9-11.37,9.36-18.65,13.78-25.14-6.59-2.15-11.36-.16-15.65-3-2.55-1.7,10.37-22.23,8.26-24-3.09-2.54-15.24,11.76-22.1,13.21-2.7.57,6.22-31.92,3.56-31.35C184.72,117.67,174.19,138.18,171.17,137.21Z"/><path class="cls-8" d="M161.59,165.86a29.56,29.56,0,0,0,1.65,5c2.17-4.5,4.25-8.94,6-13.27,2.9-7,8.93-12.12,16.71-10.92-.19-5.71,6.4-30.7,4.07-30.2-5.34,1.15-15.87,21.66-18.89,20.69-.13,0-.26,0-.4.06a78.54,78.54,0,0,0-19,3.24c3.19,3.9,5.3,9,6.8,13.77C159.78,158.09,160.53,162,161.59,165.86Z"/><path class="cls-8" d="M202.21,186.8c6.9-11.37,9.36-18.65,13.78-25.14-6.59-2.15-11.36-.16-15.65-3-2.55-1.7,10.37-22.23,8.26-24-2.84-2.33-13.3,9.51-20.31,12.6,7,2.22,13.12,11,10.08,18.4A207,207,0,0,1,188,187.88c-1.9,3.39-1.85,6.85-1.27,10.57a31.57,31.57,0,0,1,.6,5c0,1.59-.67,2.67.87,4a17,17,0,0,0-4.68,1.43l4.85,1.08c-.73.12-1.09,1-1.12,1.74a5.81,5.81,0,0,1-.22,2.21,3.23,3.23,0,0,1-1,1.08,16.33,16.33,0,0,1-10,3.59c-3.5-.07-7,.4-10.53.4H142.22l.4,48.11h53.55l-.48-55.91c0-1.2,0-2.48,0-3.83C195.91,200.18,199.11,191.92,202.21,186.8Z"/><path class="cls-8" d="M115,147.51a18.73,18.73,0,0,1,7.59,12.09c.11.65-.16,5.68,0,5.78,2.43,1.81,2.94,5.15,3.58,8.11A43.27,43.27,0,0,0,147,201.85a41.71,41.71,0,0,0,35.06,2.42,15.54,15.54,0,0,0,3.64-1.89c4.43-3.24,5.41-9.84,3.29-14.89s-6.7-8.72-11.61-11.16a41.13,41.13,0,0,0-18.19-4.24c-5.09,0-10.17,1-15.26.75s-11.8-1.92-14.06-6.9c-1.49-3.28-2.13-7.22-3.15-10.68a12.12,12.12,0,0,0-15.19-9.2,5.67,5.67,0,0,0-.65.33A6.13,6.13,0,0,1,115,147.51Z"/><polygon class="cls-9" points="202.21 267.11 201.77 224.26 139.62 224.48 140 267.11 202.21 267.11"/><g class="cls-10"><polygon class="cls-9" points="202.21 267.11 201.77 224.26 179.16 224.34 179.58 267.11 202.21 267.11"/></g><polygon class="cls-5" points="210.54 267.11 210.16 246.04 135.83 246.31 136.13 267.11 210.54 267.11"/><polygon class="cls-5" points="210.54 267.11 210.16 246.04 181.46 246.15 181.81 267.11 210.54 267.11"/><polygon class="cls-11" points="181.47 246.15 181.66 267.11 186.51 267.11 186.32 246.13 181.47 246.15"/><path class="cls-11" d="M198.31,250.91a6.86,6.86,0,1,1-6.84,6.89A6.86,6.86,0,0,1,198.31,250.91Z"/><path class="cls-12" d="M165.85,127.59h-3.52a7.73,7.73,0,0,1-7.54-6.14l-.07-.35a7.7,7.7,0,0,1,7.54-9.26h3.66a7.7,7.7,0,0,1,7.54,9.26l-.07.35A7.73,7.73,0,0,1,165.85,127.59Zm-3.59-13.19a5.15,5.15,0,0,0-5,6.18l.07.35a5.16,5.16,0,0,0,5,4.09h3.52a5.16,5.16,0,0,0,5-4.09l.07-.35a5.15,5.15,0,0,0-5-6.18Z"/><path class="cls-13" d="M165.64,126.67h-3.51a7.09,7.09,0,0,1-6.92-5.63l-.07-.34a7.07,7.07,0,0,1,6.92-8.5h3.66a7.07,7.07,0,0,1,6.91,8.5l-.07.34A7.08,7.08,0,0,1,165.64,126.67Zm-3.58-13.18a5.78,5.78,0,0,0-5.66,7l.07.34a5.82,5.82,0,0,0,5.66,4.61h3.51a5.8,5.8,0,0,0,5.66-4.61l.08-.34a5.78,5.78,0,0,0-5.66-7Z"/><rect class="cls-14" x="161.34" y="124.83" width="5.5" height="2.96"/><path class="cls-15" d="M168.71,118.94c0,.89-2.07,1.61-4.62,1.61s-4.62-.72-4.62-1.61,2.07-1.6,4.62-1.6S168.71,118.06,168.71,118.94Z"/><path class="cls-16" d="M165.48,117.42l.3.3a1.46,1.46,0,0,1-2.06,2.07l-.37-.37a1.33,1.33,0,0,1-.74.23,2.4,2.4,0,0,0-.87.2,1.69,1.69,0,0,1-.43.37,11.33,11.33,0,0,0,2.78.33c2.55,0,4.62-.72,4.62-1.61C168.71,118.23,167.35,117.63,165.48,117.42Z"/><polygon class="cls-17" points="168.71 122.16 159.47 122.16 161.33 124.93 166.85 124.93 168.71 122.16"/><rect class="cls-4" x="159.47" y="118.94" width="9.24" height="3.21"/><polygon class="cls-16" points="168.71 118.94 166.24 118.94 166.24 122.16 165.36 124.93 165.36 127.58 166.84 127.79 166.85 124.93 168.71 122.16 168.71 118.94"/><rect class="cls-18" x="160.56" y="118.94" width="0.58" height="3.21"/><rect class="cls-18" x="161.79" y="118.94" width="0.58" height="3.21"/><rect class="cls-18" x="163.02" y="118.94" width="0.58" height="3.21"/><path class="cls-19" d="M201.78,164.83a37.69,37.69,0,1,1-37.69-37.7A37.69,37.69,0,0,1,201.78,164.83Z"/><path class="cls-20" d="M200.34,164.72a35.94,35.94,0,0,1-5.39,19,36.82,36.82,0,0,1-64-2.47,36.14,36.14,0,0,1,2.24-36.79,36.73,36.73,0,0,1,67.11,20.28Z"/><path class="cls-19" d="M171.73,199.16l-.68.25a19.34,19.34,0,0,1-2,.63,25.14,25.14,0,0,1-3.14.67,29.66,29.66,0,0,1-4.18.37,32.57,32.57,0,0,1-5-.31,33.17,33.17,0,0,1-5.48-1.27,31.19,31.19,0,0,1-5.55-2.39l-.7-.38-.63-.38c-.44-.26-.92-.56-1.34-.85-.87-.57-1.72-1.2-2.54-1.86a33.58,33.58,0,0,1-4.45-4.39,33.06,33.06,0,0,1-3.44-5,26.75,26.75,0,0,1-1.31-2.56c-.39-.85-.73-1.7-1-2.55a28.92,28.92,0,0,1-1.31-4.83,29.22,29.22,0,0,1-.43-7.38,20.47,20.47,0,0,1,.34-2.76s0,.25.1.72.18,1.15.32,2a44.88,44.88,0,0,0,1.81,6.85,45.35,45.35,0,0,0,1.82,4.29c.36.73.76,1.48,1.2,2.21s.84,1.43,1.39,2.24a38.18,38.18,0,0,0,3.36,4.3,36.31,36.31,0,0,0,4.07,3.86c.72.6,1.46,1.18,2.23,1.72.39.28.75.51,1.15.77l.63.39.59.34a37.65,37.65,0,0,0,4.88,2.44,49.11,49.11,0,0,0,4.88,1.64c1.59.4,3.13.7,4.56.92s2.78.33,4,.37,2.25.06,3.11,0,1.55,0,2-.08Z"/><path class="cls-19" d="M194.37,145.69l.42.47c.27.3.66.76,1.12,1.38a27.58,27.58,0,0,1,3.2,5.53,30.91,30.91,0,0,1,2.37,8.85c0,.42.09.84.12,1.27l0,.7v.62a22.65,22.65,0,0,1,0,2.59l-.08,1.37-.17,1.34c-.1.9-.29,1.78-.47,2.67s-.46,1.75-.69,2.62-.58,1.71-.9,2.54A32.24,32.24,0,0,1,197,182.3a23.26,23.26,0,0,1-1.38,2.07c-.48.65-1,1.28-1.48,1.86a24.68,24.68,0,0,1-3,3.09c-.51.43-1,.86-1.46,1.23l-1.4,1c-.88.62-1.72,1.06-2.37,1.45-1.38.69-2.18,1-2.18,1s.63-.63,1.73-1.65c.51-.55,1.16-1.19,1.86-1.94s1.44-1.65,2.22-2.63c.4-.48.76-1,1.15-1.57s.79-1.12,1.17-1.72a20,20,0,0,0,1.11-1.87c.37-.64.72-1.31,1.06-2a42.33,42.33,0,0,0,1.84-4.33c.26-.76.49-1.53.74-2.3s.45-1.56.59-2.36.36-1.59.45-2.39l.19-1.2.11-1.16c.1-.75.12-1.61.16-2.44l0-.62v-.53c0-.39,0-.77,0-1.16a41.08,41.08,0,0,0-.34-4.42c-.2-1.41-.44-2.74-.72-4a49.26,49.26,0,0,0-1.78-5.87C194.69,146.49,194.37,145.69,194.37,145.69Z"/><path class="cls-21" d="M131.66,152.43l.21-.61c.13-.4.32-1,.62-1.72a30.75,30.75,0,0,1,3.14-5.77,32.62,32.62,0,0,1,6.37-6.86c.33-.27.68-.54,1-.8l.56-.42.54-.36a22.68,22.68,0,0,1,2.24-1.42c.81-.47,1.63-.9,2.46-1.28s1.68-.75,2.54-1.1,1.75-.59,2.62-.88,1.78-.46,2.67-.66a33.66,33.66,0,0,1,5.29-.65,33.52,33.52,0,0,1,9.32.9c.66.19,1.3.32,1.89.52l1.66.58c1,.38,1.9.82,2.62,1.13,1.4.74,2.17,1.19,2.17,1.19l-2.36-.67c-.77-.16-1.67-.4-2.73-.61s-2.24-.4-3.54-.54c-.64-.1-1.33-.12-2-.16s-1.42-.08-2.16-.09-1.51,0-2.29,0-1.56.1-2.37.18a43.29,43.29,0,0,0-4.88.83c-.82.2-1.64.43-2.46.66s-1.63.52-2.42.86-1.61.6-2.37,1a25.06,25.06,0,0,0-2.26,1.13c-.72.36-1.47.84-2.2,1.28l-.56.33-.47.31c-.35.23-.68.46-1,.7a42.33,42.33,0,0,0-6.61,5.88,47,47,0,0,0-3.9,5C132.13,151.65,131.66,152.43,131.66,152.43Z"/><path class="cls-21" d="M195.59,164.4a31.93,31.93,0,1,1-31.93-31.92A31.83,31.83,0,0,1,195.59,164.4Z"/><path class="cls-22" d="M194.25,164.83a30.16,30.16,0,1,1-30.16-30.17A30.06,30.06,0,0,1,194.25,164.83Z"/><path class="cls-23" d="M140.85,182.62a30.16,30.16,0,0,1,47.52-35.69,30.16,30.16,0,1,0-44.9,39.87A31.54,31.54,0,0,1,140.85,182.62Z"/><path class="cls-24" d="M165,193.38l-.12-3.85.6,0,.2,3.85ZM159.5,193l-.68-.12.71-3.78.58.1Zm11.59-.5-.94-3.73.58-.16,1,3.72Zm-17.54-1.14c-.22-.09-.43-.17-.64-.27l1.51-3.54.55.23Zm23.34-1-1.74-3.44c.18-.09.36-.18.53-.28l1.81,3.41Zm-28.8-1.88-.57-.39,2.24-3.14.48.34Zm34-1.47-2.42-3,.45-.38,2.5,2.93Zm-38.69-2.52-.47-.51,2.85-2.58.41.43Zm43-1.86-3-2.41c.13-.15.25-.31.37-.46l3.06,2.33Zm-46.79-3.05c-.12-.2-.24-.4-.35-.6l3.35-1.91a5.24,5.24,0,0,0,.3.51Zm50.11-2.16-3.46-1.7.26-.54,3.49,1.62ZM137,174l-.21-.65,3.67-1.16.19.57Zm54.83-2.37-3.75-.91c.05-.2.1-.39.14-.58L192,171ZM135.69,168c0-.23-.05-.46-.07-.69l3.84-.32.06.59Zm57-2.46-3.85-.09c0-.2,0-.4,0-.59l3.85-.11v.11C192.66,165.05,192.66,165.28,192.65,165.51Zm-53.14-3.31-3.83-.4c0-.23,0-.46.08-.68l3.82.49C139.55,161.8,139.53,162,139.51,162.2Zm48.83-2.2-.12-.59,3.76-.83c.05.22.09.44.14.67Zm-47.7-3L137,155.76c.07-.22.15-.44.22-.65l3.62,1.31C140.77,156.61,140.7,156.79,140.64,157Zm46.1-2.08-.24-.53,3.48-1.64.29.62Zm-43.87-2.77-3.3-2,.36-.59,3.26,2.06Zm41.2-1.86c-.11-.16-.23-.32-.35-.47l3.06-2.35.41.55Zm-38-2.4-2.8-2.64.48-.5,2.74,2.71Zm34.38-1.55-.45-.39,2.48-3,.52.46Zm-30.31-1.93L148,141.21l.58-.38,2.09,3.24C150.49,144.17,150.33,144.28,150.17,144.39Zm26-1.17-.52-.28,1.79-3.41.61.33Zm-21.24-1.34-1.44-3.58.64-.24,1.35,3.6Zm16.32-.74-.57-.16,1-3.72.66.19Zm-11.18-.7-.63-3.8.68-.11.53,3.82C160.41,140.38,160.21,140.4,160,140.44Zm5.93-.27-.59,0,.19-3.85.69,0Z"/><path class="cls-23" d="M145,153.33c.38-.56,18.57,10.93,19.89,11.81s2.1,2.06,1.72,2.63-1.75.3-3.08-.59S144.62,153.89,145,153.33Z"/><path class="cls-23" d="M177.31,166.16c0,1.1-12,2-13.11,2a2,2,0,1,1,0-4C165.3,164.17,177.31,165.06,177.31,166.16Z"/><path class="cls-25" d="M144.88,152c.38-.56,18.56,10.93,19.89,11.82s2.1,2.06,1.72,2.62-1.75.3-3.08-.59S144.51,152.56,144.88,152Z"/><path class="cls-17" d="M166.49,166.43c-.37.56-1.75.3-3.08-.59s-18.9-13.28-18.53-13.85Z"/><path class="cls-17" d="M177.2,164.83c0,1.1-12,2-13.11,2a2,2,0,0,1,0-4C165.19,162.83,177.2,163.72,177.2,164.83Z"/><path class="cls-4" d="M174,165l-6.62.44c-.71,0-1.34-.25-1.34-.64h0c0-.4.63-.69,1.34-.66l6.62.45c.07,0,.12.09.12.21h0C174.16,164.93,174.11,165,174,165Z"/><path class="cls-11" d="M162.1,164.83a2,2,0,0,1,2-2c1.1,0,13.11.89,13.11,2Z"/><path class="cls-4" d="M166,164.83a1.93,1.93,0,1,1-1.93-1.94A1.93,1.93,0,0,1,166,164.83Z"/><path class="cls-5" d="M164.77,164.83a.68.68,0,1,1-.68-.69A.68.68,0,0,1,164.77,164.83Z"/><path class="cls-11" d="M148.47,176.49A74.34,74.34,0,0,1,199.4,155.4c.41,0,.8,0,1.2,0a37.69,37.69,0,1,0-63.33,35.87A72.54,72.54,0,0,1,148.47,176.49Z"/><path class="cls-26" d="M173.4,141.06h0a8.22,8.22,0,0,1-4.79-10.59l5.94-15.75a8.23,8.23,0,0,1,10.6-4.78h0a8.22,8.22,0,0,1,4.79,10.59L184,136.27A8.22,8.22,0,0,1,173.4,141.06Z"/><path class="cls-27" d="M185.15,109.94h0a8.19,8.19,0,0,0-7.75,1,6.9,6.9,0,0,1,4.09-.1c3.5,1,6.42,5.24,5,8.88-1.79,4.69-2.5,9.73-5,14.13-3.58,6.22-11.83,3.29-13.25-2.08a8.21,8.21,0,0,0,5.16,9.24h0A8.22,8.22,0,0,0,184,136.27l5.95-15.74A8.22,8.22,0,0,0,185.15,109.94Z"/><path class="cls-26" d="M186.18,153.17h0a7.87,7.87,0,0,1-1.29-11.06l10-12.63A7.87,7.87,0,0,1,206,128.19h0a7.88,7.88,0,0,1,1.29,11.06l-10,12.63A7.87,7.87,0,0,1,186.18,153.17Z"/><path class="cls-27" d="M206,128.19h0a7.8,7.8,0,0,0-5.12-1.69,7.65,7.65,0,0,1,1.37.57,7.27,7.27,0,0,1,2.59,9.87,52.46,52.46,0,0,1-4.38,5.69l-1,1.22-.64.78-.41.57c-.3.45-.59.9-.86,1.36a7.35,7.35,0,0,1-9.87,2.59,7,7,0,0,1-3.52-5.75,7.88,7.88,0,0,0,2.12,9.77h0a7.87,7.87,0,0,0,11.06-1.29l10-12.63A7.88,7.88,0,0,0,206,128.19Z"/><path class="cls-26" d="M192,174.33h0a7.49,7.49,0,0,1,.56-10.58L204,153.49a7.49,7.49,0,0,1,10.58.56h0a7.5,7.5,0,0,1-.56,10.59l-11.4,10.25A7.49,7.49,0,0,1,192,174.33Z"/><path class="cls-27" d="M214.53,154.05h0a7.45,7.45,0,0,0-3.84-2.27l.57.48c2.76,2.53,2.83,7.68,0,10.2-2.68,2.39-5.53,4.58-7.85,7.34-2.59,3.09-7.53,2.46-10.2,0a6.31,6.31,0,0,1-2.05-4.38,7.49,7.49,0,0,0,.83,8.91h0a7.49,7.49,0,0,0,10.58.56L214,164.64A7.5,7.5,0,0,0,214.53,154.05Z"/><path class="cls-28" d="M179.67,136.74c-1.5.91-8.9.23-11-3.67,1.12-3.29,4.73-7.21,8-6.13C181.06,128.36,180.79,134.45,179.67,136.74Z"/><path class="cls-28" d="M194.44,150c-1.63.66-8.82-1.21-10.23-5.4,1.64-3.07,5.83-6.34,8.9-4.75C197.17,141.91,195.92,147.88,194.44,150Z"/><path class="cls-28" d="M200.15,171.79c-1.52.35-7.52-2.32-8.15-6.16,1.87-2.45,6-4.7,8.44-2.87C203.68,165.18,201.73,170.2,200.15,171.79Z"/></g></g></g></g></svg>