<svg id="Grupo_16178" data-name="Grupo 16178" xmlns="http://www.w3.org/2000/svg" xmlns:xlink="http://www.w3.org/1999/xlink" width="237.503" height="223.713" viewBox="0 0 237.503 223.713">
  <defs>
    <clipPath id="clip-path">
      <path id="Trazado_33779" data-name="Trazado 33779" d="M157.232,158.087a53.115,53.115,0,0,0-1.02,7.707c0,2.7,2.721,8.5,3.628,11.11s2.039,14.739,2.039,15.083c0,.094.044.763.113,1.677,4.01,1.12,12.28,1.5,22.139-8.833-1.789-1.82-3.753-3.516-5.361-5.486-1.139-1.383-2.008-2.408-1.927-3,.131-.92,1.207-5.549,2.183-9.49l3.04-5.83c.751-.782,4.1-5,4.417-5.543,1.814-3.065,10.773-12.136,11.68-12.931s2.947-5.324,4.535-12.13c.582-2.5,1.251-5.436,1.921-8.133a14.489,14.489,0,0,1-3.678-1.3c-1.095,2.139-2.171,4.279-2.778,5.58-1.589,3.4-5.787,11.567-5.787,11.567l-10.541,11s-1.589.794-4.31,2.377c-.256.15-.525.319-.794.488l-5,1.1-4.291-.788a72.061,72.061,0,0,0-6.35-4.423c-2.721-1.583-4.31-2.377-4.31-2.377l-10.541-11s-4.2-8.133-5.787-11.567c-.732-1.564-2.133-4.335-3.434-6.881a34.137,34.137,0,0,1-3.353,1.207c.732,3.04,1.564,6.562,2.252,9.509,1.589,6.806,3.628,11.342,4.535,12.136s9.865,9.859,11.68,12.925a36.36,36.36,0,0,0,5.1,6.25Z" transform="translate(-133.66 -116.06)" fill="#02c39a" stroke="#263238" stroke-linecap="round" stroke-linejoin="round" stroke-width="1"/>
    </clipPath>
    <clipPath id="clip-path-2">
      <path id="Trazado_33784" data-name="Trazado 33784" d="M183.939,159.85s.113,7.144-.457,8.846-3.753,5-2.377,7.713,6.35-.344,8.133-3.628.913-4.31.913-4.31v-5Z" transform="translate(-180.763 -159.85)" fill="#fff" stroke="#263238" stroke-linecap="round" stroke-linejoin="round" stroke-width="1"/>
    </clipPath>
    <clipPath id="clip-path-3">
      <path id="Trazado_33789" data-name="Trazado 33789" d="M182.135,146.8s-2.152-2.039-2.721-.563.907,3.628,1.7,3.854l.794.225a9.121,9.121,0,0,0,2.271,4.31c1.814,1.814,3.854,2.721,6.118,1.589s4.085-3.972,4.648-7.369a19.144,19.144,0,0,0,.344-5.1c0-.569-1.02-4.648-3.972-5.668s-2.609.225-4.873,2.834a54.087,54.087,0,0,0-4.31,5.893Z" transform="translate(-179.286 -137.722)" fill="#fff" stroke="#263238" stroke-linecap="round" stroke-linejoin="round" stroke-width="1"/>
    </clipPath>
  </defs>
  <g id="background-simple--inject-2" transform="translate(12.548 0)">
    <path id="Trazado_33400" data-name="Trazado 33400" d="M281.405,151.587a233.159,233.159,0,0,0-5.855-23.922c-7.132-22.765-21.326-45.8-45.705-53.544-18-5.712-37.422-1.77-52.63,9.872C153.361,102.248,136,127.158,109.9,142.967c-21.789,13.206-33.193,34.538-25.868,64.692s31.8,47.719,58.58,45.586c22.258-1.8,45.53.125,64.773,10.929,17.2,9.653,47.582,1.251,72.718-25.117,14.645-15.371,13.225-34.914,8.452-53.175C285.6,174.571,283.689,163.035,281.405,151.587Z" transform="translate(-81.818 -71.534)" fill="#c2e4d4"/>
    <path id="Trazado_33401" data-name="Trazado 33401" d="M281.405,151.587a233.159,233.159,0,0,0-5.855-23.922c-7.132-22.765-21.326-45.8-45.705-53.544-18-5.712-37.422-1.77-52.63,9.872C153.361,102.248,136,127.158,109.9,142.967c-21.789,13.206-33.193,34.538-25.868,64.692s31.8,47.719,58.58,45.586c22.258-1.8,45.53.125,64.773,10.929,17.2,9.653,47.582,1.251,72.718-25.117,14.645-15.371,13.225-34.914,8.452-53.175C285.6,174.571,283.689,163.035,281.405,151.587Z" transform="translate(-81.818 -71.534)" fill="#c2e4d4" opacity="0.7"/>
  </g>
  <g id="Shadow--inject-2" transform="translate(0 216.631)">
    <path id="Trazado_33402" data-name="Trazado 33402" d="M299.263,421.361c0,1.952-53.175,3.541-118.748,3.541S61.76,423.313,61.76,421.361s53.175-3.541,118.755-3.541S299.263,419.409,299.263,421.361Z" transform="translate(-61.76 -417.82)" fill="#84c9a9"/>
    <path id="Trazado_33403" data-name="Trazado 33403" d="M299.263,421.361c0,1.952-53.175,3.541-118.748,3.541S61.76,423.313,61.76,421.361s53.175-3.541,118.755-3.541S299.263,419.409,299.263,421.361Z" transform="translate(-61.76 -417.82)" fill="#84c9a9" opacity="0.3"/>
  </g>
  <g id="Plants--inject-2" transform="translate(115.883 124.801)">
    <path id="Trazado_33404" data-name="Trazado 33404" d="M404.023,309.221c0,.031,1.608-1.658,1.7-1.777,1.02-1.364,2.19-4.6,1.082-6.162a2.258,2.258,0,0,0-3.347-.288,4.747,4.747,0,0,0-1.164,3.8C402.4,306.287,404.023,309.215,404.023,309.221Z" transform="translate(-305.137 -282.02)" fill="#02c39a"/>
    <path id="Trazado_33405" data-name="Trazado 33405" d="M396.867,292.412c-1.564-1.095-4.792.1-6.149,1.126-.119.094-1.8,1.7-1.764,1.708h.038c-.513.188-1.057.388-1.652.626-1.089.438-2.315.951-3.616,1.589a42.388,42.388,0,0,0-4.091,2.277,29.4,29.4,0,0,0-4.166,3.165.287.287,0,0,0-.044.044c.275-.482,1.007-1.877,1.051-1.977.626-1.589.895-5-.582-6.225a2.265,2.265,0,0,0-3.309.626,4.736,4.736,0,0,0-.113,3.972,14.873,14.873,0,0,0,2.809,3.754,39.566,39.566,0,0,0-3.6,3.935c-.626.807-1.282,1.639-1.877,2.5.225-.425.425-.813.444-.87.626-1.583.895-5-.582-6.225a2.258,2.258,0,0,0-3.3.626,4.722,4.722,0,0,0-.119,3.966,15.157,15.157,0,0,0,2.715,3.678l-.732.963c-1.126,1.57-2.24,3.128-3.384,4.642-.4.532-.813,1.045-1.251,1.551.2-.382.369-.7.388-.751.626-1.589.895-5-.582-6.256a2.258,2.258,0,0,0-3.309.626,4.713,4.713,0,0,0-.113,3.972,14.1,14.1,0,0,0,2.621,3.585c-.438.513-.876,1.02-1.326,1.5-.313.319-.588.626-.926.945l-.957.9c-.626.551-1.251,1.126-1.908,1.652-.438.369-.857.707-1.251,1.051.4-.519,1.176-1.564,1.251-1.658a8.758,8.758,0,0,0,1.026-4.3,2.969,2.969,0,0,0,.213-.45,2.265,2.265,0,0,0-1.5-3.015c-1.877-.457-4.442,1.814-5.336,3.266-.05.088-.526,1.076-.807,1.708.106-.394.225-.782.332-1.189.225-.807.425-1.62.626-2.5.088-.425.181-.857.275-1.289s.15-.895.231-1.345c.156-1.051.269-2.121.363-3.2a13.935,13.935,0,0,0,4.492.626,4.817,4.817,0,0,0,3.447-1.971,2.252,2.252,0,0,0-1.02-3.2c-1.764-.738-4.661,1.12-5.768,2.415-.069.081-.757,1.1-1.126,1.67.05-.626.1-1.3.131-1.964.075-1.877.1-3.835.131-5.762,0-.588,0-1.176.038-1.764a15.715,15.715,0,0,0,4.648.694,4.723,4.723,0,0,0,3.453-1.971,2.265,2.265,0,0,0-1.026-3.2c-1.758-.732-4.661,1.126-5.768,2.421-.081.094-1.07,1.564-1.307,1.952.031-1.295.075-2.59.169-3.86a40.569,40.569,0,0,1,.688-5.111c.119,0,3.228.926,4.679.7a4.71,4.71,0,0,0,3.447-1.971,2.265,2.265,0,0,0-1.02-3.2c-1.764-.732-4.667,1.12-5.768,2.421-.075.081-.832,1.2-1.176,1.739l-.1-.038a28.881,28.881,0,0,1,1.608-4.936c.363-.882.757-1.7,1.164-2.5a14.5,14.5,0,0,0,4.467,1.176,4.708,4.708,0,0,0,3.647-1.583,2.265,2.265,0,0,0-.663-3.3c-1.67-.92-4.761.626-6,1.77-.069.063-.682.782-1.126,1.314.188-.35.375-.719.563-1.057.7-1.251,1.414-2.377,2.058-3.359.369-.551.713-1.045,1.045-1.508a15.14,15.14,0,0,0,4.485-1.013,4.656,4.656,0,0,0,2.5-3.084,2.252,2.252,0,0,0-2.108-2.615c-1.908-.05-3.941,2.721-4.5,4.329-.05.144-.563,2.4-.532,2.4h.044q-.488.626-1.032,1.426c-.669.97-1.414,2.071-2.139,3.322a40.66,40.66,0,0,0-2.158,4.154,30.03,30.03,0,0,0-1.733,4.942.188.188,0,0,1,0,.063c0-.557-.188-2.114-.213-2.233-.35-1.664-2.021-4.679-3.916-4.867a2.258,2.258,0,0,0-2.427,2.327,4.717,4.717,0,0,0,2.1,3.372,15.48,15.48,0,0,0,4.423,1.6,40.653,40.653,0,0,0-.832,5.274c-.094,1.032-.163,2.071-.219,3.128-.044-.482-.088-.913-.1-.97-.357-1.67-2.027-4.679-3.922-4.873a2.258,2.258,0,0,0-2.427,2.327,4.741,4.741,0,0,0,2.1,3.378,15.243,15.243,0,0,0,4.292,1.57c0,.4-.038.8-.05,1.2-.075,1.927-.138,3.854-.257,5.737-.044.663-.113,1.32-.175,1.971-.038-.425-.081-.788-.088-.838-.357-1.67-2.027-4.679-3.922-4.873a2.258,2.258,0,0,0-2.427,2.327,4.73,4.73,0,0,0,2.1,3.378,13.894,13.894,0,0,0,4.166,1.539c-.081.669-.169,1.339-.282,1.977-.088.438-.138.87-.25,1.3l-.3,1.251c-.225.807-.444,1.645-.682,2.427-.163.544-.325,1.064-.488,1.589.05-.663.119-1.958.113-2.071-.094-1.7-1.289-4.93-3.128-5.405a2.258,2.258,0,0,0-2.746,1.933,4.708,4.708,0,0,0,1.558,3.653,17.042,17.042,0,0,0,4.1,2.246c-.275.863-.544,1.7-.813,2.5-.932,2.721-1.808,4.955-2.44,6.506a.388.388,0,0,1-.069.156l1.139.626c.038-.1.081-.2.119-.307.626-1.583,1.445-3.86,2.321-6.631.282-.876.563-1.814.845-2.784a24.277,24.277,0,0,0,2.878.188,16.545,16.545,0,0,0,2.146,3.979c-.7.569-1.389,1.12-2.046,1.627-2.277,1.758-4.241,3.128-5.63,4.079l-.163.113,1.251.688c1.351-.97,3.128-2.315,5.236-3.991.713-.576,1.47-1.207,2.233-1.877a15.564,15.564,0,0,0,3.916,2.565,4.723,4.723,0,0,0,3.954-.344,2.258,2.258,0,0,0,.413-3.334c-1.289-1.408-4.7-.938-6.256-.225-.088.044-1.026.626-1.614.976.313-.269.626-.525.932-.807.626-.544,1.251-1.114,1.914-1.727l.938-.92c.319-.307.626-.663.938-.995.713-.788,1.4-1.62,2.064-2.471a14.822,14.822,0,0,0,3.391,3.028,4.768,4.768,0,0,0,3.966.257,2.265,2.265,0,0,0,.913-3.234c-1.064-1.583-4.5-1.639-6.143-1.17-.106.031-1.251.5-1.877.769.394-.513.8-1.026,1.182-1.564,1.12-1.545,2.2-3.128,3.291-4.729l1.007-1.451a15.356,15.356,0,0,0,3.5,3.128,4.706,4.706,0,0,0,3.96.257,2.252,2.252,0,0,0,.913-3.234c-1.064-1.583-4.5-1.639-6.143-1.164-.119.031-1.758.713-2.165.907.738-1.064,1.489-2.121,2.271-3.128a38.675,38.675,0,0,1,3.391-3.885,16.026,16.026,0,0,0,3.51,3.165,4.723,4.723,0,0,0,3.966.263,2.258,2.258,0,0,0,.913-3.234c-1.064-1.589-4.5-1.639-6.143-1.17-.106.031-1.351.551-1.939.807l-.063-.094a29.265,29.265,0,0,1,4.06-3.222c.794-.538,1.577-1.007,2.352-1.439a15.251,15.251,0,0,0,3.078,3.441,4.639,4.639,0,0,0,3.91.694,2.258,2.258,0,0,0,1.251-3.128c-.882-1.7-4.3-2.121-5.974-1.833-.094,0-1.007.275-1.664.475l1.051-.576c1.282-.663,2.5-1.2,3.572-1.664.626-.257,1.176-.482,1.7-.682a15.037,15.037,0,0,0,4.3,1.627,4.687,4.687,0,0,0,3.791-1.189,2.258,2.258,0,0,0-.288-3.247Z" transform="translate(-283.368 -271.029)" fill="#02c39a"/>
    <path id="Trazado_33406" data-name="Trazado 33406" d="M357.455,284.044c.907,1.189,3.879,2.734,3.885,2.734s.425-2.265.432-2.415c.1-1.7-.713-5.042-2.5-5.73a2.258,2.258,0,0,0-2.953,1.608A4.856,4.856,0,0,0,357.455,284.044Z" transform="translate(-287.897 -273.827)" fill="#02c39a"/>
    <g id="Grupo_16176" data-name="Grupo 16176" transform="translate(60.764 0)">
      <path id="Trazado_33407" data-name="Trazado 33407" d="M404.023,309.221c0,.031,1.608-1.658,1.7-1.777,1.02-1.364,2.19-4.6,1.082-6.162a2.258,2.258,0,0,0-3.347-.288,4.747,4.747,0,0,0-1.164,3.8C402.4,306.287,404.023,309.215,404.023,309.221Z" transform="translate(-365.901 -282.02)" fill="#ffe038"/>
      <path id="Trazado_33408" data-name="Trazado 33408" d="M396.867,292.412c-1.564-1.095-4.792.1-6.149,1.126-.119.094-1.8,1.7-1.764,1.708h.038c-.513.188-1.057.388-1.652.626-1.089.438-2.315.951-3.616,1.589a42.388,42.388,0,0,0-4.091,2.277,29.4,29.4,0,0,0-4.166,3.165.287.287,0,0,0-.044.044c.275-.482,1.007-1.877,1.051-1.977.626-1.589.895-5-.582-6.225a2.265,2.265,0,0,0-3.309.626,4.736,4.736,0,0,0-.113,3.972,14.873,14.873,0,0,0,2.809,3.754,39.566,39.566,0,0,0-3.6,3.935c-.626.807-1.282,1.639-1.877,2.5.225-.425.425-.813.444-.87.626-1.583.895-5-.582-6.225a2.258,2.258,0,0,0-3.3.626,4.722,4.722,0,0,0-.119,3.966,15.157,15.157,0,0,0,2.715,3.678l-.732.963c-1.126,1.57-2.24,3.128-3.384,4.642-.4.532-.813,1.045-1.251,1.551.2-.382.369-.7.388-.751.626-1.589.895-5-.582-6.256a2.258,2.258,0,0,0-3.309.626,4.713,4.713,0,0,0-.113,3.972,14.1,14.1,0,0,0,2.621,3.585c-.438.513-.876,1.02-1.326,1.5-.313.319-.588.626-.926.945l-.957.9c-.626.551-1.251,1.126-1.908,1.652-.438.369-.857.707-1.251,1.051.4-.519,1.176-1.564,1.251-1.658a8.758,8.758,0,0,0,1.026-4.3,2.969,2.969,0,0,0,.213-.45,2.265,2.265,0,0,0-1.5-3.015c-1.877-.457-4.442,1.814-5.336,3.266-.05.088-.526,1.076-.807,1.708.106-.394.225-.782.332-1.189.225-.807.425-1.62.626-2.5.088-.425.181-.857.275-1.289s.15-.895.231-1.345c.156-1.051.269-2.121.363-3.2a13.935,13.935,0,0,0,4.492.626,4.817,4.817,0,0,0,3.447-1.971,2.252,2.252,0,0,0-1.02-3.2c-1.764-.738-4.661,1.12-5.768,2.415-.069.081-.757,1.1-1.126,1.67.05-.626.1-1.3.131-1.964.075-1.877.1-3.835.131-5.762,0-.588,0-1.176.038-1.764a15.715,15.715,0,0,0,4.648.694,4.723,4.723,0,0,0,3.453-1.971,2.265,2.265,0,0,0-1.026-3.2c-1.758-.732-4.661,1.126-5.768,2.421-.081.094-1.07,1.564-1.307,1.952.031-1.295.075-2.59.169-3.86a40.569,40.569,0,0,1,.688-5.111c.119,0,3.228.926,4.679.7a4.71,4.71,0,0,0,3.447-1.971,2.265,2.265,0,0,0-1.02-3.2c-1.764-.732-4.667,1.12-5.768,2.421-.075.081-.832,1.2-1.176,1.739l-.1-.038a28.881,28.881,0,0,1,1.608-4.936c.363-.882.757-1.7,1.164-2.5a14.5,14.5,0,0,0,4.467,1.176,4.708,4.708,0,0,0,3.647-1.583,2.265,2.265,0,0,0-.663-3.3c-1.67-.92-4.761.626-6,1.77-.069.063-.682.782-1.126,1.314.188-.35.375-.719.563-1.057.7-1.251,1.414-2.377,2.058-3.359.369-.551.713-1.045,1.045-1.508a15.14,15.14,0,0,0,4.485-1.013,4.656,4.656,0,0,0,2.5-3.084,2.252,2.252,0,0,0-2.108-2.615c-1.908-.05-3.941,2.721-4.5,4.329-.05.144-.563,2.4-.532,2.4h.044q-.488.626-1.032,1.426c-.669.97-1.414,2.071-2.139,3.322a40.66,40.66,0,0,0-2.158,4.154,30.03,30.03,0,0,0-1.733,4.942.188.188,0,0,1,0,.063c0-.557-.188-2.114-.213-2.233-.35-1.664-2.021-4.679-3.916-4.867a2.258,2.258,0,0,0-2.427,2.327,4.717,4.717,0,0,0,2.1,3.372,15.48,15.48,0,0,0,4.423,1.6,40.653,40.653,0,0,0-.832,5.274c-.094,1.032-.163,2.071-.219,3.128-.044-.482-.088-.913-.1-.97-.357-1.67-2.027-4.679-3.922-4.873a2.258,2.258,0,0,0-2.427,2.327,4.741,4.741,0,0,0,2.1,3.378,15.243,15.243,0,0,0,4.292,1.57c0,.4-.038.8-.05,1.2-.075,1.927-.138,3.854-.257,5.737-.044.663-.113,1.32-.175,1.971-.038-.425-.081-.788-.088-.838-.357-1.67-2.027-4.679-3.922-4.873a2.258,2.258,0,0,0-2.427,2.327,4.73,4.73,0,0,0,2.1,3.378,13.894,13.894,0,0,0,4.166,1.539c-.081.669-.169,1.339-.282,1.977-.088.438-.138.87-.25,1.3l-.3,1.251c-.225.807-.444,1.645-.682,2.427-.163.544-.325,1.064-.488,1.589.05-.663.119-1.958.113-2.071-.094-1.7-1.289-4.93-3.128-5.405a2.258,2.258,0,0,0-2.746,1.933,4.708,4.708,0,0,0,1.558,3.653,17.042,17.042,0,0,0,4.1,2.246c-.275.863-.544,1.7-.813,2.5-.932,2.721-1.808,4.955-2.44,6.506a.388.388,0,0,1-.069.156l1.139.626c.038-.1.081-.2.119-.307.626-1.583,1.445-3.86,2.321-6.631.282-.876.563-1.814.845-2.784a24.277,24.277,0,0,0,2.878.188,16.545,16.545,0,0,0,2.146,3.979c-.7.569-1.389,1.12-2.046,1.627-2.277,1.758-4.241,3.128-5.63,4.079l-.163.113,1.251.688c1.351-.97,3.128-2.315,5.236-3.991.713-.576,1.47-1.207,2.233-1.877a15.564,15.564,0,0,0,3.916,2.565,4.723,4.723,0,0,0,3.954-.344,2.258,2.258,0,0,0,.413-3.334c-1.289-1.408-4.7-.938-6.256-.225-.088.044-1.026.626-1.614.976.313-.269.626-.525.932-.807.626-.544,1.251-1.114,1.914-1.727l.938-.92c.319-.307.626-.663.938-.995.713-.788,1.4-1.62,2.064-2.471a14.822,14.822,0,0,0,3.391,3.028,4.768,4.768,0,0,0,3.966.257,2.265,2.265,0,0,0,.913-3.234c-1.064-1.583-4.5-1.639-6.143-1.17-.106.031-1.251.5-1.877.769.394-.513.8-1.026,1.182-1.564,1.12-1.545,2.2-3.128,3.291-4.729l1.007-1.451a15.356,15.356,0,0,0,3.5,3.128,4.706,4.706,0,0,0,3.96.257,2.252,2.252,0,0,0,.913-3.234c-1.064-1.583-4.5-1.639-6.143-1.164-.119.031-1.758.713-2.165.907.738-1.064,1.489-2.121,2.271-3.128a38.675,38.675,0,0,1,3.391-3.885,16.026,16.026,0,0,0,3.51,3.165,4.723,4.723,0,0,0,3.966.263,2.258,2.258,0,0,0,.913-3.234c-1.064-1.589-4.5-1.639-6.143-1.17-.106.031-1.351.551-1.939.807l-.063-.094a29.265,29.265,0,0,1,4.06-3.222c.794-.538,1.577-1.007,2.352-1.439a15.251,15.251,0,0,0,3.078,3.441,4.639,4.639,0,0,0,3.91.694,2.258,2.258,0,0,0,1.251-3.128c-.882-1.7-4.3-2.121-5.974-1.833-.094,0-1.007.275-1.664.475l1.051-.576c1.282-.663,2.5-1.2,3.572-1.664.626-.257,1.176-.482,1.7-.682a15.037,15.037,0,0,0,4.3,1.627,4.687,4.687,0,0,0,3.791-1.189,2.258,2.258,0,0,0-.288-3.247Z" transform="translate(-344.131 -271.029)" fill="#ffe038"/>
      <path id="Trazado_33409" data-name="Trazado 33409" d="M357.455,284.044c.907,1.189,3.879,2.734,3.885,2.734s.425-2.265.432-2.415c.1-1.7-.713-5.042-2.5-5.73a2.258,2.258,0,0,0-2.953,1.608A4.856,4.856,0,0,0,357.455,284.044Z" transform="translate(-348.66 -273.827)" fill="#ffe038"/>
    </g>
    <path id="Trazado_33410" data-name="Trazado 33410" d="M314.682,323.954s-10.441-25.18-16.265-24.085,10.009,40.144,10.009,40.144-18.38-34.67-30.91-34.67,4.592,38.317,20.469,51.091c0,0-25.067-27.006-39.687-21.164s29.246,33.206,29.246,33.206-25.486-8.026-22.559-1.82,10.86,7.294,10.86,7.294L247,375.415H347.269l-22.559-2.19s23.391-11.68,17.128-16.422-20.056,5.474-20.056,5.474S345.6,336,341,326.144s-25.067,17.885-25.067,17.885,16.716-35.4,13.369-41.608S314.682,323.954,314.682,323.954Z" transform="translate(-247 -281.814)" fill="#02c39a"/>
    <path id="Trazado_33411" data-name="Trazado 33411" d="M314.682,323.954s-10.441-25.18-16.265-24.085,10.009,40.144,10.009,40.144-18.38-34.67-30.91-34.67,4.592,38.317,20.469,51.091c0,0-25.067-27.006-39.687-21.164s29.246,33.206,29.246,33.206-25.486-8.026-22.559-1.82,10.86,7.294,10.86,7.294L247,375.415H347.269l-22.559-2.19s23.391-11.68,17.128-16.422-20.056,5.474-20.056,5.474S345.6,336,341,326.144s-25.067,17.885-25.067,17.885,16.716-35.4,13.369-41.608S314.682,323.954,314.682,323.954Z" transform="translate(-247 -281.814)" fill="#02c39a" opacity="0.998"/>
    <path id="Trazado_33412" data-name="Trazado 33412" d="M355.03,340.51c-9.19,27.157-9.19,46.375-9.19,46.375s10.86.413,22.139-7.939" transform="translate(-284.007 -297.044)" fill="none" stroke="#03ad89" stroke-linecap="round" stroke-linejoin="round" stroke-width="1"/>
    <path id="Trazado_33413" data-name="Trazado 33413" d="M348.7,349.636a162.871,162.871,0,0,0-7.507-23.816" transform="translate(-282.266 -291.544)" fill="none" stroke="#03ad89" stroke-linecap="round" stroke-linejoin="round" stroke-width="1"/>
    <path id="Trazado_33414" data-name="Trazado 33414" d="M309.78,338.51l23.4,34.676s15.871-13.369,21.3-20.888" transform="translate(-270.506 -296.295)" fill="none" stroke="#03ad89" stroke-linecap="round" stroke-linejoin="round" stroke-width="1"/>
    <path id="Trazado_33415" data-name="Trazado 33415" d="M325.756,396.29s-24.648-11.7-34.676-18.38" transform="translate(-263.504 -311.047)" fill="none" stroke="#03ad89" stroke-linecap="round" stroke-linejoin="round" stroke-width="1"/>
  </g>
  <g id="Profile_pic-rafiki" data-name="Profile pic-rafiki" transform="translate(68.214 16.659)">
    <g id="Character--inject-15" transform="translate(0 0)">
      <rect id="Rectángulo_3834" data-name="Rectángulo 3834" width="104.091" height="203.696" rx="15" transform="translate(2.077)" fill="#02c39a"/>
      <rect id="Rectángulo_3835" data-name="Rectángulo 3835" width="104.091" height="203.696" rx="15" transform="translate(2.077)" opacity="0.598"/>
      <rect id="Rectángulo_3836" data-name="Rectángulo 3836" width="22.064" height="27.15" rx="7.7" transform="translate(85.473 32.843)" fill="#02c39a"/>
      <rect id="Rectángulo_3837" data-name="Rectángulo 3837" width="22.064" height="27.15" rx="7.7" transform="translate(85.473 32.843)" opacity="0.701"/>
      <rect id="Rectángulo_3838" data-name="Rectángulo 3838" width="22.064" height="35.846" rx="7.7" transform="translate(0 32.843)" fill="#02c39a"/>
      <rect id="Rectángulo_3839" data-name="Rectángulo 3839" width="22.064" height="35.846" rx="4" transform="translate(0 32.843)" opacity="0.701"/>
      <rect id="Rectángulo_3840" data-name="Rectángulo 3840" width="22.064" height="27.15" rx="7.7" transform="translate(85.473 61.952)" fill="#02c39a"/>
      <rect id="Rectángulo_3841" data-name="Rectángulo 3841" width="22.064" height="27.15" rx="7.7" transform="translate(85.473 61.952)" opacity="0.701"/>
      <rect id="Rectángulo_3842" data-name="Rectángulo 3842" width="104.091" height="203.696" rx="15" transform="translate(1.095)" fill="#1d2221"/>
      <rect id="Rectángulo_3843" data-name="Rectángulo 3843" width="199.536" height="99.937" rx="13" transform="translate(103.109 2.077) rotate(90)" fill="#fff"/>
      <rect id="Rectángulo_3844" data-name="Rectángulo 3844" width="9.115" height="5.167" rx="1.69" transform="translate(85.924 7.513)" fill="#02c39a"/>
      <rect id="Rectángulo_3845" data-name="Rectángulo 3845" width="11.761" height="5.167" rx="1.91" transform="translate(11.029 7.513)" fill="#02c39a" opacity="0.2"/>
      <rect id="Rectángulo_3846" data-name="Rectángulo 3846" width="1.877" height="3.403" rx="0.62" transform="translate(84.804 8.395)" fill="#02c39a"/>
      <rect id="Rectángulo_3847" data-name="Rectángulo 3847" width="1.877" height="3.403" rx="0.62" transform="translate(92.286 8.395)" fill="#fff"/>
      <rect id="Rectángulo_3848" data-name="Rectángulo 3848" width="1.877" height="3.403" rx="0.62" transform="translate(89.915 8.395)" fill="#fff"/>
      <path id="Trazado_33631" data-name="Trazado 33631" d="M205.47,93.16a4.936,4.936,0,0,0,4.917,4.917h30.848a4.936,4.936,0,0,0,4.917-4.917Z" transform="translate(-172.671 -91.577)" fill="#1d2221"/>
    </g>
  </g>
  <g id="character-1--inject-38" transform="translate(12.381 37.948)">
    <path id="Trazado_33749" data-name="Trazado 33749" d="M177.213,134.056a6.666,6.666,0,0,0-3.172-5.1c-3.172-2.152-10.773-.907-13.606,2.721s-3.065,6.256-6.35,7.257-10.773,2.165-15.977,7.595-2.947,16.553-.563,17.46-.569-.794-.231-3.754a4.423,4.423,0,0,1,2.721-3.753s-3.059,4.873,3.4,11.223,13.606,4.88,19.618,3.628,13.375-5.668,13.944-10.885-1.364-8.164,0-10.541,6.35-2.046,7.032-6.575S182.881,132.811,177.213,134.056Z" transform="translate(-128.816 -103.979)" fill="#263238" stroke="#263238" stroke-linecap="round" stroke-linejoin="round" stroke-width="1"/>
    <path id="Trazado_33750" data-name="Trazado 33750" d="M237.42,264.772s3.165-4,4.379-4.135,3.015,2.621,3.8,4.723,2.621,6.419,2.621,8.52c0,3.672-1.577,4.848-2.227,4.191s-2.365-4.717-3.278-5.505a5.4,5.4,0,0,0-1.989-1.051S238.715,266.418,237.42,264.772Z" transform="translate(-167.184 -153.677)" fill="#02c39a" stroke="#263238" stroke-linecap="round" stroke-linejoin="round" stroke-width="1"/>
    <path id="Trazado_33751" data-name="Trazado 33751" d="M242.55,262.24s3.835,3.835,5.2,7.507,1.783,7.257.551,8.758" transform="translate(-169.105 -154.279)" fill="none" stroke="#263238" stroke-linecap="round" stroke-linejoin="round" stroke-width="1"/>
    <path id="Trazado_33752" data-name="Trazado 33752" d="M225.1,312.62s3.8.263,5.111.394,1.314,3.278.788,5.505-1.182,3.672-.626,6.162-.92,5.242-1.708,6.425-2.5.92-2.621,0,.394-6.293-1.439-9.309S223,314.734,225.1,312.62Z" transform="translate(-161.922 -173.142)" fill="#02c39a" stroke="#263238" stroke-linecap="round" stroke-linejoin="round" stroke-width="1"/>
    <path id="Trazado_33753" data-name="Trazado 33753" d="M231.175,313a7.463,7.463,0,0,1,.82,4.792c-.413,2.871.138,7.394.138,8.489s-1.508,5.336-2.052,5.474" transform="translate(-164.436 -173.284)" fill="none" stroke="#263238" stroke-linecap="round" stroke-linejoin="round" stroke-width="1"/>
    <path id="Trazado_33754" data-name="Trazado 33754" d="M205.518,94.817c-.682,0-3.4.682-3.628,1.476s-.563,8.5-.563,8.5-4.767,9.071-6.35,12.474-5.787,11.567-5.787,11.567l-10.541,11s-1.589.794-4.31,2.377c-.257.15-.525.319-.794.488l-5,1.1-4.292-.813a72.058,72.058,0,0,0-6.35-4.423c-2.721-1.583-4.31-2.377-4.31-2.377l-10.541-11s-4.2-8.133-5.787-11.567-6.35-12.474-6.35-12.474-.338-7.707-.563-8.5-2.953-1.476-3.628-1.476-1.927,3.628-1.476,4.423,1.689.788,1.689.788a21.4,21.4,0,0,0,0,2.721c.113.569,1.814,1.7,1.814,1.7s2.383,9.865,3.966,16.666,3.628,11.342,4.535,12.136,9.865,9.859,11.68,12.925a36.359,36.359,0,0,0,5.1,6.256,53.112,53.112,0,0,0-1.02,7.707c0,2.7,2.721,8.5,3.628,11.11s2.039,14.739,2.039,15.083.563,7.82.563,7.82-6.118,13.381-8.045,22.9-1.026,14.97,3.4,17.01,24.492,4.873,25.061,5.555,1.02,1.132,1.814,1.132,1.814-.45,2.5,0,.676.794,1.47.794a2.434,2.434,0,0,1,1.814,1.251c.225.45,1.589-.457,2.039-3.86s-.225-5-.907-5.1-.563-1.251-1.7-1.251a29.7,29.7,0,0,0-3.628.457,8.533,8.533,0,0,0-1.814-.338,7.736,7.736,0,0,1-1.933-.682c-.457-.113-7.932-3.178-7.932-3.178l-.288-.15c7.57-4.317,18.3-11.955,18.3-11.955s3.084-.194,4.435-1.351a19.828,19.828,0,0,0,2.5-2.7l2.315-.963a7.807,7.807,0,0,0-1.351-4.241c-1.345-1.733-1.927-2.5-1.927-2.5s-3.66,1.733-4.817,2.121-2.89.576-3.854,1.539-3.466,2.89-3.466,2.89l-8.477,4.429s10.791-13.869,12.136-19.65c1.157-4.955-.626-10.428-3.578-14.426-2.233-3-5.367-5.292-7.745-8.2-1.139-1.383-2.008-2.409-1.927-3,.131-.92,1.207-5.549,2.183-9.49l3.04-5.83c.751-.782,4.1-5,4.417-5.543,1.814-3.065,10.773-12.136,11.68-12.931s2.947-5.324,4.535-12.13,3.966-16.666,3.966-16.666,1.7-1.132,1.814-1.7a21.392,21.392,0,0,0,0-2.721s1.251,0,1.7-.794S206.2,94.817,205.518,94.817Z" transform="translate(-125.147 -90.227)" fill="#fff" stroke="#263238" stroke-linecap="round" stroke-linejoin="round" stroke-width="1"/>
    <path id="Trazado_33755" data-name="Trazado 33755" d="M210.4,251.012s-3.66,1.733-4.817,2.121-2.89.576-3.854,1.539-3.466,2.89-3.466,2.89l-8.477,4.429s10.791-13.869,12.136-19.65c1.157-4.955-.626-10.428-3.578-14.426a33.269,33.269,0,0,0-3.716-4.035,46.294,46.294,0,0,1-7.676,5.43,21.539,21.539,0,0,1-13.262,2.828v.219c0,.338.563,7.82.563,7.82s-6.118,13.381-8.045,22.9-1.026,14.97,3.4,17.01,24.492,4.873,25.061,5.555,1.02,1.132,1.814,1.132,1.814-.45,2.5,0,.676.794,1.47.794a2.434,2.434,0,0,1,1.814,1.251c.225.45,1.589-.457,2.039-3.86s-.225-5-.907-5.1-.563-1.251-1.7-1.251a29.7,29.7,0,0,0-3.628.457,8.533,8.533,0,0,0-1.814-.338,7.737,7.737,0,0,1-1.933-.682c-.457-.113-7.932-3.178-7.932-3.178l-.288-.15c7.57-4.316,18.3-11.955,18.3-11.955s3.084-.194,4.435-1.351a19.827,19.827,0,0,0,2.5-2.7l2.315-.963a7.807,7.807,0,0,0-1.351-4.241C210.979,251.781,210.4,251.012,210.4,251.012Z" transform="translate(-140.161 -139.916)" fill="#263238" stroke="#263238" stroke-linecap="round" stroke-linejoin="round" stroke-width="1"/>
    <path id="Trazado_33756" data-name="Trazado 33756" d="M185.821,248.69l2.227,1.051s-9.309,22.421-10.635,28.846.263,9.571,2.753,9.571,9.571-3.672,9.571-3.672" transform="translate(-144.537 -149.205)" fill="none" stroke="#fff" stroke-linecap="round" stroke-linejoin="round" stroke-width="1"/>
    <path id="Trazado_33757" data-name="Trazado 33757" d="M200.175,284.8s-5.586,8.258-7.175,10.191" transform="translate(-150.552 -162.725)" fill="none" stroke="#fff" stroke-linecap="round" stroke-linejoin="round" stroke-width="1"/>
    <path id="Trazado_33758" data-name="Trazado 33758" d="M129.867,93.665s-2.271-3.178-2.609-3.86-1.02,1.251-.457,2.383a8.294,8.294,0,0,0,1.364,1.927s-.907,2.721.45,3.854" transform="translate(-125.686 -89.663)" fill="#fff" stroke="#263238" stroke-linecap="round" stroke-linejoin="round" stroke-width="1"/>
    <path id="Trazado_33759" data-name="Trazado 33759" d="M248.42,100.459s2.265-3.172,2.609-3.854,1.02,1.251.45,2.383a8.383,8.383,0,0,1-1.358,1.927s.907,2.721-.457,3.854" transform="translate(-171.303 -92.209)" fill="#fff" stroke="#263238" stroke-linecap="round" stroke-linejoin="round" stroke-width="1"/>
    <path id="Trazado_33760" data-name="Trazado 33760" d="M157.232,158.087a53.115,53.115,0,0,0-1.02,7.707c0,2.7,2.721,8.5,3.628,11.11s2.039,14.739,2.039,15.083c0,.094.044.763.113,1.677,4.01,1.12,12.28,1.5,22.139-8.833-1.789-1.82-3.753-3.516-5.361-5.486-1.139-1.383-2.008-2.408-1.927-3,.131-.92,1.207-5.549,2.183-9.49l3.04-5.83c.751-.782,4.1-5,4.417-5.543,1.814-3.065,10.773-12.136,11.68-12.931s2.947-5.324,4.535-12.13c.582-2.5,1.251-5.436,1.921-8.133a14.489,14.489,0,0,1-3.678-1.3c-1.095,2.139-2.171,4.279-2.778,5.58-1.589,3.4-5.787,11.567-5.787,11.567l-10.541,11s-1.589.794-4.31,2.377c-.256.15-.525.319-.794.488l-5,1.1-4.291-.788a72.061,72.061,0,0,0-6.35-4.423c-2.721-1.583-4.31-2.377-4.31-2.377l-10.541-11s-4.2-8.133-5.787-11.567c-.732-1.564-2.133-4.335-3.434-6.881a34.137,34.137,0,0,1-3.353,1.207c.732,3.04,1.564,6.562,2.252,9.509,1.589,6.806,3.628,11.342,4.535,12.136s9.865,9.859,11.68,12.925a36.36,36.36,0,0,0,5.1,6.25Z" transform="translate(-128.335 -99.546)" fill="#ffe038"/>
    <g id="Grupo_16188" data-name="Grupo 16188" transform="translate(5.325 16.514)" clip-path="url(#clip-path)">
      <path id="Trazado_33761" data-name="Trazado 33761" d="M167.946,163.121c-.5-.263-.769-.394-.769-.394l-.626-.657-5.111,5.468a17.659,17.659,0,0,1,1.026,1.439Z" transform="translate(-144.061 -133.287)" fill="#263238"/>
      <path id="Trazado_33762" data-name="Trazado 33762" d="M160.1,155.671l-1.207-1.251-5.63,4.448c.394.419.794.845,1.182,1.251Z" transform="translate(-140.999 -130.423)" fill="#263238"/>
      <path id="Trazado_33763" data-name="Trazado 33763" d="M174.1,167.141l-.782-.475-.732-.425-6.256,7.169c.388.482.769.932,1.132,1.339Z" transform="translate(-145.892 -134.848)" fill="#263238"/>
      <path id="Trazado_33764" data-name="Trazado 33764" d="M152.266,148l-6.506,3.6,1.251,1.251,6.469-3.591Z" transform="translate(-138.19 -128.019)" fill="#263238"/>
      <path id="Trazado_33765" data-name="Trazado 33765" d="M177.442,169.62l-2.709,3.022a.857.857,0,0,0-.332.194.782.782,0,0,0-.225.432l-3.816,4.254c.375.388.626.626.626.626s-.188.913-.4,2.177l.694-1.051c1.7.726,6.412,2.033,18.4,2.033q1.839,0,3.91-.044a.882.882,0,0,0,.363-.088,3.584,3.584,0,0,0,1.458.7l.413-.794c.15-.156.407-.457.719-.832a4.841,4.841,0,0,1-.626,0c-2.158-.263-3.478-4.861-4.048-9l-.626.344c-.257.15-.525.319-.795.488l-.225.05c.094.626.2,1.251.338,1.877-8.289,2.133-12.6.4-14.207-.569l2.5-2.778C178.424,170.308,177.942,169.964,177.442,169.62Zm5.83,7.119a31.31,31.31,0,0,0,7.713-1.076,15.578,15.578,0,0,0,1.57,3.879c-12.912.206-18.248-1.038-20.15-1.7l2.8-3.128A14.489,14.489,0,0,0,183.272,176.739Z" transform="translate(-147.401 -136.114)" fill="#263238"/>
      <path id="Trazado_33766" data-name="Trazado 33766" d="M143.161,131.09l-5.511,2.333c.15.588.294,1.151.444,1.7l5.843-2.5Z" transform="translate(-135.154 -121.687)" fill="#263238"/>
      <path id="Trazado_33767" data-name="Trazado 33767" d="M139.769,122.7l-4.379,1.62c.131.569.269,1.132.4,1.7l4.748-1.752Z" transform="translate(-134.308 -118.546)" fill="#263238"/>
      <path id="Trazado_33768" data-name="Trazado 33768" d="M147.734,140.955c-.244-.469-.507-.995-.788-1.545l-6.156,3.61c.219.594.432,1.139.626,1.627Z" transform="translate(-136.33 -124.803)" fill="#263238"/>
      <path id="Trazado_33769" data-name="Trazado 33769" d="M231.343,142.86c-.275.557-.551,1.1-.813,1.614,1.708,1.545,3.672,3.241,5.712,4.8.213-.513.425-1.076.626-1.7C234.909,146.038,232.995,144.368,231.343,142.86Z" transform="translate(-169.93 -126.094)" fill="#263238"/>
      <path id="Trazado_33770" data-name="Trazado 33770" d="M191.7,208.24c.113-.519.25-1.139.407-1.814a49.661,49.661,0,0,1-19.643-.876c.269.694.538,1.376.8,2.021A46.16,46.16,0,0,0,184,208.759a58.838,58.838,0,0,0,7.7-.519Z" transform="translate(-148.187 -149.567)" fill="#263238"/>
      <path id="Trazado_33771" data-name="Trazado 33771" d="M235.2,135.145a60.354,60.354,0,0,0,5.136,3.359c.131-.5.256-1.013.382-1.539a.391.391,0,0,1,.05-.231,56.19,56.19,0,0,1-4.8-3.184C235.751,134.025,235.488,134.563,235.2,135.145Z" transform="translate(-171.678 -122.609)" fill="#263238"/>
      <path id="Trazado_33772" data-name="Trazado 33772" d="M169.72,194.994v.282a7.452,7.452,0,0,0,.181,1.458,99.28,99.28,0,0,1,22.233,1.251c.131-.551.269-1.1.4-1.639v-.056A98.85,98.85,0,0,0,169.72,194.994Z" transform="translate(-147.161 -145.541)" fill="#263238"/>
      <path id="Trazado_33773" data-name="Trazado 33773" d="M198.675,221.861c-.432-.413-.851-.832-1.251-1.251-6.525,4.379-14.288,6.168-19.174,6.881.069.626.125,1.251.175,1.752C183.53,228.524,191.738,226.653,198.675,221.861Z" transform="translate(-150.355 -155.205)" fill="#263238"/>
      <path id="Trazado_33774" data-name="Trazado 33774" d="M176.78,218.553c.081.563.163,1.157.244,1.764h2.1a56.259,56.259,0,0,0,16.7-2.358c-.307-.338-.626-.676-.907-1.032l-.338-.407A57.684,57.684,0,0,1,176.78,218.553Z" transform="translate(-149.805 -153.674)" fill="#263238"/>
      <path id="Trazado_33775" data-name="Trazado 33775" d="M225.47,152.706c1.5,1.877,3.128,3.685,4.754,5.374l1.251-1.251c-1.627-1.708-3.284-3.553-4.773-5.4Z" transform="translate(-168.035 -129.303)" fill="#263238"/>
      <path id="Trazado_33776" data-name="Trazado 33776" d="M223.157,165.508l1.189-1.251a31.174,31.174,0,0,1-5.142-4.967l-1.214,1.251A32.194,32.194,0,0,0,223.157,165.508Z" transform="translate(-165.235 -132.246)" fill="#263238"/>
      <path id="Trazado_33777" data-name="Trazado 33777" d="M215.576,174.214a10.7,10.7,0,0,1,.669-.988c-.97-1.827-2.383-4.542-3.635-7.125l-1.251,1.339c1.383,2.834,2.909,5.73,3.8,7.388C215.357,174.527,215.514,174.308,215.576,174.214Z" transform="translate(-162.752 -134.796)" fill="#263238"/>
      <path id="Trazado_33778" data-name="Trazado 33778" d="M204.457,122.949c-2.677,5.906-7.795,17.191-8.808,19.437-1.383,3.078-12.3,14.144-14.144,15.22s-2.921,3.691-3.691,6.456c-.732,2.634-2.853,4.711-3.053,7.557-1.051-.8-3.128-1.47-6.018-1.714-5.536-.463-10.76.926-10.76-4.148s3.228-10.009,3.384-11.536-2.921,1.251-4.46.156-11.992-13.068-15.07-16.891c-1.958-2.452-5.436-12.6-7.7-19.637l-.475.15c.732,3.04,1.564,6.562,2.252,9.509,1.589,6.806,3.628,11.342,4.535,12.13s9.865,9.865,11.68,12.931a36.359,36.359,0,0,0,5.1,6.256,53.111,53.111,0,0,0-1.02,7.707c0,2.7,2.721,8.5,3.628,11.11s2.039,14.739,2.039,15.083c0,.094.044.763.113,1.677a15.317,15.317,0,0,0,1.683.363c-.106-4.754-.895-14.664.457-16.828,1.47-2.352,8.564-2.459,10.635-3.8a11.636,11.636,0,0,0,2.559,6.881,33.288,33.288,0,0,0,6.118,5.236l.663-.676c-1.789-1.82-3.753-3.516-5.361-5.486-1.139-1.383-2.008-2.408-1.927-3,.131-.92,1.207-5.549,2.183-9.49l3.04-5.83c.751-.782,4.1-5,4.417-5.543,1.814-3.065,10.773-12.136,11.68-12.931s2.947-5.324,4.535-12.13c.582-2.5,1.251-5.436,1.921-8.133Z" transform="translate(-133.66 -116.73)" opacity="0.25"/>
    </g>
    <path id="Trazado_33780" data-name="Trazado 33780" d="M157.232,158.087a53.115,53.115,0,0,0-1.02,7.707c0,2.7,2.721,8.5,3.628,11.11s2.039,14.739,2.039,15.083c0,.094.044.763.113,1.677,4.01,1.12,12.28,1.5,22.139-8.833-1.789-1.82-3.753-3.516-5.361-5.486-1.139-1.383-2.008-2.408-1.927-3,.131-.92,1.207-5.549,2.183-9.49l3.04-5.83c.751-.782,4.1-5,4.417-5.543,1.814-3.065,10.773-12.136,11.68-12.931s2.947-5.324,4.535-12.13c.582-2.5,1.251-5.436,1.921-8.133a14.489,14.489,0,0,1-3.678-1.3c-1.095,2.139-2.171,4.279-2.778,5.58-1.589,3.4-5.787,11.567-5.787,11.567l-10.541,11s-1.589.794-4.31,2.377c-.256.15-.525.319-.794.488l-5,1.1-4.291-.788a72.061,72.061,0,0,0-6.35-4.423c-2.721-1.583-4.31-2.377-4.31-2.377l-10.541-11s-4.2-8.133-5.787-11.567c-.732-1.564-2.133-4.335-3.434-6.881a34.137,34.137,0,0,1-3.353,1.207c.732,3.04,1.564,6.562,2.252,9.509,1.589,6.806,3.628,11.342,4.535,12.136s9.865,9.859,11.68,12.925a36.36,36.36,0,0,0,5.1,6.25Z" transform="translate(-128.335 -99.546)" fill="none" stroke="#263238" stroke-linecap="round" stroke-linejoin="round" stroke-width="1"/>
    <path id="Trazado_33781" data-name="Trazado 33781" d="M183.939,159.85s.113,7.144-.457,8.846-3.753,5-2.377,7.713,6.35-.344,8.133-3.628.913-4.31.913-4.31v-5Z" transform="translate(-145.971 -115.942)" fill="#fff"/>
    <g id="Grupo_16189" data-name="Grupo 16189" transform="translate(34.792 43.908)" clip-path="url(#clip-path-2)">
      <path id="Trazado_33782" data-name="Trazado 33782" d="M191.609,163.478l-6.256-3.628s.113,7.144-.457,8.846a4.46,4.46,0,0,1-.307.682,6.4,6.4,0,0,0,3.666.081,9.628,9.628,0,0,0,3.334-2.34Z" transform="translate(-182.196 -159.85)" fill="#02c39a"/>
      <path id="Trazado_33783" data-name="Trazado 33783" d="M191.609,163.478l-6.256-3.628s.113,7.144-.457,8.846a4.46,4.46,0,0,1-.307.682,6.4,6.4,0,0,0,3.666.081,9.628,9.628,0,0,0,3.334-2.34Z" transform="translate(-182.196 -159.85)" fill="#ebe5c1"/>
    </g>
    <path id="Trazado_33785" data-name="Trazado 33785" d="M183.939,159.85s.113,7.144-.457,8.846-3.753,5-2.377,7.713,6.35-.344,8.133-3.628.913-4.31.913-4.31v-5Z" transform="translate(-145.971 -115.942)" fill="none" stroke="#263238" stroke-linecap="round" stroke-linejoin="round" stroke-width="1"/>
    <path id="Trazado_33786" data-name="Trazado 33786" d="M182.135,146.8s-2.152-2.039-2.721-.563.907,3.628,1.7,3.854l.794.225a9.121,9.121,0,0,0,2.271,4.31c1.814,1.814,3.854,2.721,6.118,1.589s4.085-3.972,4.648-7.369a19.144,19.144,0,0,0,.344-5.1c0-.569-1.02-4.648-3.972-5.668s-2.609.225-4.873,2.834a54.087,54.087,0,0,0-4.31,5.893Z" transform="translate(-145.418 -107.657)" fill="#fff"/>
    <g id="Grupo_16190" data-name="Grupo 16190" transform="translate(33.868 30.065)" clip-path="url(#clip-path-3)">
      <path id="Trazado_33787" data-name="Trazado 33787" d="M194.98,144c.188,1.877.5,6.744-.851,9.077-1.689,2.915-3.384,5.687-6.763,4.3a8.435,8.435,0,0,1-4.46-4.923s-.92.156-2.308-1.076a1.6,1.6,0,0,0-.488-.313,2.984,2.984,0,0,0,1.314,1.383l.794.225a9.121,9.121,0,0,0,2.271,4.31c1.814,1.814,3.854,2.721,6.118,1.589s4.085-3.972,4.648-7.369a19.144,19.144,0,0,0,.344-5.1,7.37,7.37,0,0,0-.619-2.1Z" transform="translate(-179.595 -140.073)" fill="#02c39a"/>
      <path id="Trazado_33788" data-name="Trazado 33788" d="M194.98,144c.188,1.877.5,6.744-.851,9.077-1.689,2.915-3.384,5.687-6.763,4.3a8.435,8.435,0,0,1-4.46-4.923s-.92.156-2.308-1.076a1.6,1.6,0,0,0-.488-.313,2.984,2.984,0,0,0,1.314,1.383l.794.225a9.121,9.121,0,0,0,2.271,4.31c1.814,1.814,3.854,2.721,6.118,1.589s4.085-3.972,4.648-7.369a19.144,19.144,0,0,0,.344-5.1,7.37,7.37,0,0,0-.619-2.1Z" transform="translate(-179.595 -140.073)" fill="#ebe5c1"/>
    </g>
    <path id="Trazado_33790" data-name="Trazado 33790" d="M182.135,146.8s-2.152-2.039-2.721-.563.907,3.628,1.7,3.854l.794.225a9.121,9.121,0,0,0,2.271,4.31c1.814,1.814,3.854,2.721,6.118,1.589s4.085-3.972,4.648-7.369a19.144,19.144,0,0,0,.344-5.1c0-.569-1.02-4.648-3.972-5.668s-2.609.225-4.873,2.834a54.087,54.087,0,0,0-4.31,5.893Z" transform="translate(-145.418 -107.657)" fill="none" stroke="#263238" stroke-linecap="round" stroke-linejoin="round" stroke-width="1"/>
    <path id="Trazado_33791" data-name="Trazado 33791" d="M198.141,148.62s-.794,1.47-.457,1.814,1.476,1.02.907,1.358a4.2,4.2,0,0,1-1.7.344" transform="translate(-152.009 -111.737)" fill="none" stroke="#263238" stroke-linecap="round" stroke-linejoin="round" stroke-width="1"/>
    <path id="Trazado_33792" data-name="Trazado 33792" d="M191.64,155s1.358,1.589,5.668,1.02c0,0-2.609,2.609-3.753,2.609S191.64,155,191.64,155Z" transform="translate(-150.043 -114.126)" fill="none" stroke="#263238" stroke-linecap="round" stroke-linejoin="round" stroke-width="1"/>
    <path id="Trazado_33793" data-name="Trazado 33793" d="M190.37,149.057a2.664,2.664,0,0,1,2.5.344" transform="translate(-149.568 -111.836)" fill="none" stroke="#263238" stroke-linecap="round" stroke-linejoin="round" stroke-width="1"/>
    <path id="Trazado_33794" data-name="Trazado 33794" d="M199.43,150.534s1.814-.563,2.152.682" transform="translate(-152.96 -112.406)" fill="none" stroke="#263238" stroke-linecap="round" stroke-linejoin="round" stroke-width="1"/>
    <path id="Trazado_33795" data-name="Trazado 33795" d="M190.19,145.551a2.559,2.559,0,0,1,2.947-.676" transform="translate(-149.5 -110.257)" fill="none" stroke="#263238" stroke-linecap="round" stroke-linejoin="round" stroke-width="1"/>
    <path id="Trazado_33796" data-name="Trazado 33796" d="M199.79,146.777s1.476-1.364,2.5,1.132" transform="translate(-153.095 -110.908)" fill="none" stroke="#263238" stroke-linecap="round" stroke-linejoin="round" stroke-width="1"/>
  </g>
  <g id="Grupo_16191" data-name="Grupo 16191" transform="translate(96.812 145.22)">
    <text id="Received_Successfully" data-name="Received
Successfully" transform="translate(25.009 8.222)" fill="#02c39a" font-size="8" font-family="Helvetica"><tspan x="-16.676" y="0">Received</tspan><tspan x="-22.23" y="10">Successfully</tspan></text>
  </g>
  <path id="Trazado_33807" data-name="Trazado 33807" d="M217.995,212.865a28.37,28.37,0,1,0,23.353-12.255,28.91,28.91,0,0,0-5.185.469" transform="translate(-119.417 -135.907)" fill="none" stroke="#ffe038" stroke-linecap="round" stroke-linejoin="round" stroke-width="1"/>
  <path id="Trazado_33808" data-name="Trazado 33808" d="M227.12,211.63a29.087,29.087,0,0,0-2.69,2.652" transform="translate(-123.707 -140.033)" fill="none" stroke="#ffe038" stroke-linecap="round" stroke-linejoin="round" stroke-width="1"/>
  <circle id="Elipse_1529" data-name="Elipse 1529" cx="24.072" cy="24.072" r="24.072" transform="matrix(0.392, -0.92, 0.92, 0.392, 90.371, 105.793)" fill="#ffe038"/>
  <path id="Trazado_33809" data-name="Trazado 33809" d="M240.59,233.931l5.8,6.6,13.414-11.9" transform="translate(-127.999 -140.482)" fill="none" stroke="#263238" stroke-linecap="round" stroke-linejoin="round" stroke-width="6"/>
  <path id="Trazado_34356" data-name="Trazado 34356" d="M119.659,262.337c-.413-2.19-1.289-5.555-2.915-6.694-2.5-1.733-4.955,1.983-7.932,2.5s1.733-9.177-3.472-10.91-6.694,4.711-8.427,7.682-4.216-1.251-6.45-.494-.988,4.711-3.222,5.2-5.949-2.5-7.688-.738a17.365,17.365,0,0,1-4.073,3.466Z" transform="translate(110.396 -154.395)" fill="#8bdbc3"/>
</svg>
