<svg id="Mobile_login-bro" data-name="Mobile login-bro" xmlns="http://www.w3.org/2000/svg" xmlns:xlink="http://www.w3.org/1999/xlink" width="253.898" height="246.395" viewBox="0 0 253.898 246.395">
  <defs>
    <clipPath id="clip-path">
      <path id="Trazado_33122" data-name="Trazado 33122" d="M102.2,205.967l-20.6-6.725L79.77,194.4l-4.185-.131L67.99,192.83l.913,1.57,9.559,6.938,2.358,1.176,21.545,11.254Z" transform="translate(-67.99 -192.83)" fill="#fff" stroke="#263238" stroke-miterlimit="10" stroke-width="1.004"/>
    </clipPath>
    <clipPath id="clip-path-2">
      <path id="Trazado_33126" data-name="Trazado 33126" d="M83.3,194.636l-1.964-1.176L77.41,194.9l.651.782Z" transform="translate(-77.41 -193.46)" fill="#98d1b7" stroke="#263238" stroke-linejoin="round" stroke-width="1.004"/>
    </clipPath>
    <clipPath id="clip-path-3">
      <path id="Trazado_33130" data-name="Trazado 33130" d="M125.292,143.194a10.935,10.935,0,0,0,.475,4.623c.794,1.808,5.2,7.932,5.2,7.932l-8.233,6.6s-3.416-6.881-4.066-7.995a11.341,11.341,0,0,1,.688-9.34C121.483,141.58,124.535,140.654,125.292,143.194Z" transform="translate(-117.978 -141.747)" fill="#fff" stroke="#263238" stroke-miterlimit="10" stroke-width="1.004"/>
    </clipPath>
    <clipPath id="clip-path-4">
      <path id="Trazado_33134" data-name="Trazado 33134" d="M119.516,130.282c-.507-3.128-4.091-9.49-9.778-9.246a13.829,13.829,0,0,0-7.019,1.814,20.643,20.643,0,0,0-3.628,2.715c-2.778,3.334-3.754,4.248-3.215,6.8a7.657,7.657,0,0,0,.469,2.99,23.838,23.838,0,0,0,2.171,4.836c-.225,1.057-.813,3.847-.845,4.485s1.877.194,2.84-.05c1.789,4,5.067,6.781,6.087,7.1,1.777.557,4.586-2.365,6.074-4.629s.363-4.811.369-5.824,3.347-3.241,4.586-3.947S120.016,133.4,119.516,130.282Z" transform="translate(-95.733 -121.029)" fill="#fff" stroke="#263238" stroke-miterlimit="10" stroke-width="1"/>
    </clipPath>
    <clipPath id="clip-path-5">
      <path id="Trazado_33161" data-name="Trazado 33161" d="M114.989,171.54s4.435,3.022,4.535,10.159a70.81,70.81,0,0,1-1,11.173c-.719,5.124-5.186,21.808-8.664,23.835s-8.877-1.8-8.877-1.8L74.87,197.571l-6.312-5.1-3.128-5.906.982-1.877,7.7,5.906-4.148-3.835.813-1.032,1.5,1.045,4.379,1.639.957,6.256,1.351.926,24.98,9.127s-.313-13.444-.081-16.015.551-9.033,3.3-13.719" transform="translate(-65.43 -171.54)" fill="#fff" stroke="#263238" stroke-miterlimit="10" stroke-width="1.004"/>
    </clipPath>
  </defs>
  <g id="background-simple--inject-1--inject-13" transform="translate(0 0)">
    <path id="Trazado_33100" data-name="Trazado 33100" d="M272.693,80.841c-15.565-35.489-52.924-48.852-82.4-25.023C178.78,65.113,171.6,79.908,157.5,85.845c-13.225,5.568-29.978,3.929-44.279,6.944C82.772,99.17,41.771,123.38,44.9,160.684c1.37,16.34,12.393,34.488,17.842,49.778,6.256,17.591,10.009,39.6,26.569,50.115,28.389,18.054,62.633,3.3,88.207-11.261,13.763-7.826,21.339-12.637,36.159-9.953,13.719,2.5,26.074,11.26,39.481.87,10.066-7.8,10.9-23.61,19.349-32.893,9.521-10.46,19.174-11.217,24.122-26.938,6-19.074-2.84-30.991-8.814-48.032S280.025,97.537,272.693,80.841Z" transform="translate(-44.73 -43.816)" fill="#02c39a"/>
    <g id="Grupo_16119" data-name="Grupo 16119">
      <path id="Trazado_33101" data-name="Trazado 33101" d="M272.693,80.841c-15.565-35.489-52.924-48.852-82.4-25.023C178.78,65.113,171.6,79.908,157.5,85.845c-13.225,5.568-29.978,3.929-44.279,6.944C82.772,99.17,41.771,123.38,44.9,160.684c1.37,16.34,12.393,34.488,17.842,49.778,6.256,17.591,10.009,39.6,26.569,50.115,28.389,18.054,62.633,3.3,88.207-11.261,13.763-7.826,21.339-12.637,36.159-9.953,13.719,2.5,26.074,11.26,39.481.87,10.066-7.8,10.9-23.61,19.349-32.893,9.521-10.46,19.174-11.217,24.122-26.938,6-19.074-2.84-30.991-8.814-48.032S280.025,97.537,272.693,80.841Z" transform="translate(-44.73 -43.816)" fill="#c7e8e1"/>
    </g>
  </g>
  <g id="Shadow--inject-1--inject-13" transform="translate(12.824 234.346)">
    <ellipse id="Elipse_1523" data-name="Elipse 1523" cx="96.703" cy="6.024" rx="96.703" ry="6.024" fill="#02c39a"/>
    <ellipse id="Elipse_1524" data-name="Elipse 1524" cx="96.703" cy="6.024" rx="96.703" ry="6.024" fill="#c2e3d4"/>
  </g>
  <g id="Profile_pic-rafiki" data-name="Profile pic-rafiki" transform="translate(73.218 11.029)">
    <g id="Character--inject-15">
      <rect id="Rectángulo_3834" data-name="Rectángulo 3834" width="117.196" height="229.341" rx="15" transform="translate(2.338)" fill="#02c39a"/>
      <rect id="Rectángulo_3835" data-name="Rectángulo 3835" width="117.196" height="229.341" rx="15" transform="translate(2.338)" opacity="0.598"/>
      <rect id="Rectángulo_3836" data-name="Rectángulo 3836" width="24.842" height="30.569" rx="7.7" transform="translate(96.235 36.978)" fill="#02c39a"/>
      <rect id="Rectángulo_3837" data-name="Rectángulo 3837" width="24.842" height="30.569" rx="4" transform="translate(96.235 36.978)" opacity="0.701"/>
      <rect id="Rectángulo_3838" data-name="Rectángulo 3838" width="24.842" height="40.359" rx="7.7" transform="translate(0 36.978)" fill="#02c39a"/>
      <rect id="Rectángulo_3839" data-name="Rectángulo 3839" width="24.842" height="40.359" rx="4" transform="translate(0 36.978)" opacity="0.701"/>
      <rect id="Rectángulo_3840" data-name="Rectángulo 3840" width="24.842" height="30.569" rx="7.7" transform="translate(96.235 69.751)" fill="#02c39a"/>
      <rect id="Rectángulo_3841" data-name="Rectángulo 3841" width="24.842" height="30.569" rx="4" transform="translate(96.235 69.751)" opacity="0.701"/>
      <rect id="Rectángulo_3842" data-name="Rectángulo 3842" width="117.196" height="229.341" rx="15" transform="translate(1.233)" fill="#1d2221"/>
      <rect id="Rectángulo_3843" data-name="Rectángulo 3843" width="224.658" height="112.519" rx="13" transform="translate(116.09 2.338) rotate(90)" fill="#fff"/>
      <rect id="Rectángulo_3844" data-name="Rectángulo 3844" width="10.262" height="5.818" rx="1.69" transform="translate(96.742 8.459)" fill="#02c39a"/>
      <rect id="Rectángulo_3845" data-name="Rectángulo 3845" width="13.242" height="5.818" rx="1.91" transform="translate(12.418 8.459)" fill="#02c39a" opacity="0.2"/>
      <rect id="Rectángulo_3846" data-name="Rectángulo 3846" width="2.113" height="3.832" rx="0.62" transform="translate(95.481 9.452)" fill="#02c39a"/>
      <rect id="Rectángulo_3847" data-name="Rectángulo 3847" width="2.113" height="3.832" rx="0.62" transform="translate(103.905 9.452)" fill="#fff"/>
      <rect id="Rectángulo_3848" data-name="Rectángulo 3848" width="2.113" height="3.832" rx="0.62" transform="translate(101.235 9.452)" fill="#fff"/>
      <path id="Trazado_33631" data-name="Trazado 33631" d="M205.47,93.16a5.557,5.557,0,0,0,5.536,5.536h34.731a5.557,5.557,0,0,0,5.536-5.536Z" transform="translate(-168.541 -91.378)" fill="#1d2221"/>
    </g>
  </g>
  <g id="Device--inject-1--inject-13" transform="translate(97.503 58.129)">
    <circle id="Elipse_1525" data-name="Elipse 1525" cx="24.004" cy="24.004" r="24.004" transform="translate(2.129 33.946) rotate(-45)" fill="#d7f9f1"/>
    <path id="Trazado_33102" data-name="Trazado 33102" d="M270.264,369.258H207.242a1.076,1.076,0,0,1-1.082-1.076h0a1.076,1.076,0,0,1,1.082-1.082h63.021a1.076,1.076,0,0,1,1.076,1.082h0A1.076,1.076,0,0,1,270.264,369.258Z" transform="translate(-202.675 -222.988)" fill="#ffe038"/>
    <rect id="Rectángulo_3781" data-name="Rectángulo 3781" width="72.149" height="12.931" rx="4.01" transform="translate(0 71.444)" fill="#ffe038"/>
    <rect id="Rectángulo_3782" data-name="Rectángulo 3782" width="72.149" height="12.931" rx="4.01" transform="translate(0 95.629)" fill="#ffe038"/>
    <path id="Trazado_33103" data-name="Trazado 33103" d="M261.429,191.964l-7.063-4.066v-3.359a11.048,11.048,0,0,0,2.171-4.235,2.277,2.277,0,0,0,.757.131c.876,0,1.433-2.715,1.526-4.654a2.883,2.883,0,0,0-.369-3.422s.576-.576.957-2.884-1.345-1.345-2.69-3.459-2.308-4.417-6.725-4.417a6.068,6.068,0,0,0-5.768,3.653,14.614,14.614,0,0,0-3.266.382c-1.351.382-1.733,4.8-.582,6.537a6.587,6.587,0,0,1,.8,3.084c-.307-.375-.626-.475-.8.375-.382,1.921,1.157,4.611,1.157,4.611l.794-.225a11.261,11.261,0,0,0,2.258,4.523V187.9l-7.063,4.066a5.43,5.43,0,0,0-2.715,4.7v2.327a23.991,23.991,0,0,0,29.334,0v-2.327A5.418,5.418,0,0,0,261.429,191.964Z" transform="translate(-213.403 -146.044)" fill="#1d2221"/>
    <path id="Trazado_33104" data-name="Trazado 33104" d="M213.877,301.229a.626.626,0,0,1-.432-.181.582.582,0,0,1-.194-.438.625.625,0,0,1,.094-.319l1.126-1.8-2.2.069a.588.588,0,0,1-.45-.169.626.626,0,0,1,0-.832.569.569,0,0,1,.45-.175l2.165.081-1.114-1.8a.626.626,0,0,1-.094-.325.582.582,0,0,1,.194-.438.626.626,0,0,1,.432-.181.563.563,0,0,1,.507.325l1.07,1.933,1.057-1.921a.626.626,0,0,1,.544-.35.569.569,0,0,1,.419.188.638.638,0,0,1,.094.751l-1.132,1.814,2.2-.081a.569.569,0,0,1,.45.175.582.582,0,0,1,.163.413.626.626,0,0,1-.163.419.588.588,0,0,1-.45.169l-2.208-.069,1.1,1.783a.627.627,0,0,1-.532.957.55.55,0,0,1-.5-.338l-1.045-1.877-1.038,1.877A.588.588,0,0,1,213.877,301.229Z" transform="translate(-204.737 -195.884)" fill="#263238"/>
    <path id="Trazado_33105" data-name="Trazado 33105" d="M230.092,301.229a.626.626,0,0,1-.432-.181.582.582,0,0,1-.194-.438.626.626,0,0,1,.094-.319l1.126-1.8-2.19.069a.626.626,0,0,1-.457-.169.594.594,0,0,1,.457-1.007l2.158.081-1.114-1.8a.626.626,0,0,1-.094-.325.582.582,0,0,1,.194-.438.626.626,0,0,1,.432-.181.563.563,0,0,1,.507.325l1.07,1.933,1.057-1.921a.626.626,0,0,1,.544-.35.557.557,0,0,1,.419.188.612.612,0,0,1,.094.751l-1.132,1.814,2.2-.069a.557.557,0,0,1,.444.175.582.582,0,0,1,.163.413.626.626,0,0,1-.163.419.575.575,0,0,1-.444.169l-2.215-.069,1.1,1.783a.627.627,0,0,1-.532.957.551.551,0,0,1-.5-.338l-1.045-1.877L230.6,300.9a.588.588,0,0,1-.513.325Z" transform="translate(-210.805 -195.884)" fill="#263238"/>
    <path id="Trazado_33106" data-name="Trazado 33106" d="M246.322,301.229a.626.626,0,0,1-.438-.181.582.582,0,0,1-.194-.438.626.626,0,0,1,.094-.319l1.126-1.8-2.19.069a.589.589,0,1,1,0-1.176l2.158.081-1.114-1.8a.628.628,0,0,1,.538-.945.563.563,0,0,1,.5.325l1.07,1.933,1.057-1.921a.626.626,0,0,1,.544-.35.557.557,0,0,1,.419.188.612.612,0,0,1,.094.751l-1.132,1.814,2.2-.081a.569.569,0,0,1,.626.588.626.626,0,0,1-.156.419.588.588,0,0,1-.45.169l-2.208-.069,1.095,1.783a.608.608,0,0,1-.1.769.588.588,0,0,1-.425.188.544.544,0,0,1-.494-.338l-1.051-1.877-1.038,1.877a.582.582,0,0,1-.532.338Z" transform="translate(-216.882 -195.884)" fill="#263238"/>
    <path id="Trazado_33107" data-name="Trazado 33107" d="M262.543,301.229a.63.63,0,0,1-.626-.619.588.588,0,0,1,.088-.319l1.126-1.8-2.19.069a.589.589,0,1,1,0-1.176l2.165.081-1.107-1.8a.628.628,0,0,1,.538-.945.563.563,0,0,1,.507.325l1.064,1.933,1.057-1.921a.626.626,0,0,1,.544-.35.557.557,0,0,1,.419.188.612.612,0,0,1,.094.751l-1.132,1.814,2.2-.081a.569.569,0,0,1,.626.588.626.626,0,0,1-.156.419.588.588,0,0,1-.45.169l-2.208-.069,1.095,1.783a.625.625,0,0,1,.094.332.582.582,0,0,1-.194.438.588.588,0,0,1-.425.188.544.544,0,0,1-.494-.338l-1.051-1.877-1.038,1.877a.582.582,0,0,1-.544.338Z" transform="translate(-222.957 -195.884)" fill="#263238"/>
    <path id="Trazado_33108" data-name="Trazado 33108" d="M278.763,301.229a.62.62,0,0,1-.532-.938l1.12-1.8-2.19.069a.589.589,0,1,1,0-1.176l2.164.081-1.114-1.8a.623.623,0,0,1,.532-.945.563.563,0,0,1,.507.325l1.063,1.933,1.057-1.921a.626.626,0,0,1,.544-.35.569.569,0,0,1,.425.188.621.621,0,0,1,.088.751l-1.132,1.814,2.2-.081a.569.569,0,0,1,.626.588.626.626,0,0,1-.156.419.588.588,0,0,1-.45.169l-2.208-.069,1.095,1.783a.626.626,0,0,1,.094.332.582.582,0,0,1-.194.438.588.588,0,0,1-.425.188.544.544,0,0,1-.494-.338l-1.051-1.877-1.038,1.877a.582.582,0,0,1-.532.338Z" transform="translate(-229.03 -195.884)" fill="#263238"/>
    <path id="Trazado_33109" data-name="Trazado 33109" d="M294.977,301.229a.625.625,0,0,1-.432-.181.582.582,0,0,1-.194-.438.626.626,0,0,1,.094-.319l1.12-1.8-2.19.069a.589.589,0,0,1-.457-1,.569.569,0,0,1,.45-.175l2.164.081-1.114-1.8a.623.623,0,0,1,.532-.945.563.563,0,0,1,.507.325l1.063,1.933,1.064-1.921a.626.626,0,0,1,.538-.35.569.569,0,0,1,.425.188.638.638,0,0,1,.094.751l-1.132,1.814,2.2-.081a.569.569,0,0,1,.45.175.582.582,0,0,1,.163.413.625.625,0,0,1-.163.419.588.588,0,0,1-.45.169l-2.208-.069,1.095,1.783a.633.633,0,0,1-.526.957.544.544,0,0,1-.494-.338l-1.051-1.877-1.038,1.877a.582.582,0,0,1-.507.338Z" transform="translate(-235.096 -195.884)" fill="#263238"/>
  </g>
  <g id="Plant--inject-1--inject-13" transform="translate(184.401 120.975)">
    <path id="Trazado_33112" data-name="Trazado 33112" d="M367.963,266.476s-8.721-22.158-.957-24.792c8.083-2.746,7.726,11.886,7.413,19.018-.657,15.239-2.34,18.073-3.6,14.351Zm-2.621,17.285c2.4,3.128,3.072-.113-1.251-14.745-2.027-6.881-6.431-20.8-13.187-15.577-6.487,5,8.952,23.147,8.952,23.147Zm-4.629,12.7c2.283,2.027,2.327-.532-3.1-11.1-2.546-4.948-7.932-14.964-12.343-10.009-4.235,4.779,10.2,16.4,10.2,16.4Zm-5,15.1c2.283,2.033,2.327-.532-3.1-11.092-2.546-4.948-7.932-14.97-12.343-10.009-4.21,4.792,10.178,16.409,10.178,16.409Zm14.451-30.741c-3.653,1.426-.751,2.978,14.507,2.934,7.157,0,21.77-.325,18.655-8.276-2.984-7.638-24.717,2.089-24.717,2.089ZM366,290.98c-3.866.669-1.326,2.771,13.638,5.762,7.013,1.408,21.395,4,19.925-4.379-1.408-8.083-24.642-2.865-24.642-2.865Zm-4.654,12.405c-3.291.475-1.189,2.308,11.392,5.186,5.9,1.351,18,3.885,16.953-3.266-1-6.881-20.769-2.99-20.769-2.99Zm-3.535,11.492c-3.222.82-.938,2.421,11.886,3.947,6.006.713,18.311,1.952,16.515-5.048-1.733-6.719-20.976-.77-20.976-.77Zm18.855-46.525c-1.877,4.2,2.021,3.566,15.271-7.995,6.206-5.424,18.655-16.772,8.8-22.421-9.465-5.43-19.643,20.769-19.643,20.769ZM358.3,329.847c-1.983,1.157-.038,1.608,9.058-.206,4.266-.845,12.943-2.721,10.009-6.425-2.84-3.566-14.476,3.941-14.476,3.941Z" transform="translate(-339.496 -237.196)" fill="#02c39a"/>
    <path id="Trazado_33113" data-name="Trazado 33113" d="M367.963,266.476s-8.721-22.158-.957-24.792c8.083-2.746,7.726,11.886,7.413,19.018-.657,15.239-2.34,18.073-3.6,14.351Zm-2.621,17.285c2.4,3.128,3.072-.113-1.251-14.745-2.027-6.881-6.431-20.8-13.187-15.577-6.487,5,8.952,23.147,8.952,23.147Zm-4.629,12.7c2.283,2.027,2.327-.532-3.1-11.1-2.546-4.948-7.932-14.964-12.343-10.009-4.235,4.779,10.2,16.4,10.2,16.4Zm-5,15.1c2.283,2.033,2.327-.532-3.1-11.092-2.546-4.948-7.932-14.97-12.343-10.009-4.21,4.792,10.178,16.409,10.178,16.409Zm14.451-30.741c-3.653,1.426-.751,2.978,14.507,2.934,7.157,0,21.77-.325,18.655-8.276-2.984-7.638-24.717,2.089-24.717,2.089ZM366,290.98c-3.866.669-1.326,2.771,13.638,5.762,7.013,1.408,21.395,4,19.925-4.379-1.408-8.083-24.642-2.865-24.642-2.865Zm-4.654,12.405c-3.291.475-1.189,2.308,11.392,5.186,5.9,1.351,18,3.885,16.953-3.266-1-6.881-20.769-2.99-20.769-2.99Zm-3.535,11.492c-3.222.82-.938,2.421,11.886,3.947,6.006.713,18.311,1.952,16.515-5.048-1.733-6.719-20.976-.77-20.976-.77Zm18.855-46.525c-1.877,4.2,2.021,3.566,15.271-7.995,6.206-5.424,18.655-16.772,8.8-22.421-9.465-5.43-19.643,20.769-19.643,20.769ZM358.3,329.847c-1.983,1.157-.038,1.608,9.058-.206,4.266-.845,12.943-2.721,10.009-6.425-2.84-3.566-14.476,3.941-14.476,3.941Z" transform="translate(-339.496 -237.196)" fill="#ffe038"/>
    <path id="Trazado_33114" data-name="Trazado 33114" d="M377.573,282.536l-1.52-25.292m-3.291,33.638-9.609-21.752m34.407,15.427-23.028,3.3m-6.75,14.745-12.468-16M369.972,297.7l17.179.863m-21.245,11.4,13.137,1.3m-16.309,6.494-6.525-9.815m5.774,13.281,15.446.144M358.856,350.2a.394.394,0,0,0,.363-.419c-.982-14.751,4.723-38.911,13.875-58.742,5.849-12.674,28.777-37.585,29.021-37.835a.394.394,0,0,0,0-.557.388.388,0,0,0-.551,0c-.231.25-23.253,25.255-29.152,38.042-9.321,20.313-14.951,44.035-13.95,59.143a.4.4,0,0,0,.394.369Zm18.711-67.281a.394.394,0,0,0,.369-.413l-1.5-25.3a.388.388,0,0,0-.413-.369.394.394,0,0,0-.369.413l1.52,25.292a.388.388,0,0,0,.388.369Zm-4.667,8.314a.394.394,0,0,0,.2-.513l-9.615-21.752a.389.389,0,1,0-.713.313l9.609,21.752a.394.394,0,0,0,.357.238.388.388,0,0,0,.188-.038Zm1.664-3,23.015-3.291a.394.394,0,1,0-.106-.776l-23.015,3.291a.389.389,0,1,0,.05.776ZM368,302.917a.394.394,0,0,0,.069-.551L355.6,286.339a.395.395,0,0,0-.626.482l12.5,16.052a.388.388,0,0,0,.307.15.394.394,0,0,0,.25-.106Zm19.493-4.335a.394.394,0,0,0-.375-.407l-17.147-.87a.394.394,0,0,0-.038.782l17.178.87h0a.394.394,0,0,0,.407-.375Zm-8.089,12.724a.388.388,0,0,0-.35-.432l-13.137-1.295a.388.388,0,0,0-.425.35.394.394,0,0,0,.35.425l13.137,1.3h.038a.388.388,0,0,0,.413-.35Zm-16.484,6.781a.394.394,0,0,0,.113-.544l-6.494-9.815a.4.4,0,0,0-.544-.106.394.394,0,0,0-.113.544l6.494,9.815a.407.407,0,0,0,.332.175.375.375,0,0,0,.238-.069Zm14.9,3.284a.4.4,0,0,0-.388-.394l-15.446-.144h0a.388.388,0,0,0-.388.388.382.382,0,0,0,.388.394l15.446.144h0a.394.394,0,0,0,.413-.388Zm-20.726,23.1a15.268,15.268,0,0,1,10.585-9.058.394.394,0,0,0,.3-.469.4.4,0,0,0-.469-.294c-8.352,1.827-11.123,9.49-11.154,9.565a.4.4,0,0,0,.244.5h.125a.388.388,0,0,0,.394-.244Zm1.758,5.737a.394.394,0,0,0,.363-.419c-.982-14.751,4.723-38.911,13.875-58.742,5.849-12.674,28.777-37.585,29.021-37.835a.394.394,0,0,0,0-.557.388.388,0,0,0-.551,0c-.231.25-23.253,25.255-29.152,38.042-9.321,20.313-14.951,44.035-13.95,59.143a.4.4,0,0,0,.394.369Zm18.711-67.281a.394.394,0,0,0,.369-.413l-1.5-25.3a.388.388,0,0,0-.413-.369.394.394,0,0,0-.369.413l1.52,25.292a.388.388,0,0,0,.388.369Zm-4.667,8.314a.394.394,0,0,0,.2-.513l-9.615-21.752a.389.389,0,0,0-.713.313l9.609,21.752a.394.394,0,0,0,.357.238.388.388,0,0,0,.188-.038Zm1.664-3,23.015-3.291a.394.394,0,1,0-.106-.776l-23.015,3.291a.389.389,0,1,0,.05.776ZM368,302.917a.394.394,0,0,0,.069-.551L355.6,286.339a.395.395,0,0,0-.626.482l12.5,16.052a.388.388,0,0,0,.307.15.394.394,0,0,0,.25-.106Zm19.493-4.335a.394.394,0,0,0-.375-.407l-17.147-.87a.394.394,0,0,0-.038.782l17.178.87h0a.394.394,0,0,0,.407-.375Zm-8.089,12.724a.388.388,0,0,0-.35-.432l-13.137-1.295a.388.388,0,0,0-.425.35.394.394,0,0,0,.35.425l13.137,1.3h.038a.388.388,0,0,0,.413-.35Zm-16.484,6.781a.394.394,0,0,0,.113-.544l-6.494-9.815a.4.4,0,0,0-.544-.106.394.394,0,0,0-.113.544l6.494,9.815a.407.407,0,0,0,.332.175.376.376,0,0,0,.238-.069Zm14.9,3.284a.4.4,0,0,0-.388-.394l-15.446-.144h0a.388.388,0,0,0-.388.388.382.382,0,0,0,.388.394l15.446.144h0a.394.394,0,0,0,.413-.388Zm-20.726,23.1a15.268,15.268,0,0,1,10.585-9.058.394.394,0,0,0,.3-.469.4.4,0,0,0-.469-.294c-8.352,1.827-11.123,9.49-11.154,9.565a.4.4,0,0,0,.244.5h.125a.388.388,0,0,0,.394-.244Z" transform="translate(-345.26 -242.94)" fill="#02c39a"/>
    <path id="Trazado_33115" data-name="Trazado 33115" d="M377.573,282.536l-1.52-25.292m-3.291,33.638-9.609-21.752m34.407,15.427-23.028,3.3m-6.75,14.745-12.468-16M369.972,297.7l17.179.863m-21.245,11.4,13.137,1.3m-16.309,6.494-6.525-9.815m5.774,13.281,15.446.144M358.856,350.2a.394.394,0,0,0,.363-.419c-.982-14.751,4.723-38.911,13.875-58.742,5.849-12.674,28.777-37.585,29.021-37.835a.394.394,0,0,0,0-.557.388.388,0,0,0-.551,0c-.231.25-23.253,25.255-29.152,38.042-9.321,20.313-14.951,44.035-13.95,59.143a.4.4,0,0,0,.394.369Zm18.711-67.281a.394.394,0,0,0,.369-.413l-1.5-25.3a.388.388,0,0,0-.413-.369.394.394,0,0,0-.369.413l1.52,25.292a.388.388,0,0,0,.388.369Zm-4.667,8.314a.394.394,0,0,0,.2-.513l-9.615-21.752a.389.389,0,1,0-.713.313l9.609,21.752a.394.394,0,0,0,.357.238.388.388,0,0,0,.188-.038Zm1.664-3,23.015-3.291a.394.394,0,1,0-.106-.776l-23.015,3.291a.389.389,0,1,0,.05.776ZM368,302.917a.394.394,0,0,0,.069-.551L355.6,286.339a.395.395,0,0,0-.626.482l12.5,16.052a.388.388,0,0,0,.307.15.394.394,0,0,0,.25-.106Zm19.493-4.335a.394.394,0,0,0-.375-.407l-17.147-.87a.394.394,0,0,0-.038.782l17.178.87h0a.394.394,0,0,0,.407-.375Zm-8.089,12.724a.388.388,0,0,0-.35-.432l-13.137-1.295a.388.388,0,0,0-.425.35.394.394,0,0,0,.35.425l13.137,1.3h.038a.388.388,0,0,0,.413-.35Zm-16.484,6.781a.394.394,0,0,0,.113-.544l-6.494-9.815a.4.4,0,0,0-.544-.106.394.394,0,0,0-.113.544l6.494,9.815a.407.407,0,0,0,.332.175.375.375,0,0,0,.238-.069Zm14.9,3.284a.4.4,0,0,0-.388-.394l-15.446-.144h0a.388.388,0,0,0-.388.388.382.382,0,0,0,.388.394l15.446.144h0a.394.394,0,0,0,.413-.388Zm-20.726,23.1a15.268,15.268,0,0,1,10.585-9.058.394.394,0,0,0,.3-.469.4.4,0,0,0-.469-.294c-8.352,1.827-11.123,9.49-11.154,9.565a.4.4,0,0,0,.244.5h.125a.388.388,0,0,0,.394-.244Zm1.758,5.737a.394.394,0,0,0,.363-.419c-.982-14.751,4.723-38.911,13.875-58.742,5.849-12.674,28.777-37.585,29.021-37.835a.394.394,0,0,0,0-.557.388.388,0,0,0-.551,0c-.231.25-23.253,25.255-29.152,38.042-9.321,20.313-14.951,44.035-13.95,59.143a.4.4,0,0,0,.394.369Zm18.711-67.281a.394.394,0,0,0,.369-.413l-1.5-25.3a.388.388,0,0,0-.413-.369.394.394,0,0,0-.369.413l1.52,25.292a.388.388,0,0,0,.388.369Zm-4.667,8.314a.394.394,0,0,0,.2-.513l-9.615-21.752a.389.389,0,0,0-.713.313l9.609,21.752a.394.394,0,0,0,.357.238.388.388,0,0,0,.188-.038Zm1.664-3,23.015-3.291a.394.394,0,1,0-.106-.776l-23.015,3.291a.389.389,0,1,0,.05.776ZM368,302.917a.394.394,0,0,0,.069-.551L355.6,286.339a.395.395,0,0,0-.626.482l12.5,16.052a.388.388,0,0,0,.307.15.394.394,0,0,0,.25-.106Zm19.493-4.335a.394.394,0,0,0-.375-.407l-17.147-.87a.394.394,0,0,0-.038.782l17.178.87h0a.394.394,0,0,0,.407-.375Zm-8.089,12.724a.388.388,0,0,0-.35-.432l-13.137-1.295a.388.388,0,0,0-.425.35.394.394,0,0,0,.35.425l13.137,1.3h.038a.388.388,0,0,0,.413-.35Zm-16.484,6.781a.394.394,0,0,0,.113-.544l-6.494-9.815a.4.4,0,0,0-.544-.106.394.394,0,0,0-.113.544l6.494,9.815a.407.407,0,0,0,.332.175.376.376,0,0,0,.238-.069Zm14.9,3.284a.4.4,0,0,0-.388-.394l-15.446-.144h0a.388.388,0,0,0-.388.388.382.382,0,0,0,.388.394l15.446.144h0a.394.394,0,0,0,.413-.388Zm-20.726,23.1a15.268,15.268,0,0,1,10.585-9.058.394.394,0,0,0,.3-.469.4.4,0,0,0-.469-.294c-8.352,1.827-11.123,9.49-11.154,9.565a.4.4,0,0,0,.244.5h.125a.388.388,0,0,0,.394-.244Z" transform="translate(-345.26 -242.94)" fill="#e6c510" opacity="0.996"/>
    <path id="Trazado_33116" data-name="Trazado 33116" d="M366.96,391.03H349.25V394.7H350.8l3.2,20h8.226l3.2-20h1.545Z" transform="translate(-343.148 -294.794)" fill="#02c39a"/>
    <path id="Trazado_33117" data-name="Trazado 33117" d="M366.96,391.03H349.25V394.7H350.8l3.2,20h8.226l3.2-20h1.545Z" transform="translate(-343.148 -294.794)" fill="#02c39a"/>
  </g>
  <g id="Character--inject-1--inject-13" transform="translate(10.998 43.925)">
    <path id="Trazado_33118" data-name="Trazado 33118" d="M102.2,205.967l-20.6-6.725L79.77,194.4l-4.185-.131L67.99,192.83l.913,1.57,9.559,6.938,2.358,1.176,21.545,11.254Z" transform="translate(-63.186 -143.534)" fill="#fff" stroke="#263238" stroke-miterlimit="10" stroke-width="1.004"/>
    <path id="Trazado_33119" data-name="Trazado 33119" d="M83.3,194.636l-1.964-1.176L77.41,194.9l.651.782Z" transform="translate(-66.713 -143.77)" fill="#fff" stroke="#263238" stroke-linejoin="round" stroke-width="1.004"/>
    <path id="Trazado_33120" data-name="Trazado 33120" d="M102.2,205.967l-20.6-6.725L79.77,194.4l-4.185-.131L67.99,192.83l.913,1.57,9.559,6.938,2.358,1.176,21.545,11.254Z" transform="translate(-63.186 -143.534)" fill="#fff"/>
    <g id="Grupo_16120" data-name="Grupo 16120" transform="translate(4.804 49.296)" clip-path="url(#clip-path)">
      <path id="Trazado_33121" data-name="Trazado 33121" d="M102.2,205.967l-20.6-6.725L79.77,194.4l-4.185-.131L67.99,192.83l.913,1.57,9.559,6.938,2.358,1.176,21.545,11.254Z" transform="translate(-67.99 -192.83)" fill="#80e1cc" stroke="#263238" stroke-miterlimit="10" stroke-width="1.004"/>
    </g>
    <path id="Trazado_33123" data-name="Trazado 33123" d="M102.2,205.967l-20.6-6.725L79.77,194.4l-4.185-.131L67.99,192.83l.913,1.57,9.559,6.938,2.358,1.176,21.545,11.254Z" transform="translate(-63.186 -143.534)" fill="none" stroke="#263238" stroke-miterlimit="10" stroke-width="1.004"/>
    <path id="Trazado_33124" data-name="Trazado 33124" d="M83.3,194.636l-1.964-1.176L77.41,194.9l.651.782Z" transform="translate(-66.713 -143.77)" fill="#fff"/>
    <g id="Grupo_16121" data-name="Grupo 16121" transform="translate(10.697 49.69)" clip-path="url(#clip-path-2)">
      <path id="Trazado_33125" data-name="Trazado 33125" d="M83.3,194.636l-1.964-1.176L77.41,194.9l.651.782Z" transform="translate(-77.41 -193.46)" fill="#98d1b7" stroke="#263238" stroke-linejoin="round" stroke-width="1.004" opacity="0.5"/>
    </g>
    <path id="Trazado_33127" data-name="Trazado 33127" d="M83.3,194.636l-1.964-1.176L77.41,194.9l.651.782Z" transform="translate(-66.713 -143.77)" fill="none" stroke="#263238" stroke-linejoin="round" stroke-width="1.004"/>
    <path id="Trazado_33128" data-name="Trazado 33128" d="M125.292,143.194a10.935,10.935,0,0,0,.475,4.623c.794,1.808,5.2,7.932,5.2,7.932l-8.233,6.6s-3.416-6.881-4.066-7.995a11.341,11.341,0,0,1,.688-9.34C121.483,141.58,124.535,140.654,125.292,143.194Z" transform="translate(-81.902 -124.408)" fill="#fff"/>
    <g id="Grupo_16122" data-name="Grupo 16122" transform="translate(36.076 17.339)" clip-path="url(#clip-path-3)">
      <path id="Trazado_33129" data-name="Trazado 33129" d="M121.761,158.52l3.572,7.407-1.9,2.709-3.591-6.412Z" transform="translate(-118.675 -148.027)" fill="#80e1cc" style="mix-blend-mode: multiply;isolation: isolate"/>
    </g>
    <path id="Trazado_33131" data-name="Trazado 33131" d="M125.292,143.194a10.935,10.935,0,0,0,.475,4.623c.794,1.808,5.2,7.932,5.2,7.932l-8.233,6.6s-3.416-6.881-4.066-7.995a11.341,11.341,0,0,1,.688-9.34C121.483,141.58,124.535,140.654,125.292,143.194Z" transform="translate(-81.902 -124.408)" fill="none" stroke="#263238" stroke-miterlimit="10" stroke-width="1.004"/>
    <path id="Trazado_33132" data-name="Trazado 33132" d="M119.516,130.282c-.507-3.128-4.091-9.49-9.778-9.246a13.829,13.829,0,0,0-7.019,1.814,20.643,20.643,0,0,0-3.628,2.715c-2.778,3.334-3.754,4.248-3.215,6.8a7.657,7.657,0,0,0,.469,2.99,23.838,23.838,0,0,0,2.171,4.836c-.225,1.057-.813,3.847-.845,4.485s1.877.194,2.84-.05c1.789,4,5.067,6.781,6.087,7.1,1.777.557,4.586-2.365,6.074-4.629s.363-4.811.369-5.824,3.347-3.241,4.586-3.947S120.016,133.4,119.516,130.282Z" transform="translate(-73.573 -116.651)" fill="#fff"/>
    <g id="Grupo_16123" data-name="Grupo 16123" transform="translate(22.16 4.379)" clip-path="url(#clip-path-4)">
      <path id="Trazado_33133" data-name="Trazado 33133" d="M95.913,134.129a7.657,7.657,0,0,0,.469,2.99,23.839,23.839,0,0,0,2.171,4.836c-.225,1.057-.813,3.847-.845,4.485s1.877.194,2.84-.05c1.789,4,5.067,6.781,6.087,7.1,1.777.557,4.586-2.365,6.074-4.629a4.561,4.561,0,0,0,.707-1.877c-.081-.294-.138-.475-.138-.475s-.838,3.222-2.5,2.8-4.21-3.753-5.63-4.9-.838-2.665-1.12-4.379-4.485-3.222-4.767-4.2.7-5.048.7-5.048,1.6-2.127,1.251-1.251a5.956,5.956,0,0,0,.419,4.623,3.19,3.19,0,0,0,2.947,1.82L106.1,128.4l-3.222-2.665L99.128,127.3C96.326,130.663,95.368,131.577,95.913,134.129Z" transform="translate(-95.746 -122.793)" fill="#80e1cc" style="mix-blend-mode: multiply;isolation: isolate"/>
    </g>
    <path id="Trazado_33135" data-name="Trazado 33135" d="M119.516,130.282c-.507-3.128-4.091-9.49-9.778-9.246a13.829,13.829,0,0,0-7.019,1.814,20.643,20.643,0,0,0-3.628,2.715c-2.778,3.334-3.754,4.248-3.215,6.8a7.657,7.657,0,0,0,.469,2.99,23.838,23.838,0,0,0,2.171,4.836c-.225,1.057-.813,3.847-.845,4.485s1.877.194,2.84-.05c1.789,4,5.067,6.781,6.087,7.1,1.777.557,4.586-2.365,6.074-4.629s.363-4.811.369-5.824,3.347-3.241,4.586-3.947S120.016,133.4,119.516,130.282Z" transform="translate(-73.573 -116.651)" fill="none" stroke="#263238" stroke-miterlimit="10" stroke-width="1"/>
    <path id="Trazado_33136" data-name="Trazado 33136" d="M101.42,148.64l.626,1.789s1.345.444,2.984-1.345" transform="translate(-75.702 -126.988)" fill="none" stroke="#263238" stroke-linecap="round" stroke-miterlimit="10" stroke-width="1"/>
    <path id="Trazado_33137" data-name="Trazado 33137" d="M108.81,160.66s1.489-.15,2.089-2.24" transform="translate(-78.469 -130.65)" fill="none" stroke="#263238" stroke-linecap="round" stroke-miterlimit="10" stroke-width="1"/>
    <path id="Trazado_33138" data-name="Trazado 33138" d="M99.75,145.445s.444-1.345,3.128-1.345" transform="translate(-75.077 -125.289)" fill="none" stroke="#263238" stroke-linecap="round" stroke-miterlimit="10" stroke-width="1"/>
    <path id="Trazado_33139" data-name="Trazado 33139" d="M108.911,115.925a44.455,44.455,0,0,0-5.887-.45s-5.893-3.4-11.555.225-2.94,9.966-2.94,11.548-1.814,1.589-.682,3.628,4.961.913,4.961.913a5.443,5.443,0,0,1,2.046-3.972c2.039-1.583,3.666-1.927,4.342-1.47,0,0-.45,3.4.225,4.754a13.316,13.316,0,0,0,2.946,1.132c.682,0-.444.957,1.814,1.808a2.828,2.828,0,0,0,2.5-.294c.332-1.376,1.057-3.447,2.408-2.965,1.983.707,3.791,5.586,1.107,7.251,3.228.588,7.138-5.124,7.369-10.328S112.264,116.514,108.911,115.925Z" transform="translate(-70.481 -114.03)" fill="#263238"/>
    <path id="Trazado_33140" data-name="Trazado 33140" d="M106.37,130.025s1.664-.895,3.7,1.02a11.769,11.769,0,0,0,11.261,3.065" transform="translate(-77.556 -119.941)" fill="none" stroke="#fff" stroke-linecap="round" stroke-linejoin="round" stroke-width="0.5"/>
    <path id="Trazado_33141" data-name="Trazado 33141" d="M106,126.629a4.031,4.031,0,0,1,3.059-1.789c1.914,0,6.387,2.684,9.959,2.684" transform="translate(-77.417 -118.077)" fill="none" stroke="#fff" stroke-linecap="round" stroke-linejoin="round" stroke-width="0.5"/>
    <path id="Trazado_33142" data-name="Trazado 33142" d="M100.712,132.4s-2.171-2.678-4.21-.507a3.476,3.476,0,0,0-.744,4.223" transform="translate(-73.431 -120.4)" fill="none" stroke="#fff" stroke-linecap="round" stroke-linejoin="round" stroke-width="0.5"/>
    <path id="Trazado_33143" data-name="Trazado 33143" d="M90.05,131.167a6.631,6.631,0,0,0,2.165-4.342c.256-2.809,4.091-5.236,6.512-2.934" transform="translate(-71.445 -117.379)" fill="none" stroke="#fff" stroke-linecap="round" stroke-linejoin="round" stroke-width="0.5"/>
    <path id="Trazado_33144" data-name="Trazado 33144" d="M96.37,118.914s3.835-3.7,7.025,1.02" transform="translate(-73.812 -115.341)" fill="none" stroke="#fff" stroke-linecap="round" stroke-linejoin="round" stroke-width="0.5"/>
    <path id="Trazado_33145" data-name="Trazado 33145" d="M133.921,410.81s2.358,3.666,2.1,6.024l-.256,2.358s-8.652,2.371-10.485,2.371-11.536-.92-11.536-.92l-.419-1.664a.55.55,0,0,1,.3-.626l8.652-4.035L125,411.336Z" transform="translate(-80.153 -225.149)" fill="#fff" stroke="#263238" stroke-miterlimit="10" stroke-width="1.004"/>
    <path id="Trazado_33146" data-name="Trazado 33146" d="M126.67,423.755c2.346.181,6.8-1.251,9.384-2.165l-.181,1.639s-8.683,2.371-10.516,2.371-11.536-.92-11.536-.92l-.3-1.189C115.071,423.5,123.567,423.517,126.67,423.755Z" transform="translate(-80.233 -229.186)" fill="#02c39a" stroke="#263238" stroke-miterlimit="10" stroke-width="1.004"/>
    <path id="Trazado_33147" data-name="Trazado 33147" d="M119.837,416.254l-12.593,5.48s-1.076,2.7,0,3.234,24.535,0,24.535,0,1.62-4.26-.938-7.119S119.837,416.254,119.837,416.254Z" transform="translate(-77.704 -227.083)" fill="#fff" stroke="#263238" stroke-miterlimit="10" stroke-width="1.004"/>
    <path id="Trazado_33148" data-name="Trazado 33148" d="M131.779,429.309s-23.459.538-24.535,0c-.519-.263-.538-1.02-.419-1.739h25.367a9.54,9.54,0,0,1-.413,1.739Z" transform="translate(-77.703 -231.425)" fill="#32a470" stroke="#263238" stroke-miterlimit="10" stroke-width="1.004"/>
    <path id="Trazado_33149" data-name="Trazado 33149" d="M114.368,262.858s-3.291,14.582-4.535,23.7-1.977,27.394-1.714,29.49,13.362,37.21,13.362,37.21l1.307,3.128,9.171-1.833s-4.191-13.362-5.762-20.7-5-19.393-5-21.489,8.133-42.121,8.714-44.748,3.222-6.662,3.222-6.662l-17.56-.357Z" transform="translate(-78.19 -168.908)" fill="#02c39a" stroke="#263238" stroke-miterlimit="10" stroke-width="1.004"/>
    <path id="Trazado_33150" data-name="Trazado 33150" d="M117.347,261.507s-1.927,13.319-1.132,22.577,2.5,28.971,2.5,31.9,4.736,20.457,5,25.962a66.451,66.451,0,0,1-.169,11.886l-.282,2.884s5.524.788,6.731,1.132a14.952,14.952,0,0,0,4.273.463,87.684,87.684,0,0,0,2.008-16.372c0-7.532-1.67-23.034-2.5-29.315s1.789-30.51,3.278-35.033,4.742-14.1,2.552-18.993S117.347,261.507,117.347,261.507Z" transform="translate(-81.17 -167.557)" fill="#02c39a" stroke="#263238" stroke-miterlimit="10" stroke-width="1.004"/>
    <path id="Trazado_33151" data-name="Trazado 33151" d="M141.514,255.65l-.2,5.956s-3.566.707-8.37,1.539c-3.966.688-13.925-.181-17.279-.507a1.164,1.164,0,0,1-1.057-1.251l.325-5.38Z" transform="translate(-80.639 -167.055)" fill="#263238"/>
    <path id="Trazado_33152" data-name="Trazado 33152" d="M127.72,160.75s-5.63,6.087-7.751,9.872-2.959,9.584-3.753,14.151,1.358,15.289.751,20.213l-1.921,15.508s-.413,1.051.97,2.2,8.133,1.57,14.232,1.877c2.227.113,8.877-1.32,9.966-1.389,1.314-.081,1.358-1.752,1.414-3.065.263-6.174,1.376-22.634,2.108-29.8C145.242,175.7,136.991,161.582,127.72,160.75Z" transform="translate(-80.782 -131.523)" fill="#fff" stroke="#263238" stroke-miterlimit="10" stroke-width="1.004"/>
    <path id="Trazado_33153" data-name="Trazado 33153" d="M143.706,214.078c.25-3.247.5-6.193.719-8.314.063-.626.1-1.251.131-1.877l-14.958,2.5L116.75,202.01a71.183,71.183,0,0,0,.45,7.957l12.606,3.528Z" transform="translate(-81.442 -146.971)" fill="#ffe038" style="mix-blend-mode: multiply;isolation: isolate"/>
    <path id="Trazado_33154" data-name="Trazado 33154" d="M131.968,161.73c-.851.945-2.54,2.865-4.148,4.9l9.5,9.653,3.128-1.251Z" transform="translate(-85.587 -131.89)" fill="#ffe038" style="mix-blend-mode: multiply;isolation: isolate"/>
    <path id="Trazado_33155" data-name="Trazado 33155" d="M129.791,160.75s-5.63,6.087-7.751,9.872a19.2,19.2,0,0,0-1.52,3.616l11.323-13.081A10.636,10.636,0,0,0,129.791,160.75Z" transform="translate(-82.854 -131.523)" fill="#263238"/>
    <path id="Trazado_33156" data-name="Trazado 33156" d="M117.65,190.092l12.286,4.041,14.92-1.714a34.988,34.988,0,0,0-2.446-10.829l-12.03,4.823-10.754-4.873A56.6,56.6,0,0,0,117.65,190.092Z" transform="translate(-81.779 -139.307)" fill="#ffe038" style="mix-blend-mode: multiply;isolation: isolate"/>
    <path id="Trazado_33157" data-name="Trazado 33157" d="M137.974,244.256a38.042,38.042,0,0,1-18.6-1.52l-3-1.026-.932,7.507,3.416.957a51.5,51.5,0,0,0,19.975,1.539l2.759-.332a2.5,2.5,0,0,0,.238-.97c.075-1.67.206-4.1.375-6.881Z" transform="translate(-80.952 -161.835)" fill="#ffe038" style="mix-blend-mode: multiply;isolation: isolate"/>
    <path id="Trazado_33158" data-name="Trazado 33158" d="M140.411,227.744a37.9,37.9,0,0,1-18.6-1.526l-3.816-1.307a24.648,24.648,0,0,1-.056,4.091l-.444,3.61,3.8,1.063a51.48,51.48,0,0,0,19.969,1.545l1.877-.225c.156-2.5.338-5.167.532-7.8Z" transform="translate(-81.719 -155.545)" fill="#ffe038" style="mix-blend-mode: multiply;isolation: isolate"/>
    <rect id="Rectángulo_3785" data-name="Rectángulo 3785" width="15.521" height="0.832" transform="matrix(-0.779, -0.627, 0.627, -0.779, 12.096, 55.469)" fill="#263238"/>
    <path id="Trazado_33159" data-name="Trazado 33159" d="M114.989,171.54s4.435,3.022,4.535,10.159a70.81,70.81,0,0,1-1,11.173c-.719,5.124-5.186,21.808-8.664,23.835s-8.877-1.8-8.877-1.8L74.87,197.571l-6.312-5.1-3.128-5.906.982-1.877,7.7,5.906-4.148-3.835.813-1.032,1.5,1.045,4.379,1.639.957,6.256,1.351.926,24.98,9.127s-.313-13.444-.081-16.015.551-9.033,3.3-13.719" transform="translate(-62.227 -135.563)" fill="#fff"/>
    <g id="Grupo_16124" data-name="Grupo 16124" transform="translate(3.203 35.977)" clip-path="url(#clip-path-5)">
      <path id="Trazado_33160" data-name="Trazado 33160" d="M103.8,202.432c0,4.642.156,10.159.156,10.159L79,203.5l-1.351-.926L76.7,196.32l-4.379-1.639-1.5-1.063-.813,1.032,4.135,3.816-7.7-5.906-.932,1.845,3.128,5.906,6.312,5.13,1.589,1.057,34.5,11.117Z" transform="translate(-65.46 -179.41)" fill="#80e1cc" style="mix-blend-mode: multiply;isolation: isolate"/>
    </g>
    <path id="Trazado_33162" data-name="Trazado 33162" d="M114.989,171.54s4.435,3.022,4.535,10.159a70.81,70.81,0,0,1-1,11.173c-.719,5.124-5.186,21.808-8.664,23.835s-8.877-1.8-8.877-1.8L74.87,197.571l-6.312-5.1-3.128-5.906.982-1.877,7.7,5.906-4.148-3.835.813-1.032,1.5,1.045,4.379,1.639.957,6.256,1.351.926,24.98,9.127s-.313-13.444-.081-16.015.551-9.033,3.3-13.719" transform="translate(-62.227 -135.563)" fill="none" stroke="#263238" stroke-miterlimit="10" stroke-width="1.004"/>
    <path id="Trazado_33163" data-name="Trazado 33163" d="M125.876,203.629l9.534,6.881,2.471-4.379s1.708-1.345,1.958-2.358-.069-2.659.188-3.672,1.533-1.964,1.652-4.417,0-4.5,0-4.5,2.064-8.489,1.839-12.18-3.785-10.216-6.637-10.36a9.76,9.76,0,0,0-9.44,4.642c-2.878,4.354-2.29,17.066-2.74,17.86s.175,4.717.175,4.717a2.2,2.2,0,0,0-.876,1.583,12.88,12.88,0,0,0,1.051,3.528Z" transform="translate(-84.156 -134.471)" fill="#fff" stroke="#263238" stroke-miterlimit="10" stroke-width="1.004"/>
    <path id="Trazado_33164" data-name="Trazado 33164" d="M125.277,199.41a17.654,17.654,0,0,1-.244,3.259c-.4.713.056,3.935.156,4.592a37.134,37.134,0,0,0,16.584,1.251,6.188,6.188,0,0,0,.213-1.333,44.965,44.965,0,0,0,0-4.5s.181-.757.432-1.908A60.38,60.38,0,0,1,125.277,199.41Z" transform="translate(-84.483 -145.998)" fill="#ffe038" style="mix-blend-mode: multiply;isolation: isolate"/>
    <path id="Trazado_33165" data-name="Trazado 33165" d="M127.873,177.19a22.835,22.835,0,0,0-1.683,7.225,37.266,37.266,0,0,0,17.835,2.171,23.86,23.86,0,0,0,.319-4.379,12.186,12.186,0,0,0-.813-3.378,61.846,61.846,0,0,1-15.658-1.639Z" transform="translate(-84.977 -137.678)" fill="#ffe038" style="mix-blend-mode: multiply;isolation: isolate"/>
    <path id="Trazado_33166" data-name="Trazado 33166" d="M125.68,220.45l.807,2.584,9.534,6.881,2.471-4.379s1.708-1.345,1.958-2.358a2.779,2.779,0,0,0,.081-.538,58.3,58.3,0,0,1-14.851-2.19Z" transform="translate(-84.786 -153.875)" fill="#263238"/>
    <path id="Trazado_33167" data-name="Trazado 33167" d="M134.158,362.4s.213-5.418,1.251-13.337-1.458-19.168-1.877-21.045.213-6.043-.206-7.507a33.516,33.516,0,0,1-1.251-14.951c1.195-7.244,2.165-26.393,2.165-26.393a12.966,12.966,0,0,1-3.891-5.63c-.882-3.184-.206-4.185-.206-4.185" transform="translate(-86.364 -172.184)" fill="none" stroke="#263238" stroke-miterlimit="10" stroke-width="1.004"/>
    <line id="Línea_4" data-name="Línea 4" x1="1.157" y2="6.406" transform="translate(48.032 97.46)" fill="none" stroke="#263238" stroke-miterlimit="10" stroke-width="1.004"/>
  </g>
</svg>
