<svg xmlns="http://www.w3.org/2000/svg" xmlns:xlink="http://www.w3.org/1999/xlink" width="1920.017" height="1071.021" viewBox="0 0 1920.017 1071.021">
  <defs>
    <linearGradient id="linear-gradient" y1="1" x2="1" y2="0.041" gradientUnits="objectBoundingBox">
      <stop offset="0" stop-color="#32a470"/>
      <stop offset="0.438" stop-color="#209c64"/>
      <stop offset="1" stop-color="#039051"/>
    </linearGradient>
    <clipPath id="clip-path">
      <path id="Trazado_33933" data-name="Trazado 33933" d="M.017,985h1920L1920,43.121S1740.868-86.021,1424-86.021,887.228,43.121,524.168,43.121,0-86.021,0-86.021Z" transform="translate(0 86.021)" fill="url(#linear-gradient)"/>
    </clipPath>
    <linearGradient id="linear-gradient-2" x1="-0.126" y1="1.745" x2="1" y2="-0.13" gradientUnits="objectBoundingBox">
      <stop offset="0" stop-color="#028090"/>
      <stop offset="0.438" stop-color="#00a896"/>
      <stop offset="1" stop-color="#02c39a"/>
    </linearGradient>
    <linearGradient id="linear-gradient-3" x1="-0.017" y1="1" x2="1" y2="-0.13" xlink:href="#linear-gradient-2"/>
  </defs>
  <g id="Enmascarar_grupo_55" data-name="Enmascarar grupo 55" clip-path="url(#clip-path)">
    <g id="Grupo_16201" data-name="Grupo 16201" transform="translate(0 -46.328)">
      <path id="Trazado_30902" data-name="Trazado 30902" d="M792.393-.112H0s190.3,176.18,313.417,309.466,50.957,234.277,179.056,337,299.921,95.029,299.921,95.029Z" transform="translate(1127.209 -131.888)" opacity="0.501" fill="url(#linear-gradient-2)"/>
      <path id="Trazado_30899" data-name="Trazado 30899" d="M0,540.291H676.6s-175.375-.439-283.509-109.425S320.229,193.3,244.063,104.347C160.359,6.591,0,0,0,0Z" transform="translate(0 717.037)" opacity="0.803" fill="url(#linear-gradient-3)"/>
      <path id="Trazado_30900" data-name="Trazado 30900" d="M676.6-.112H0s161.163,146.15,266.291,260.789,44.838,222.64,154.218,311S676.6,653.406,676.6,653.406Z" transform="translate(1243 -113.078)" opacity="0.803" fill="url(#linear-gradient-2)"/>
    </g>
  </g>
</svg>
