<svg xmlns="http://www.w3.org/2000/svg" xmlns:xlink="http://www.w3.org/1999/xlink" width="1920" height="171" viewBox="0 0 1920 171">
  <defs>
    <linearGradient id="linear-gradient" x2="1" y2="0.959" gradientUnits="objectBoundingBox">
      <stop offset="0" stop-color="#028090"/>
      <stop offset="0.438" stop-color="#00a896"/>
      <stop offset="1" stop-color="#02c39a"/>
    </linearGradient>
    <clipPath id="clip-path">
      <rect id="Rectángulo_3903" data-name="Rectángulo 3903" width="1920" height="171" fill="#fff"/>
    </clipPath>
    <clipPath id="clip-path-2">
      <path id="Trazado_33933" data-name="Trazado 33933" d="M.017-86.021h1920L1920,995.858S1740.868,1125,1424,1125s-536.77-129.142-899.83-129.142S0,1125,0,1125Z" transform="translate(0 86)" fill="url(#linear-gradient)"/>
    </clipPath>
  </defs>
  <g id="Enmascarar_grupo_60" data-name="Enmascarar grupo 60" clip-path="url(#clip-path)">
    <g id="Grupo_16204" data-name="Grupo 16204">
      <path id="Trazado_33934" data-name="Trazado 33934" d="M.017-86.021h1920l-.039,1081.83s-176.3,169.3-493.17,169.3S914.477,993.7,551.418,993.7,0,1185,0,1185Z" transform="translate(0 86)" fill="#02c39a"/>
      <path id="Trazado_33932" data-name="Trazado 33932" d="M.017-86.021h1920L1920,995.858S1740.868,1125,1424,1125s-536.77-129.142-899.83-129.142S0,1125,0,1125Z" transform="translate(0 86)" fill="url(#linear-gradient)"/>
      <g id="Enmascarar_grupo_55" data-name="Enmascarar grupo 55" clip-path="url(#clip-path-2)">
        <g id="Grupo_16201" data-name="Grupo 16201">
          <path id="Trazado_30899" data-name="Trazado 30899" d="M0,0H676.6S501.228.439,393.093,109.425,320.229,346.99,244.063,435.944C160.359,533.7,0,540.291,0,540.291Z" opacity="0.397" fill="url(#linear-gradient)"/>
        </g>
      </g>
    </g>
  </g>
</svg>
