<svg xmlns="http://www.w3.org/2000/svg" xmlns:xlink="http://www.w3.org/1999/xlink" width="1920.017" height="1211.021" viewBox="0 0 1920.017 1211.021">
  <defs>
    <linearGradient id="linear-gradient" x2="1" y2="0.959" gradientUnits="objectBoundingBox">
      <stop offset="0" stop-color="#028090"/>
      <stop offset="0.438" stop-color="#00a896"/>
      <stop offset="1" stop-color="#02c39a"/>
    </linearGradient>
    <clipPath id="clip-path">
      <path id="Trazado_33933" data-name="Trazado 33933" d="M.017-86.021h1920L1920,995.858S1740.868,1125,1424,1125s-536.77-129.142-899.83-129.142S0,1125,0,1125Z" transform="translate(0 86)" fill="url(#linear-gradient)"/>
    </clipPath>
    <linearGradient id="linear-gradient-2" x1="1.3" y1="-0.484" x2="-0.191" y2="1.256" xlink:href="#linear-gradient"/>
  </defs>
  <g id="Enmascarar_grupo_55" data-name="Enmascarar grupo 55" transform="translate(0 0.021)" clip-path="url(#clip-path)">
    <g id="Grupo_16201" data-name="Grupo 16201">
      <path id="Trazado_34863" data-name="Trazado 34863" d="M0,0H804.824S596.215.5,467.587,124,380.915,393.2,290.315,494C190.749,604.78,0,612.249,0,612.249Z" transform="translate(1919.603 1230.291) rotate(180)" opacity="0.499" fill="url(#linear-gradient-2)"/>
      <path id="Trazado_30899" data-name="Trazado 30899" d="M0,0H676.6S501.228.439,393.093,109.425,320.229,346.99,244.063,435.944C160.359,533.7,0,540.291,0,540.291Z" opacity="0.397" fill="url(#linear-gradient)"/>
      <path id="Trazado_34862" data-name="Trazado 34862" d="M0,0H676.6S501.228.439,393.093,109.425,320.229,346.99,244.063,435.944C160.359,533.7,0,540.291,0,540.291Z" transform="translate(1919.603 1230.291) rotate(180)" opacity="0.803" fill="url(#linear-gradient-2)"/>
      <path id="Trazado_34865" data-name="Trazado 34865" d="M255.859-6.159c119.632,0,172.473,41.492,172.473,161.124S336.246,429.186,216.614,429.186,0,332.2,0,212.572,136.226-6.159,255.859-6.159Z" transform="matrix(-0.259, -0.966, 0.966, -0.259, -286.281, 1286.125)" fill="#01b798" opacity="0.146"/>
      <path id="Trazado_34866" data-name="Trazado 34866" d="M255.859-6.159c119.632,0,172.473,41.492,172.473,161.124S336.246,429.186,216.614,429.186,0,332.2,0,212.572,136.226-6.159,255.859-6.159Z" transform="matrix(-0.966, -0.259, 0.259, -0.966, 280.719, 1547.249)" fill="#01b798" opacity="0.295"/>
    </g>
  </g>
</svg>
